<?xml version="1.0" standalone="no"?>
<!DOCTYPE svg PUBLIC "-//W3C//DTD SVG 1.1//EN" "http://www.w3.org/Graphics/SVG/1.1/DTD/svg11.dtd" >
<svg xmlns="http://www.w3.org/2000/svg" xmlns:xlink="http://www.w3.org/1999/xlink" version="1.1">
<metadata></metadata>
<defs>
<font id="gilroymedium" horiz-adv-x="1054" >
<font-face units-per-em="2048" ascent="1585" descent="-463" />
<missing-glyph horiz-adv-x="512" />
<glyph horiz-adv-x="0" />
<glyph unicode="&#xd;" horiz-adv-x="681" />
<glyph unicode=" "  horiz-adv-x="512" />
<glyph unicode="&#x09;" horiz-adv-x="512" />
<glyph unicode="&#xa0;" horiz-adv-x="512" />
<glyph unicode="!" horiz-adv-x="497" d="M115 110.5q0 55.5 39 94.5t94 39q57 0 95 -39t38 -94.5t-38 -94.5t-95 -39q-55 0 -94 39t-39 94.5zM141 1024v410h215v-410l-39 -604h-137z" />
<glyph unicode="&#x22;" horiz-adv-x="681" d="M98 1434h178l-24 -430h-129zM406 1434h178l-25 -430h-129z" />
<glyph unicode="#" horiz-adv-x="1239" d="M57 457l25 147h237l37 225h-239l24 150h240l59 352h158l-59 -352h249l60 352h156l-60 -352h238l-25 -150h-237l-37 -225h239l-24 -147h-240l-59 -355h-156l59 355h-249l-60 -355h-157l59 355h-238zM477 604h250l37 225h-250z" />
<glyph unicode="$" horiz-adv-x="1126" d="M72 283l164 94q72 -190 292 -215v495q-168 59 -266 136q-121 94 -121 274q0 166 111 270q113 106 276 121v180h129v-182q260 -35 369 -274l-160 -90q-59 150 -209 178v-471q92 -33 150 -62q61 -31 121 -75q127 -93 127 -279q0 -170 -111 -277q-111 -106 -287 -129v-182 h-129v180q-166 12 -284.5 92t-171.5 216zM330 1067q0 -76 46 -126t152 -93v424q-92 -12 -145 -66.5t-53 -138.5zM657 166q96 14 151.5 71.5t55.5 143.5q0 82 -48 132t-159 97v-444z" />
<glyph unicode="%" horiz-adv-x="1490" d="M113 1143q0 131 92 223q94 94 231 94q139 0 231.5 -92t92.5 -225t-92 -225q-91 -93 -232 -93q-139 0 -231 92.5t-92 225.5zM209 203l952 1065l101 -56l-955 -1067zM272 1143q0 -72 46.5 -120t118 -48t117.5 49t46 118.5t-46 118t-117.5 48.5t-118 -48t-46.5 -118z M731 293q0 133 92 225t231.5 92t231.5 -92t92 -225t-92 -225.5t-231.5 -92.5t-231.5 92.5t-92 225.5zM891 293q0 -70 45 -119q47 -47 119 -47q70 0 116 47q47 49 47.5 118.5t-47.5 117.5q-45 49 -116 49q-72 0 -119 -49q-45 -47 -45 -117z" />
<glyph unicode="&#x26;" horiz-adv-x="1355" d="M113 387q0 133 67.5 242.5t194.5 171.5q-92 117 -92 260q0 178 123 289q127 111 299 110q143 0 259.5 -78.5t168.5 -214.5l-160 -92q-31 94 -101.5 147.5t-162.5 53.5q-100 0 -168 -60.5t-68 -152.5q0 -63 29.5 -116.5t97.5 -127.5l391 -418q53 109 74 261l164 -95 q-29 -170 -111 -305l191 -203l-160 -92l-145 156q-158 -150 -410 -150q-217 0 -348 111q-133 115 -133 303zM303 399q0 -115 78 -180t217 -65q170 0 283 100l-387 416q-94 -39 -142.5 -112t-48.5 -159z" />
<glyph unicode="'" horiz-adv-x="374" d="M98 1434h178l-24 -430h-129z" />
<glyph unicode="(" horiz-adv-x="573" d="M119 717q0 471 225 921h178q-225 -451 -225 -921.5t225 -921.5h-178q-225 451 -225 922z" />
<glyph unicode=")" horiz-adv-x="573" d="M51 -205q225 451 225 922t-225 921h178q225 -451 225 -921.5t-225 -921.5h-178z" />
<glyph unicode="*" horiz-adv-x="806" d="M119 1118v131l184 -10l-106 152l114 69l92 -168l93 168l116 -69l-108 -152l186 10v-131l-186 8l108 -149l-116 -70l-93 168l-92 -168l-114 70l106 149z" />
<glyph unicode="+" horiz-adv-x="1116" d="M119 633v170h354v354h170v-354h356v-170h-356v-357h-170v357h-354z" />
<glyph unicode="," horiz-adv-x="518" d="M115 -287l82 498h204l-133 -498h-153z" />
<glyph unicode="-" d="M154 543v172h747v-172h-747z" />
<glyph unicode="." horiz-adv-x="497" d="M115 110.5q0 55.5 39 94.5t94 39q57 0 95 -39t38 -94.5t-38 -94.5t-95 -39q-55 0 -94 39t-39 94.5z" />
<glyph unicode="/" horiz-adv-x="1081" d="M78 -205l819 1843h107l-820 -1843h-106z" />
<glyph unicode="0" horiz-adv-x="1290" d="M92.5 717q-0.5 336 145.5 540q143 203 407 203t408 -203q145 -205 145 -540.5t-145 -540.5q-143 -203 -407.5 -203t-407.5 203q-145 205 -145.5 541zM283 717q0 -266 94 -411.5t268 -145.5t269.5 145.5t95.5 411.5t-95.5 412.5t-269.5 146.5t-268 -145.5t-94 -413.5z" />
<glyph unicode="1" horiz-adv-x="729" d="M29 1303l377 131h163v-1434h-188v1229l-305 -90z" />
<glyph unicode="2" horiz-adv-x="1079" d="M74 0v156l506 516q203 203 202 348q0 119 -72.5 187.5t-181.5 68.5q-203 0 -295 -193l-159 95q66 137 184.5 209.5t267.5 72.5q182 0 314 -119q133 -121 133 -319q0 -217 -256 -473l-367 -365h649v-184h-925z" />
<glyph unicode="3" horiz-adv-x="1095" d="M57 264l160 94q63 -199 311 -198q135 0 218 70.5t83 193.5t-82.5 194.5t-218.5 71.5h-49l-76 117l332 448h-637v179h860v-168l-311 -420q168 -31 270.5 -143.5t102.5 -278.5q0 -211 -143 -330q-145 -121 -349 -121q-168 0 -292.5 76t-178.5 215z" />
<glyph unicode="4" horiz-adv-x="1187" d="M49 272v179l514 983h205l-514 -983h526v405h191v-405h174v-179h-174v-272h-191v272h-731z" />
<glyph unicode="5" horiz-adv-x="1112" d="M72 281l161 92q29 -102 111 -157.5t201 -55.5q137 0 220 70.5t83 193.5t-83 194.5t-216 71.5h-406l54 744h784v-179h-612l-25 -381h209q203 0 342 -120q141 -121 141 -330q0 -211 -143 -330q-145 -121 -348 -121q-168 0 -296 81t-177 227z" />
<glyph unicode="6" horiz-adv-x="1101" d="M57 457q0 168 86 286l461 691h217l-338 -500q62 4 68 4q215 0 354 -135q139 -133 139 -346t-139 -348.5t-354 -135.5q-219 0 -356 136q-137 135 -138 348zM246 457q0 -135 85 -218t220 -83t220 83t85 218t-85 217t-220 82q-137 0 -221 -82t-84 -217z" />
<glyph unicode="7" horiz-adv-x="1003" d="M37 1253v181h895v-170l-522 -1264h-199l518 1253h-692z" />
<glyph unicode="8" horiz-adv-x="1136" d="M78 393q0 233 223 348q-176 111 -176 314q0 195 129 299q131 106 313 106q186 0 314 -106q131 -104 131 -299q0 -203 -176 -314q223 -115 223 -348q0 -197 -137 -309q-139 -111 -354.5 -111t-352.5 111q-137 113 -137 309zM266 406q0 -119 82 -184.5t219 -65.5 q139 0 221 65.5t82 184.5q0 117 -81.5 182t-221.5 65q-137 0 -219 -65.5t-82 -181.5zM313 1051q0 -106 72 -168t182.5 -62t182 61.5t71.5 168.5q0 109 -69.5 168t-184.5 59q-113 0 -183.5 -59.5t-70.5 -167.5z" />
<glyph unicode="9" horiz-adv-x="1101" d="M57 979q0 215 138 346q137 135 356 135q215 0 354 -135q139 -133 139 -346q0 -168 -88 -289h2l-462 -690h-215l340 502q-61 -4 -70 -4q-217 0 -356 133q-137 135 -138 348zM246 979q0 -135 85 -218t220 -83t220 83t85 218t-84 217t-221 82q-135 0 -220 -82t-85 -217z" />
<glyph unicode=":" horiz-adv-x="497" d="M115 110.5q0 55.5 39 94.5t94 39q57 0 95 -39t38 -94.5t-38 -94.5t-95 -39q-55 0 -94 39t-39 94.5zM115 915.5q0 55.5 39 94.5t94 39q57 0 95 -39t38 -94.5t-38 -94.5t-95 -39q-55 0 -94 39t-39 94.5z" />
<glyph unicode=";" horiz-adv-x="524" d="M115 -287l82 498h204l-133 -498h-153zM143 915.5q0 55.5 39 94.5t94 39q57 0 95.5 -39t38.5 -94.5t-38.5 -94.5t-95.5 -39q-55 0 -94 39t-39 94.5z" />
<glyph unicode="&#x3c;" horiz-adv-x="1071" d="M113 631v174l845 369v-193l-643 -264l643 -262v-193z" />
<glyph unicode="=" horiz-adv-x="1095" d="M113 424v170h870v-170h-870zM113 840v170h870v-170h-870z" />
<glyph unicode="&#x3e;" horiz-adv-x="1071" d="M113 262v193l643 262l-643 264v193l845 -369v-174z" />
<glyph unicode="?" horiz-adv-x="1103" d="M92 1167q49 139 171 216t282 77q180 0 311 -102q131 -100 131 -285q0 -160 -133 -293q-10 -10 -63.5 -60t-72 -71.5t-51 -64.5t-45 -82t-12.5 -82h-190q0 168 133 301q12 12 78.5 74.5t88 88t49.5 79t28 102.5q0 100 -70 155.5t-184 55.5q-225 0 -289 -199zM381 110.5 q0 55.5 39 94.5t94 39q57 0 95 -39t38 -94.5t-38 -94.5t-95 -39q-55 0 -94 39t-39 94.5z" />
<glyph unicode="@" horiz-adv-x="1615" d="M78 512q0 307 213 524q215 217 532 217q217 0 385 -106q164 -102 248 -259t84 -335q0 -213 -90 -328q-90 -111 -215 -110q-195 0 -244 172q-82 -104 -219 -105q-139 0 -231 94q-90 96 -90 235.5t90 236.5q92 94 231 94q123 0 207 -90v73h158v-452q0 -180 129 -180 q94 0 150.5 92t56.5 268q0 270 -189 455q-186 184 -461 184q-283 0 -481 -197q-199 -193 -199 -483q0 -295 203 -487q205 -193 514 -193q207 0 348 57v-65q-147 -53 -348 -53q-336 0 -559 211q-223 209 -223 530zM610 512q1 -80 54 -133q55 -49 132.5 -49t129.5 49 q53 53 53 133q0 82 -53 131q-51 51 -129 51t-133 -51q-53 -49 -54 -131z" />
<glyph unicode="A" horiz-adv-x="1316" d="M16 0l535 1434h215l534 -1434h-202l-117 322h-645l-117 -322h-203zM401 500h514l-258 706z" />
<glyph unicode="B" horiz-adv-x="1259" d="M154 0v1434h573q170 0 285 -113q117 -113 116 -279q1 -193 -155 -299q100 -49 157.5 -137t57.5 -200q0 -172 -121 -289t-295 -117h-618zM344 178h428q96 0 161.5 67.5t65.5 166.5q0 96 -67 163q-63 68 -160 68h-428v-465zM344 817h383q90 0 151.5 63.5t61.5 155.5 q0 90 -63 154q-62 65 -150 65h-383v-438z" />
<glyph unicode="C" horiz-adv-x="1513" d="M78 716.5q0 315.5 211 528.5q211 215 538 215q195 0 361 -94t258 -254l-166 -96q-61 119 -183 189.5t-270 70.5q-250 0 -405 -160q-156 -158 -156 -399q0 -240 156 -398q155 -159 402 -159h3q147 0 269.5 70.5t183.5 187.5l166 -94q-90 -160 -256 -256q-164 -95 -363 -95 q-328 0 -538 215q-211 213 -211 528.5z" />
<glyph unicode="D" horiz-adv-x="1470" d="M154 0v1434h559q291 0 485 -209q195 -207 195 -508q0 -299 -195 -510q-195 -207 -485 -207h-559zM344 180h369q219 0 358 154q139 156 139 383t-139 383q-138 153 -355 153h-3h-369v-1073z" />
<glyph unicode="E" horiz-adv-x="1085" d="M154 0v1434h845v-181h-655v-440h604v-178h-604v-455h666v-180h-856z" />
<glyph unicode="F" horiz-adv-x="1056" d="M154 0v1434h825v-181h-635v-465h608v-180h-608v-608h-190z" />
<glyph unicode="G" horiz-adv-x="1613" d="M78 716.5q0 309.5 213 526.5q215 217 538 217q197 0 365 -96q170 -96 256 -250l-164 -96q-61 117 -186 187.5t-273 70.5q-248 0 -403 -162q-158 -162 -158 -397.5t158 -397.5q159 -159 409 -159h3q211 0 345 103.5t165 275.5h-527v172h717v-86q0 -281 -193 -467 q-193 -184 -509 -185q-328 0 -543 215q-213 219 -213 528.5z" />
<glyph unicode="H" horiz-adv-x="1382" d="M154 0v1434h190v-609h696v609h189v-1434h-189v645h-696v-645h-190z" />
<glyph unicode="I" horiz-adv-x="497" d="M154 0v1434h190v-1434h-190z" />
<glyph unicode="J" horiz-adv-x="1142" d="M78 229l162 95q66 -164 286 -164q139 0 216 66.5t77 193.5v1014h189v-1014q0 -215 -138 -332q-137 -115 -344 -115q-158 0 -275.5 66.5t-172.5 189.5z" />
<glyph unicode="K" horiz-adv-x="1212" d="M154 0v1434h190v-648l598 648h234l-633 -697l653 -737h-233l-619 688v-688h-190z" />
<glyph unicode="L" horiz-adv-x="999" d="M154 0v1434h190v-1254h619v-180h-809z" />
<glyph unicode="M" horiz-adv-x="1648" d="M154 0v1434h215l456 -758l455 758h215v-1434h-188v1120l-469 -780h-25l-469 778v-1118h-190z" />
<glyph unicode="N" horiz-adv-x="1388" d="M154 0v1434h153l737 -1069v1069h191v-1434h-154l-737 1071v-1071h-190z" />
<glyph unicode="O" horiz-adv-x="1638" d="M78 717q0 311 215 526q215 217 526 217t527 -217q217 -215 217 -526q0 -309 -217 -527q-215 -217 -526.5 -217t-526.5 217q-215 220 -215 527zM266 717q0 -233 158 -398q159 -159 392 -159h3q238 0 393 159q160 165 160 398q0 238 -160 397q-156 162 -393 162 q-236 0 -395 -162q-158 -162 -158 -397z" />
<glyph unicode="P" horiz-adv-x="1208" d="M154 0v1434h520q197 0 330 -133.5t133 -328t-133.5 -327.5t-329.5 -133h-330v-512h-190zM344 690h330q121 0 196 80q78 84 78 203q0 123 -77.5 202.5t-196.5 79.5h-330v-565z" />
<glyph unicode="Q" horiz-adv-x="1648" d="M78 717q0 309 217 526t524 217t524 -217q220 -219 220 -526q0 -295 -203 -510l158 -158l-132 -119l-161 164q-188 -121 -406 -121q-307 0 -524 217.5t-217 526.5zM266 716.5q0 -233.5 160 -394.5q162 -162 393 -162q150 0 271 69l-287 289l131 117l295 -295 q143 156 143 377q0 236 -162 397q-160 162 -391 162t-393 -162q-160 -164 -160 -397.5z" />
<glyph unicode="R" horiz-adv-x="1251" d="M154 0v1434h573q184 0 315 -131q131 -129 132 -314q0 -139 -84 -254q-86 -117 -213 -162l337 -573h-210l-322 549h-338v-549h-190zM344 721h383q106 0 180 78q76 78 76 190.5t-76 188.5q-74 77 -180 77h-383v-534z" />
<glyph unicode="S" horiz-adv-x="1183" d="M74 326l164 94q82 -260 383 -260q145 0 224 59.5t79 161.5q0 100 -78 154q-70 47 -260 108l-137 45q-45 18 -119 53q-72 37 -105 74q-90 98 -90 240q0 188 131 295q130 110 317 110h3q168 0 295 -84t190 -229l-160 -92q-92 221 -325 221q-117 0 -188.5 -57.5 t-71.5 -155.5q0 -94 67 -143q70 -51 234 -103l84 -26q70 -27 75 -29q66 -25 144 -68q55 -31 110 -94q72 -72 72 -215q0 -188 -137 -301q-140 -111 -359 -111q-201 0 -343 93.5t-199 259.5z" />
<glyph unicode="T" horiz-adv-x="1105" d="M37 1253v181h1034v-181h-424v-1253h-188v1253h-422z" />
<glyph unicode="U" horiz-adv-x="1347" d="M135 481v953h191v-945q0 -154 91 -241.5t257 -87.5t257 88t91 241v945h188v-953q0 -233 -149.5 -370.5t-386.5 -137.5q-240 0 -389.5 137.5t-149.5 370.5z" />
<glyph unicode="V" horiz-adv-x="1271" d="M16 1434h205l416 -1196l414 1196h206l-514 -1434h-215z" />
<glyph unicode="W" horiz-adv-x="2048" d="M51 1434h201l328 -1180l348 1180h192l348 -1180l328 1180h201l-412 -1434h-221l-340 1145l-340 -1145h-221z" />
<glyph unicode="X" horiz-adv-x="1208" d="M37 0l461 737l-435 697h216l325 -523l326 523h215l-432 -695l461 -739h-218l-352 565l-352 -565h-215z" />
<glyph unicode="Y" horiz-adv-x="1236" d="M16 1434h213l389 -672l390 672h213l-508 -854v-580h-191v582z" />
<glyph unicode="Z" horiz-adv-x="1075" d="M80 0v166l692 1087h-674v181h901v-164l-694 -1090h711v-180h-936z" />
<glyph unicode="[" horiz-adv-x="593" d="M119 -205v1843h434v-172h-256v-1499h256v-172h-434z" />
<glyph unicode="\" horiz-adv-x="1081" d="M78 1638h106l820 -1843h-107z" />
<glyph unicode="]" horiz-adv-x="593" d="M41 -33h256v1499h-256v172h434v-1843h-434v172z" />
<glyph unicode="^" horiz-adv-x="1064" d="M82 799l371 635h159l371 -635h-201l-250 434l-249 -434h-201z" />
<glyph unicode="_" horiz-adv-x="1064" d="M78 -137h911v-172h-911v172z" />
<glyph unicode="`" horiz-adv-x="460" d="M41 1434h215l164 -271h-172z" />
<glyph unicode="a" horiz-adv-x="1296" d="M229.5 893q151.5 158 366.5 158q256 0 387 -203v176h178v-1024h-178v176q-131 -203 -387 -203q-217 0 -367 156q-151 157 -151 380q0 226 151.5 384zM256 512q0 -154 104 -262q104 -105 258 -105q156 0 261 105q104 109 104 262q0 156 -104 260q-104 106 -261 107 q-154 0 -258 -107q-104 -104 -104 -260z" />
<glyph unicode="b" horiz-adv-x="1296" d="M135 0v1434h178v-586q133 203 387 203q215 0 367 -158t152 -381q0 -225 -152 -383q-150 -156 -367 -156q-254 0 -387 203v-176h-178zM313 512q0 -154 105 -262q104 -105 260 -105q154 0 258 105q104 109 104 262q0 156 -104 260q-104 106 -258 107q-156 0 -260 -107 q-104 -104 -105 -260z" />
<glyph unicode="c" horiz-adv-x="1120" d="M231 895q154 156 385 156q152 0 273 -73t180 -196l-149 -86q-39 82 -120 131.5t-184 49.5q-154 0 -258 -105q-102 -106 -102 -260q0 -152 102 -258q104 -104 258 -104q102 0 184.5 48t125.5 130l151 -88q-68 -123 -191 -195t-270 -72q-231 0 -385 154q-154 155 -154 384 t154 384z" />
<glyph unicode="d" horiz-adv-x="1296" d="M229.5 893q151.5 158 366.5 158q256 0 387 -203v586h178v-1434h-178v176q-131 -203 -387 -203q-217 0 -367 156q-151 157 -151 380q0 226 151.5 384zM256 512q0 -154 104 -262q104 -105 258 -105q156 0 261 105q104 109 104 262q0 156 -104 260q-104 106 -261 107 q-154 0 -258 -107q-104 -104 -104 -260z" />
<glyph unicode="e" horiz-adv-x="1193" d="M227 897q150 154 387 154q225 0 367 -160q143 -156 143 -381q0 -39 -6 -80h-858q27 -135 125 -212t246 -77q203 0 295 150l151 -86q-152 -231 -450 -232q-242 0 -398 152q-151 155 -151 384q0 236 149 388zM260 586h684q-23 141 -113 219t-217 78q-141 0 -236 -80 t-118 -217z" />
<glyph unicode="f" horiz-adv-x="661" d="M49 852v172h164v31q0 209 117 314q103 93 283 93q24 0 49 -2v-172q-22 2 -43 2q-227 0 -228 -235v-31h271v-172h-271v-852h-178v852h-164z" />
<glyph unicode="g" horiz-adv-x="1296" d="M229 895q150 156 371 156q252 0 385 -203v176h176v-981q0 -227 -153 -352q-156 -127 -369 -127q-172 0 -297 64.5t-188 185.5l155 88q84 -172 334 -172q160 0 251 84t91 229v145q-134 -204 -383 -204h-2q-221 0 -371 155q-152 157 -152 378t152 378zM256 518 q0 -156 104.5 -260t260 -104t260 104t104.5 260q0 154 -104.5 258.5t-260 104.5t-260 -104.5t-104.5 -258.5z" />
<glyph unicode="h" horiz-adv-x="1155" d="M135 0v1434h178v-557q107 174 332 174q180 0 288.5 -114t108.5 -308v-629h-178v618q0 123 -67.5 193t-186.5 70q-137 0 -217 -85t-80 -253v-543h-178z" />
<glyph unicode="i" horiz-adv-x="450" d="M104 1329q0 49 35 85t86 36q49 0 84 -36t35 -85t-35 -84t-84 -35q-51 0 -86 35t-35 84zM135 0v1024h178v-1024h-178z" />
<glyph unicode="j" horiz-adv-x="493" d="M-37 -264q19 -2 37 -2q85 0 128 40q52 48 52 165v1085h178v-1085q0 -199 -100 -295q-86 -82 -244 -82q-25 0 -51 2v172zM150 1329q0 49 34.5 85t85.5 36q49 0 84 -36t35 -85t-35 -84t-84 -35q-51 0 -85.5 35t-34.5 84z" />
<glyph unicode="k" horiz-adv-x="1032" d="M135 0v1434h178v-863l443 453h229l-489 -496l505 -528h-221l-467 485v-485h-178z" />
<glyph unicode="l" horiz-adv-x="450" d="M135 0v1495h178v-1495h-178z" />
<glyph unicode="m" horiz-adv-x="1738" d="M135 0v1024h178v-137q104 164 305 164q207 0 302 -174q106 174 321 174q174 0 279.5 -113t105.5 -301v-637h-178v631q0 117 -60.5 183.5t-164.5 66.5q-119 0 -185.5 -79t-66.5 -233v-569h-178v631q0 117 -58.5 183.5t-159.5 66.5q-117 0 -189.5 -81t-72.5 -231v-569h-178 z" />
<glyph unicode="n" horiz-adv-x="1155" d="M135 0v1024h178v-147q107 174 332 174q180 0 288.5 -114t108.5 -308v-629h-178v618q0 123 -67.5 193t-186.5 70q-137 0 -217 -85t-80 -253v-543h-178z" />
<glyph unicode="o" horiz-adv-x="1232" d="M78 512q0 227 155.5 383t383 156t382.5 -156q158 -158 158 -383t-158 -383q-156 -156 -383 -156t-382.5 156t-155.5 383zM256 512q0 -156 104 -260.5t256 -104.5q154 0 258.5 104.5t104.5 260.5t-104.5 260.5t-258.5 104.5q-152 0 -256 -104.5t-104 -260.5z" />
<glyph unicode="p" horiz-adv-x="1296" d="M135 -410v1434h178v-176q133 203 387 203q215 0 367 -158t152 -381q0 -225 -152 -383q-150 -156 -367 -156q-254 0 -387 203v-586h-178zM313 512q0 -154 105 -262q104 -105 260 -105q154 0 258 105q104 109 104 262q0 156 -104 260q-104 106 -258 107q-156 0 -260 -107 q-104 -104 -105 -260z" />
<glyph unicode="q" horiz-adv-x="1296" d="M229.5 893q151.5 158 366.5 158q256 0 387 -203v176h178v-1434h-178v586q-131 -203 -387 -203q-217 0 -367 156q-151 157 -151 380q0 226 151.5 384zM256 512q0 -154 104 -262q104 -105 258 -105q156 0 261 105q104 109 104 262q0 156 -104 260q-104 106 -261 107 q-154 0 -258 -107q-104 -104 -104 -260z" />
<glyph unicode="r" horiz-adv-x="671" d="M135 0v1024h178v-172q88 190 320 190v-186h-19q-118 0 -206 -70q-94 -76 -95 -243v-543h-178z" />
<glyph unicode="s" horiz-adv-x="937" d="M72 213l153 88q25 -74 92.5 -117t161.5 -43q92 0 147.5 35t55.5 105q0 104 -203 151q-68 18 -102.5 28.5t-95 37t-91 56.5t-56 80t-25.5 111q0 133 102 220q104 86 260 86q125 0 222.5 -56.5t146.5 -156.5l-150 -84q-55 131 -219 131q-78 0 -130 -37t-52 -100 q0 -98 203 -154q76 -16 128 -33.5t114.5 -52.5t95 -92.5t32.5 -134.5q0 -139 -108.5 -223.5t-274.5 -84.5q-147 0 -254.5 64.5t-152.5 175.5z" />
<glyph unicode="t" horiz-adv-x="774" d="M39 852v172h203v233l178 54v-287h272v-172h-272v-555q0 -76 30 -107q28 -32 90 -33q12 0 26 -1q54 0 126 4v-160q-72 -10 -133 -10q-136 0 -210 49q-107 70 -107 258v555h-203z" />
<glyph unicode="u" horiz-adv-x="1155" d="M113 395v629h178v-618q0 -123 67.5 -193t186.5 -70q137 0 217 85t80 253v543h178v-1024h-178v147q-106 -174 -332 -174q-180 0 -288.5 114t-108.5 308z" />
<glyph unicode="v" horiz-adv-x="1060" d="M16 1024h193l321 -834l322 834h192l-409 -1024h-209z" />
<glyph unicode="w" horiz-adv-x="1576" d="M49 1024h187l225 -778l241 778h172l242 -780l225 780h187l-318 -1024h-182l-240 758l-239 -758h-182z" />
<glyph unicode="x" d="M31 0l393 526l-371 498h211l264 -356l265 356h208l-368 -496l391 -528h-209l-287 387l-288 -387h-209z" />
<glyph unicode="y" d="M16 1024h191l348 -803l295 803h190l-417 -1087q-68 -174 -186 -265q-106 -83 -240 -83q-14 0 -29 1v166q11 -1 22 -1q171 0 254 210l19 39z" />
<glyph unicode="z" horiz-adv-x="964" d="M98 0v119l523 735h-502v170h747v-119l-524 -735h545v-170h-789z" />
<glyph unicode="{" horiz-adv-x="729" d="M102 633v172q109 -2 153 35t44 141v330q0 379 389 348v-172q-115 12 -163 -27t-48 -149v-330q0 -203 -147 -262q147 -55 147 -262v-330q0 -111 49 -149.5t162 -26.5v-172q-389 -31 -389 348v330q0 106 -44 142t-153 34z" />
<glyph unicode="|" horiz-adv-x="485" d="M154 -410v1885h178v-1885h-178z" />
<glyph unicode="}" horiz-adv-x="729" d="M41 -49q113 -12 162 26.5t49 149.5v330q0 207 147 262q-147 59 -147 262v330q0 111 -48 149.5t-163 26.5v172q389 31 389 -348v-330q0 -104 44 -141t153 -35v-172q-109 2 -153 -34t-44 -142v-330q0 -379 -389 -348v172z" />
<glyph unicode="~" horiz-adv-x="1220" d="M113 637q53 184 187 229t327 -63q160 -86 225 -70q69 18 102 135l154 -73q-55 -184 -186 -228.5t-330 64.5q-158 84 -223 65q-68 -16 -103 -131z" />
<glyph unicode="&#xa2;" horiz-adv-x="1120" d="M78 717q0 229 153 383q154 156 385 155q59 0 99 -8l59 187h109l-70 -215q176 -66 256 -232l-149 -86q-53 106 -160 152l-223 -691q31 -8 79 -8q102 0 184.5 48t125.5 130l151 -88q-68 -123 -190.5 -194.5t-270.5 -71.5q-63 0 -133 17l-63 -195h-109l74 227 q-141 63 -224 194.5t-83 295.5zM256 717q0 -104 49 -188.5t135 -131.5l219 682q-10 2 -43 2q-154 0 -258 -104q-102 -106 -102 -260z" />
<glyph unicode="&#xa3;" horiz-adv-x="1196" d="M78 0v184h178v398h-143v168h143v274q0 209 127 324q127 113 303 112q293 0 408 -282l-158 -91q-68 188 -248 189q-109 0 -176.5 -66.5t-67.5 -189.5v-270h455v-168h-455v-398h723v-184h-1089z" />
<glyph unicode="&#xa5;" horiz-adv-x="1196" d="M16 1434h213l389 -672l390 672h213l-424 -713h252v-133h-330l-6 -8v-105h336v-135h-336v-340h-191v340h-375v135h375v107l-4 6h-371v133h293z" />
<glyph unicode="&#xa8;" horiz-adv-x="686" d="M41 1268q0 45 31 75q33 31 78 31t75.5 -30.5t30.5 -75.5t-31 -78q-31 -31 -76 -31t-77 31q-31 33 -31 78zM430 1268q0 45 31 75q33 31 78 31t75.5 -30.5t30.5 -75.5t-31 -78q-31 -31 -75.5 -31t-77.5 31q-31 33 -31 78z" />
<glyph unicode="&#xa9;" horiz-adv-x="1636" d="M78 717q0 307 217 524t524 217t524.5 -217t217.5 -524t-217.5 -524.5t-524.5 -217.5t-524 217.5t-217 524.5zM143 716.5q0 -282.5 197 -480.5q198 -199 479 -199q279 0 475 199q199 199 199 481t-199 481q-197 199 -475 199q-281 0 -479 -199q-197 -199 -197 -481.5z M424 717q0 164 117 278q117 117 284 117q109 0 199 -51t139 -141l-141 -82q-53 115 -199 114q-102 0 -167.5 -68.5t-65.5 -167t65.5 -167t167.5 -68.5q68 0 122 31t79 86l141 -84q-49 -88 -140 -140t-200 -52q-166 0 -284 114q-117 117 -117 281z" />
<glyph unicode="&#xab;" horiz-adv-x="1044" d="M139 633l226 375h192l-225 -375l225 -373h-192zM487 633l226 375h192l-225 -375l225 -373h-192z" />
<glyph unicode="&#xad;" d="M154 543v172h747v-172h-747z" />
<glyph unicode="&#xae;" horiz-adv-x="1636" d="M78 717q0 307 217 524t524 217t524.5 -217t217.5 -524t-217.5 -524.5t-524.5 -217.5t-524 217.5t-217 524.5zM143 716.5q0 -282.5 197 -480.5q198 -199 479 -199q279 0 475 199q199 199 199 481t-199 481q-197 199 -475 199q-281 0 -479 -199q-197 -199 -197 -481.5z M575 338v758h256q131 0 210 -70t79 -176q0 -158 -129 -223l158 -289h-172l-133 256h-13h-98v-256h-158zM733 737h98q61 0 96.5 29t35.5 76q-1 106 -132 106h-98v-211z" />
<glyph unicode="&#xb4;" horiz-adv-x="460" d="M41 1163l164 271h215l-207 -271h-172z" />
<glyph unicode="&#xb8;" horiz-adv-x="512" d="M41 -307q274 -23 274 63q0 63 -170 74v170h152v-92q80 -16 127 -60.5t47 -103.5q0 -211 -430 -186v135z" />
<glyph unicode="&#xbb;" horiz-adv-x="1044" d="M139 260l226 373l-226 375h193l225 -375l-225 -373h-193zM487 260l226 373l-226 375h193l225 -375l-225 -373h-193z" />
<glyph unicode="&#x2c6;" horiz-adv-x="712" d="M41 1157l217 277h197l217 -277h-191l-125 166l-125 -166h-190z" />
<glyph unicode="&#x2da;" horiz-adv-x="544" d="M41 1337.5q0 94.5 63.5 155.5t167.5 61q100 0 166 -61t66 -156q0 -91 -66 -157q-66 -61 -166 -62q-104 0 -168 62q-63 63 -63 157.5zM176 1337q0 -43 26.5 -68.5t69.5 -25.5q61 -4 87 45t0.5 98.5t-87.5 43.5q-43 0 -69.5 -27t-26.5 -66z" />
<glyph unicode="&#x2dc;" horiz-adv-x="696" d="M43 1174q0 131 48 197.5t119 63.5t148 -59q76 -66 112 -56.5t36 103.5h149q0 -131 -47 -196.5t-117.5 -62.5t-150.5 59q-74 66 -110.5 56.5t-36.5 -105.5h-150z" />
<glyph unicode="&#x401;" horiz-adv-x="1085" d="M154 0v1434h845v-181h-655v-440h604v-178h-604v-455h666v-180h-856zM274 1677q0 45 31 76q33 31 78 31t75.5 -31t31 -76t-30.5 -78q-31 -31 -76 -30.5t-78 30.5q-31 33 -31 78zM663.5 1677q0.5 45 30.5 76q33 31 78 31t76 -31t31 -76t-31 -78q-31 -31 -76 -30.5t-78 30.5 q-31 33 -30.5 78z" />
<glyph unicode="&#x402;" horiz-adv-x="1433" d="M37 1253v181h1018v-181h-443v-352q148 62 312 62q178 0 282.5 -102.5t104.5 -291.5v-213q0 -199 -100.5 -294t-295.5 -80v176q111 -10 158 36t47 162v205q0 229 -215 230q-147 0 -293 -58v-733h-190v1253h-385z" />
<glyph unicode="&#x403;" horiz-adv-x="993" d="M154 0v1434h804v-181h-614v-1253h-190zM438 1571l164 270h215l-207 -270h-172z" />
<glyph unicode="&#x404;" horiz-adv-x="1505" d="M78 717q0 315 209 528q209 215 532 215q199 0 363 -94q168 -96 256 -254l-166 -96q-61 119 -183 189.5t-270 70.5q-225 0 -370 -131q-150 -133 -177 -338h738v-178h-738q27 -205 177 -338q145 -131 370 -131q147 0 270 70.5t183 187.5l166 -94q-88 -160 -255 -255.5 t-364 -95.5q-324 0 -532.5 215t-208.5 529z" />
<glyph unicode="&#x405;" horiz-adv-x="1183" d="M74 326l164 94q82 -260 383 -260q145 0 224 59.5t79 161.5q0 100 -78 154q-70 47 -260 108l-137 45q-45 18 -119 53q-72 37 -105 74q-90 98 -90 240q0 188 131 295q131 111 320 110q168 0 295 -84t190 -229l-160 -92q-92 221 -325 221q-117 0 -188.5 -57.5t-71.5 -155.5 q0 -94 67 -143q70 -51 234 -103l84 -26q70 -27 75 -29q66 -25 144 -68q55 -31 110 -94q72 -72 72 -215q0 -188 -137 -301q-140 -111 -359 -111q-201 0 -343 93.5t-199 259.5z" />
<glyph unicode="&#x406;" horiz-adv-x="497" d="M154 0v1434h190v-1434h-190z" />
<glyph unicode="&#x407;" horiz-adv-x="497" d="M-55.5 1677q0.5 45 32.5 76q31 31 76 31t76 -31t31 -76t-31 -78q-31 -31 -76 -30.5t-76 30.5q-33 33 -32.5 78zM154 0v1434h190v-1434h-190zM334 1677q0 45 31 76q33 31 77.5 31t75.5 -31t31 -76t-31 -78q-31 -31 -76 -30.5t-77 30.5q-31 33 -31 78z" />
<glyph unicode="&#x408;" horiz-adv-x="1142" d="M78 229l162 95q66 -164 286 -164q139 0 216 66.5t77 193.5v1014h189v-1014q0 -215 -138 -332q-137 -115 -344 -115q-158 0 -275.5 66.5t-172.5 189.5z" />
<glyph unicode="&#x409;" horiz-adv-x="2015" d="M29 -2v172q145 -18 213.5 84t68.5 367v813h895v-588h289q186 0 317 -121q131 -119 131.5 -303t-131.5 -303q-127 -119 -317 -119h-479v1253h-514v-632q0 -190 -36 -321.5t-102.5 -198t-147.5 -90t-187 -13.5zM1206 178h289q113 0 185.5 67.5t72.5 176t-73.5 177.5 t-184.5 69h-289v-490z" />
<glyph unicode="&#x40a;" horiz-adv-x="1992" d="M154 0v1434h190v-588h649v588h191v-588h289q186 0 317 -121q131 -119 131 -303t-131 -303q-127 -119 -317 -119h-480v668h-649v-668h-190zM1184 178h289q113 0 185.5 67.5t72.5 176t-74 177.5t-184 69h-289v-490z" />
<glyph unicode="&#x40b;" horiz-adv-x="1443" d="M37 1253v181h1018v-181h-443v-352q148 62 312 62q178 0 282.5 -102.5t104.5 -291.5v-569h-191v561q0 229 -215 230q-147 0 -293 -58v-733h-190v1253h-385z" />
<glyph unicode="&#x40c;" horiz-adv-x="1212" d="M154 0v1434h190v-648l598 648h234l-633 -697l653 -737h-233l-619 688v-688h-190zM479 1571l164 270h215l-207 -270h-172z" />
<glyph unicode="&#x40e;" horiz-adv-x="1187" d="M57 1434h193l381 -820l344 820h192l-460 -1094q-154 -360 -494 -340v176q117 -12 191.5 34t123.5 163l15 33zM328 1585v156h553v-156h-553z" />
<glyph unicode="&#x40f;" horiz-adv-x="1347" d="M154 0v1434h190v-1254h660v1254h190v-1434h-426v-274h-188v274h-426z" />
<glyph unicode="&#x410;" horiz-adv-x="1316" d="M16 0l535 1434h215l534 -1434h-202l-117 322h-645l-117 -322h-203zM401 500h514l-258 706z" />
<glyph unicode="&#x411;" horiz-adv-x="1198" d="M154 0v1434h860v-181h-670v-383h348q184 0 316 -127q129 -125 129 -307q0 -184 -129 -311q-125 -125 -316 -125h-538zM344 178h348q106 0 180 74q76 74 76 184q0 109 -76 182q-74 74 -180 74h-348v-514z" />
<glyph unicode="&#x412;" horiz-adv-x="1259" d="M154 0v1434h573q170 0 285 -113q117 -113 116 -279q1 -193 -155 -299q100 -49 157.5 -137t57.5 -200q0 -172 -121 -289t-295 -117h-618zM344 178h428q96 0 161.5 67.5t65.5 166.5q0 96 -67 163q-63 68 -160 68h-428v-465zM344 817h383q90 0 151.5 63.5t61.5 155.5 q0 90 -63 154q-62 65 -150 65h-383v-438z" />
<glyph unicode="&#x413;" horiz-adv-x="993" d="M154 0v1434h804v-181h-614v-1253h-190z" />
<glyph unicode="&#x414;" horiz-adv-x="1423" d="M31 180h125q133 168 133 504v750h915v-1254h154v-454h-191v274h-946v-274h-190v454zM371 180h643v1075h-535v-575q1 -324 -108 -500z" />
<glyph unicode="&#x415;" horiz-adv-x="1085" d="M154 0v1434h845v-181h-655v-440h604v-178h-604v-455h666v-180h-856z" />
<glyph unicode="&#x416;" horiz-adv-x="1777" d="M37 0l573 733l-553 701h215l523 -658v658h188v-658l522 658h217l-555 -701l576 -733h-217l-543 688v-688h-188v688l-543 -688h-215z" />
<glyph unicode="&#x417;" horiz-adv-x="1155" d="M70 303l161 92q63 -242 349 -241q147 0 230 65.5t83 178t-78 179t-213 66.5h-168v174h121q129 0 208 64.5t79 169t-74 168t-201 63.5q-238 0 -317 -211l-160 92q129 297 477 297q207 0 334 -114q129 -113 129 -291q0 -208 -180 -314q233 -100 233 -350q0 -184 -139 -301 q-137 -117 -364 -117q-201 0 -329 88.5t-181 241.5z" />
<glyph unicode="&#x418;" horiz-adv-x="1388" d="M154 0v1434h190v-1072l737 1072h154v-1434h-191v1069l-737 -1069h-153z" />
<glyph unicode="&#x419;" horiz-adv-x="1388" d="M154 0v1434h190v-1072l737 1072h154v-1434h-191v1069l-737 -1069h-153zM418 1587v156h553v-156h-553z" />
<glyph unicode="&#x41a;" horiz-adv-x="1212" d="M154 0v1434h190v-648l598 648h234l-633 -697l653 -737h-233l-619 688v-688h-190z" />
<glyph unicode="&#x41b;" horiz-adv-x="1411" d="M29 0v172q145 -20 213.5 82t68.5 367v813h946v-1434h-190v1253h-565v-632q0 -190 -36 -321.5t-102.5 -197t-147.5 -89t-187 -13.5z" />
<glyph unicode="&#x41c;" horiz-adv-x="1648" d="M154 0v1434h215l456 -758l455 758h215v-1434h-188v1120l-469 -780h-25l-469 778v-1118h-190z" />
<glyph unicode="&#x41d;" horiz-adv-x="1382" d="M154 0v1434h190v-609h696v609h189v-1434h-189v645h-696v-645h-190z" />
<glyph unicode="&#x41e;" horiz-adv-x="1638" d="M78 717q0 311 215 526q215 217 526 217t527 -217q217 -215 217 -526q0 -309 -217 -527q-215 -217 -526.5 -217t-526.5 217q-215 220 -215 527zM266 717q0 -233 158 -398q160 -160 395 -159q238 0 393 159q160 165 160 398q0 238 -160 397q-156 162 -393 162 q-236 0 -395 -162q-158 -162 -158 -397z" />
<glyph unicode="&#x41f;" horiz-adv-x="1347" d="M154 0v1434h1040v-1434h-190v1253h-660v-1253h-190z" />
<glyph unicode="&#x420;" horiz-adv-x="1208" d="M154 0v1434h520q197 0 330 -133.5t133 -328t-133.5 -327.5t-329.5 -133h-330v-512h-190zM344 690h330q121 0 196 80q78 84 78 203q0 123 -77.5 202.5t-196.5 79.5h-330v-565z" />
<glyph unicode="&#x421;" horiz-adv-x="1513" d="M78 716.5q0 315.5 211 528.5q211 215 538 215q195 0 361 -94t258 -254l-166 -96q-61 119 -183 189.5t-270 70.5q-250 0 -405 -160q-156 -158 -156 -399q0 -240 156 -398q156 -160 405 -159q147 0 269.5 70.5t183.5 187.5l166 -94q-90 -160 -256 -256q-164 -95 -363 -95 q-328 0 -538 215q-211 213 -211 528.5z" />
<glyph unicode="&#x422;" horiz-adv-x="1105" d="M37 1253v181h1034v-181h-424v-1253h-188v1253h-422z" />
<glyph unicode="&#x423;" horiz-adv-x="1187" d="M57 1434h193l381 -820l344 820h192l-460 -1094q-154 -360 -494 -340v176q117 -12 191.5 34t123.5 163l15 33z" />
<glyph unicode="&#x424;" horiz-adv-x="1656" d="M57.5 716.5q-0.5 250.5 184.5 397.5q186 145 493 168v162h187v-162q311 -23 493 -168q186 -147 186.5 -397t-186.5 -398q-182 -144 -493 -167v-162h-187v162q-307 23 -493 167q-184 147 -184.5 397.5zM246 717q0 -176 127 -274.5t362 -114.5v780q-236 -16 -362.5 -115.5 t-126.5 -275.5zM922 326q236 16 362.5 115.5t126.5 275.5t-126.5 275.5t-362.5 115.5v-782z" />
<glyph unicode="&#x425;" horiz-adv-x="1208" d="M37 0l461 737l-435 697h216l325 -523l326 523h215l-432 -695l461 -739h-218l-352 565l-352 -565h-215z" />
<glyph unicode="&#x426;" horiz-adv-x="1413" d="M154 0v1434h190v-1254h660v1254h190v-1254h154v-454h-191v274h-1003z" />
<glyph unicode="&#x427;" horiz-adv-x="1286" d="M123 922v512h190v-500q0 -117 75 -186.5t204 -69.5q184 0 350 80v676h191v-1434h-191v578q-168 -80 -352 -80q-209 0 -338 116q-129 119 -129 308z" />
<glyph unicode="&#x428;" horiz-adv-x="1941" d="M154 0v1434h190v-1254h533v1254h188v-1254h532v1254h191v-1434h-1634z" />
<glyph unicode="&#x429;" horiz-adv-x="2007" d="M154 0v1434h190v-1254h533v1254h188v-1254h532v1254h191v-1254h154v-454h-191v274h-1597z" />
<glyph unicode="&#x42a;" horiz-adv-x="1429" d="M0 1253v181h563v-512h330q199 0 332 -133.5t133 -327.5q0 -197 -133 -330q-131 -131 -332 -131h-518v1253h-375zM563 178h330q119 0 196.5 80t77.5 203t-77.5 202.5t-196.5 79.5h-330v-565z" />
<glyph unicode="&#x42b;" horiz-adv-x="1626" d="M154 0v1434h190v-512h330q197 0 330 -133.5t133 -327.5q0 -197 -133 -330q-131 -131 -330 -131h-520zM344 178h330q119 0 196.5 80t77.5 203t-77.5 202.5t-196.5 79.5h-330v-565zM1282 0v1434h191v-1434h-191z" />
<glyph unicode="&#x42c;" horiz-adv-x="1208" d="M154 0v1434h190v-512h330q197 0 330 -133.5t133 -327.5q0 -197 -133 -330q-131 -131 -330 -131h-520zM344 178h330q119 0 196.5 80t77.5 203q0 119 -78 201q-76 82 -196 81h-330v-565z" />
<glyph unicode="&#x42d;" horiz-adv-x="1505" d="M68 324l165 94q59 -117 182.5 -187.5t270.5 -70.5q225 0 371 131q150 133 176 338h-737v178h737q-27 205 -176 338q-145 131 -371 131q-147 0 -269 -70.5t-184 -189.5l-165 96q88 158 256 254q163 94 362 94q324 0 533 -215q209 -213 208 -528q0 -313 -208.5 -528.5 t-532.5 -215.5q-197 0 -363.5 95.5t-254.5 255.5z" />
<glyph unicode="&#x42e;" horiz-adv-x="2140" d="M154 0v1434h190v-607h252q39 272 242 453q200 180 483 180q311 0 526 -217q217 -215 217 -526q0 -309 -217 -527q-215 -217 -526 -217q-293 0 -498 192.5t-233 481.5h-246v-647h-190zM768 717q0 -233 158 -398q160 -160 395 -159q236 0 393 159q160 165 160 398 q0 238 -160 397q-156 162 -393 162q-236 0 -395 -162q-158 -162 -158 -397z" />
<glyph unicode="&#x42f;" horiz-adv-x="1271" d="M59 0l381 561q-147 33 -243 156q-96 121 -97 272q0 184 129 314q132 131 316 131h573v-1434h-188v549h-285l-371 -549h-215zM289 989.5q0 -112.5 76 -190.5q78 -78 180 -78h385v534h-385q-102 0 -180 -77q-76 -76 -76 -188.5z" />
<glyph unicode="&#x430;" horiz-adv-x="1296" d="M78 512q0 223 151.5 381t366.5 158q256 0 387 -203v176h178v-1024h-178v176q-131 -203 -387 -203q-217 0 -367 156q-152 158 -151 383zM256 512q0 -154 104 -262q104 -105 258 -105q156 0 261 105q104 109 104 262q0 156 -104 260q-104 106 -261 107q-154 0 -258 -107 q-104 -104 -104 -260z" />
<glyph unicode="&#x431;" horiz-adv-x="1161" d="M78 508q0 264 76 403q78 141 315 256q12 6 29.5 14.5t43 19.5t44.5 20l110 49q164 82 174 196l144 -82q-14 -72 -47 -114q-2 -4 -12.5 -17.5t-14.5 -18.5t-13 -14.5t-18.5 -17.5t-23.5 -16q-76 -47 -109 -62q-12 -6 -25.5 -12t-21.5 -10l-12 -6l-68 -29l-65 -27 q-137 -59 -203 -120.5t-94 -155.5q63 78 160.5 119t199.5 41q195 0 326 -131q135 -133 135 -338q0 -209 -143 -346q-146 -136 -365 -136q-227 0 -375 150q-147 152 -147 385zM264 465q0 -139 96.5 -229.5t239.5 -90.5q145 0 236 88q94 89 94 222q0 137 -89 224t-235 87 q-129 0 -237 -84q-104 -84 -105 -217z" />
<glyph unicode="&#x432;" horiz-adv-x="1032" d="M135 0v1024h471q152 0 237 -76t85 -203q0 -147 -111 -219q158 -66 158 -237q0 -131 -86 -210t-242 -79h-512zM309 162h328q78 0 120 37t42 104q0 63 -42 99t-120 36h-328v-276zM309 596h289q156 0 156 137q0 131 -156 131h-289v-268z" />
<glyph unicode="&#x433;" horiz-adv-x="827" d="M135 0v1024h672v-172h-494v-852h-178z" />
<glyph unicode="&#x434;" horiz-adv-x="1214" d="M37 170h125q98 135 98 379v475h756v-854h141v-444h-176v274h-768v-274h-176v444zM365 170h475v688h-404v-309q1 -225 -71 -379z" />
<glyph unicode="&#x435;" horiz-adv-x="1193" d="M78 512q0 233 149 385q150 154 387 154q225 0 367 -160q143 -156 143 -381q0 -39 -6 -80h-858q27 -135 125 -212t246 -77q203 0 295 150l151 -86q-152 -231 -450 -232q-242 0 -398 152q-152 156 -151 387zM260 586h684q-23 141 -113 219t-217 78q-141 0 -236 -80 t-118 -217z" />
<glyph unicode="&#x436;" horiz-adv-x="1429" d="M37 0l428 528l-408 496h207l363 -453v453h176v-453l362 453h209l-409 -496l430 -528h-209l-383 485v-485h-176v485l-383 -485h-207z" />
<glyph unicode="&#x437;" horiz-adv-x="915" d="M53 219l150 88q57 -168 264 -168q100 0 157.5 43t57.5 115q0 61 -46 100t-124 39h-150v162h111q78 0 121 38t43 103q0 68 -51 108t-137 40q-172 0 -234 -146l-145 84q109 225 379 226q164 0 263 -85t99 -212q0 -156 -123 -230q170 -72 170 -243q0 -133 -104.5 -220.5 t-288.5 -87.5q-307 0 -412 246z" />
<glyph unicode="&#x438;" horiz-adv-x="1157" d="M135 0v1024h176v-719l568 719h143v-1024h-176v719l-567 -719h-144z" />
<glyph unicode="&#x439;" horiz-adv-x="1157" d="M135 0v1024h176v-719l568 719h143v-1024h-176v719l-567 -719h-144zM303 1178v155h553v-155h-553z" />
<glyph unicode="&#x43a;" horiz-adv-x="1032" d="M135 0v1024h178v-453l443 453h229l-489 -496l505 -528h-221l-467 485v-485h-178z" />
<glyph unicode="&#x43b;" horiz-adv-x="1124" d="M20 0v168q106 -14 157.5 48.5t51.5 221.5v586h760v-1024h-178v852h-403v-418q0 -246 -98.5 -349t-289.5 -85z" />
<glyph unicode="&#x43c;" horiz-adv-x="1296" d="M135 0v1024h191l321 -518l322 518h190v-1024h-174v743l-326 -524h-22l-326 524v-743h-176z" />
<glyph unicode="&#x43d;" horiz-adv-x="1157" d="M135 0v1024h178v-426h531v426h178v-1024h-178v428h-531v-428h-178z" />
<glyph unicode="&#x43e;" horiz-adv-x="1232" d="M78 512q0 227 155.5 383t383 156t382.5 -156q158 -158 158 -383t-158 -383q-156 -156 -383 -156t-382.5 156t-155.5 383zM256 512q0 -156 104 -260.5t256 -104.5q154 0 258.5 104.5t104.5 260.5t-104.5 260.5t-258.5 104.5q-152 0 -256 -104.5t-104 -260.5z" />
<glyph unicode="&#x43f;" horiz-adv-x="1157" d="M135 0v1024h887v-1024h-178v854h-531v-854h-178z" />
<glyph unicode="&#x440;" horiz-adv-x="1296" d="M135 -410v1434h178v-176q133 203 387 203q215 0 367 -158t152 -381q0 -225 -152 -383q-150 -156 -367 -156q-254 0 -387 203v-586h-178zM313 512q0 -154 105 -262q104 -105 260 -105q154 0 258 105q104 109 104 262q0 156 -104 260q-104 106 -258 107q-156 0 -260 -107 q-104 -104 -105 -260z" />
<glyph unicode="&#x441;" horiz-adv-x="1120" d="M77.5 512q0.5 229 153.5 383q154 156 385 156q152 0 273 -73t180 -196l-149 -86q-39 82 -120 131.5t-184 49.5q-154 0 -258 -105q-102 -106 -102 -260q0 -152 102 -258q104 -104 258 -104q102 0 184.5 48t125.5 130l151 -88q-68 -123 -191 -195t-270 -72q-231 0 -385 154 q-154 156 -153.5 385z" />
<glyph unicode="&#x442;" horiz-adv-x="917" d="M20 852v172h877v-172h-348v-852h-178v852h-351z" />
<glyph unicode="&#x443;" d="M16 1024h189l350 -803l295 803h190l-417 -1087q-66 -174 -185 -265.5t-270 -81.5v166q186 -14 276 205l17 37z" />
<glyph unicode="&#x444;" horiz-adv-x="1382" d="M78 512q0 213 143 358q143 147 383 174v390h176v-390q240 -27 383 -174q143 -145 143.5 -358t-143.5 -358q-143 -147 -383 -174v-390h-176v390q-240 27 -383 174q-143 145 -143 358zM254 512q0 -143 93 -240.5t257 -119.5v720q-162 -20 -256 -117.5t-94 -242.5zM780 152 q162 23 255 120t93 240t-93 240t-255 120v-720z" />
<glyph unicode="&#x445;" d="M31 0l393 526l-371 498h211l264 -356l265 356h208l-368 -496l391 -528h-209l-287 387l-288 -387h-209z" />
<glyph unicode="&#x446;" horiz-adv-x="1218" d="M135 0v1024h178v-854h504v854h178v-854h168v-444h-176v274h-852z" />
<glyph unicode="&#x447;" horiz-adv-x="1093" d="M92 684v340h178v-330q0 -113 60.5 -163t185.5 -50q141 1 264 54v489h178v-1024h-178v369q-125 -53 -276 -54q-199 0 -305.5 94.5t-106.5 274.5z" />
<glyph unicode="&#x448;" horiz-adv-x="1675" d="M135 0v1024h178v-854h435v854h178v-854h434v854h178v-1024h-1403z" />
<glyph unicode="&#x449;" horiz-adv-x="1726" d="M135 0v1024h178v-854h430v854h179v-854h428v854h178v-854h141v-444h-176v274h-1358z" />
<glyph unicode="&#x44a;" horiz-adv-x="1128" d="M0 852v172h463v-369h254q152 0 254 -92t102 -235.5t-102.5 -235.5t-253.5 -92h-432v852h-285zM463 166h254q78 0 129 45t51 116.5t-52 118t-128 46.5h-254v-326z" />
<glyph unicode="&#x44b;" horiz-adv-x="1372" d="M135 0v1024h178v-369h254q154 0 254 -92q102 -90 102.5 -235.5t-102.5 -237.5q-102 -90 -254 -90h-432zM313 166h254q78 0 129.5 45t51.5 116.5t-52.5 118t-128.5 46.5h-254v-326zM1057 0v1024h178v-1024h-178z" />
<glyph unicode="&#x44c;" horiz-adv-x="980" d="M135 0v1024h178v-369h254q154 0 254 -92q102 -90 102.5 -235.5t-102.5 -237.5q-102 -90 -254 -90h-432zM313 166h254q78 0 129.5 45t51.5 116.5t-52.5 118t-128.5 46.5h-254v-326z" />
<glyph unicode="&#x44d;" horiz-adv-x="1101" d="M37 244l151 88q33 -86 115 -136.5t199 -50.5q133 0 223 77t115 206h-457v168h457q-25 129 -114 206t-220 77q-109 0 -189.5 -49.5t-119.5 -135.5l-154 88q61 125 184 197t277 72q231 0 376.5 -151.5t145.5 -387.5q0 -231 -145 -387q-145 -152 -379 -152q-164 0 -287 73 t-178 198z" />
<glyph unicode="&#x44e;" horiz-adv-x="1646" d="M135 0v1024h178v-426h191q29 197 176 324q151 129 350 129q225 0 381 -156q158 -158 158 -383t-158 -383q-156 -156 -381 -156q-203 0 -350 129q-150 129 -176 326h-191v-428h-178zM668 512q0 -156 104 -260.5t258 -104.5q152 0 256.5 104.5t104.5 260.5t-104.5 260.5 t-256.5 104.5q-154 0 -258 -104.5t-104 -260.5z" />
<glyph unicode="&#x44f;" horiz-adv-x="1036" d="M72 0l299 379q-117 29 -187.5 115t-70.5 200q0 141 100 235.5t252 94.5h436v-1024h-176v369h-150l-286 -369h-217zM289 692q0 -72 52 -118t130 -46h254v330h-254q-78 0 -130 -46t-52 -120z" />
<glyph unicode="&#x451;" horiz-adv-x="1193" d="M78 512q0 233 149 385q150 154 387 154q225 0 367 -160q143 -156 143 -381q0 -39 -6 -80h-858q27 -135 125 -212t246 -77q203 0 295 150l151 -86q-152 -231 -450 -232q-242 0 -398 152q-152 156 -151 387zM260 586h684q-23 141 -113 219t-217 78q-141 0 -236 -80 t-118 -217zM299 1270q0 45 31 76q33 31 78 30.5t75.5 -31t30.5 -75.5t-31 -78q-31 -31 -76 -31t-77 31q-31 33 -31 78zM688 1270q0 45 31 76q33 31 78 30.5t75.5 -31t30.5 -75.5t-31 -78q-31 -31 -75.5 -31t-77.5 31q-31 33 -31 78z" />
<glyph unicode="&#x452;" horiz-adv-x="1173" d="M16 1165v131h138v138h178v-138h293v-131h-293v-288q107 174 332 174q180 0 288.5 -114t108.5 -308v-690q0 -199 -100.5 -294.5t-294.5 -80.5v172q113 -10 165 38t52 165v679q0 123 -67.5 193t-186.5 70q-137 0 -217 -85t-80 -253v-543h-178v1165h-138z" />
<glyph unicode="&#x453;" horiz-adv-x="827" d="M135 0v1024h672v-172h-494v-852h-178zM305 1163l164 271h215l-207 -271h-172z" />
<glyph unicode="&#x454;" horiz-adv-x="1101" d="M76 512q0 238 143 387q145 152 379 152q154 0 276.5 -72t184.5 -197l-154 -88q-39 86 -119.5 135.5t-189.5 49.5q-131 0 -220 -77t-114 -206h457v-168h-457q25 -129 115 -206t223 -77q117 0 198.5 50.5t114.5 136.5l152 -88q-55 -125 -178 -198t-287 -73q-233 0 -379 152 q-145 156 -145 387z" />
<glyph unicode="&#x455;" horiz-adv-x="937" d="M72 213l153 88q25 -74 92.5 -117t161.5 -43q92 0 147.5 35t55.5 105q0 104 -203 151q-68 18 -102.5 28.5t-95 37t-91 56.5t-56 80t-25.5 111q0 133 102 220q104 86 260 86q125 0 222.5 -56.5t146.5 -156.5l-150 -84q-55 131 -219 131q-78 0 -130 -37t-52 -100 q0 -98 203 -154q76 -16 128 -33.5t114.5 -52.5t95 -92.5t32.5 -134.5q0 -139 -108.5 -223.5t-274.5 -84.5q-147 0 -254.5 64.5t-152.5 175.5z" />
<glyph unicode="&#x456;" horiz-adv-x="450" d="M104 1329q0 49 35 85t86 36q49 0 84 -36t35 -85t-35 -84t-84 -35q-51 0 -86 35t-35 84zM135 0v1024h178v-1024h-178z" />
<glyph unicode="&#x457;" horiz-adv-x="450" d="M-78 1268q0 45 33 75q31 31 76 31t75.5 -30.5t30.5 -75.5t-31 -78q-31 -31 -75.5 -31t-75.5 31q-33 33 -33 78zM135 0v1024h178v-1024h-178zM311 1268q0 45 31 75q33 31 78 31t75.5 -30.5t31 -75.5t-30.5 -78q-31 -31 -76 -31t-78 31q-31 33 -31 78z" />
<glyph unicode="&#x458;" horiz-adv-x="493" d="M-37 -264q113 -10 165 38t52 165v1085h178v-1085q0 -199 -100 -294.5t-295 -80.5v172zM150 1329q0 49 34.5 85t85.5 36q49 0 84 -36t35 -85t-35 -84t-84 -35q-51 0 -85.5 35t-34.5 84z" />
<glyph unicode="&#x459;" horiz-adv-x="1599" d="M20 -4v168q106 -12 157.5 51.5t51.5 222.5v586h740v-403h241q147 0 239.5 -85t92.5 -226.5t-92 -225.5t-240 -84h-419v852h-383v-418q0 -244 -98.5 -347t-289.5 -91zM969 166h243q72 0 116 37t44 106.5t-45 107.5t-115 38h-243v-289z" />
<glyph unicode="&#x45a;" horiz-adv-x="1615" d="M131 0v1024h178v-403h494v403h178v-403h244q143 0 239.5 -84t96.5 -228q0 -141 -96.5 -225t-239.5 -84h-422v451h-494v-451h-178zM981 166h244q72 0 115.5 37t43.5 106.5t-44 107.5t-115 38h-244v-289z" />
<glyph unicode="&#x45b;" horiz-adv-x="1173" d="M16 1165v131h138v138h178v-138h293v-131h-293v-288q107 174 332 174q180 0 288.5 -114t108.5 -308v-629h-178v618q0 123 -67.5 193t-186.5 70q-137 0 -217 -85t-80 -253v-543h-178v1165h-138z" />
<glyph unicode="&#x45c;" horiz-adv-x="1032" d="M135 0v1024h178v-453l443 453h229l-489 -496l505 -528h-221l-467 485v-485h-178zM397 1163l164 271h215l-207 -271h-172z" />
<glyph unicode="&#x45e;" d="M16 1024h189l350 -803l295 803h190l-417 -1087q-66 -174 -185 -265.5t-270 -81.5v166q186 -14 276 205l17 37zM248 1178v155h553v-155h-553z" />
<glyph unicode="&#x45f;" horiz-adv-x="1157" d="M135 0v1024h178v-854h531v854h178v-1024h-354v-274h-176v274h-357z" />
<glyph unicode="&#x490;" horiz-adv-x="993" d="M154 0v1434h614v245h190v-426h-614v-1253h-190z" />
<glyph unicode="&#x491;" horiz-adv-x="827" d="M135 0v1024h496v211h176v-383h-494v-852h-178z" />
<glyph unicode="&#x2000;" horiz-adv-x="920" />
<glyph unicode="&#x2001;" horiz-adv-x="1841" />
<glyph unicode="&#x2002;" horiz-adv-x="920" />
<glyph unicode="&#x2003;" horiz-adv-x="1841" />
<glyph unicode="&#x2004;" horiz-adv-x="613" />
<glyph unicode="&#x2005;" horiz-adv-x="460" />
<glyph unicode="&#x2006;" horiz-adv-x="306" />
<glyph unicode="&#x2007;" horiz-adv-x="306" />
<glyph unicode="&#x2008;" horiz-adv-x="230" />
<glyph unicode="&#x2009;" horiz-adv-x="368" />
<glyph unicode="&#x200a;" horiz-adv-x="102" />
<glyph unicode="&#x2010;" d="M154 543v172h747v-172h-747z" />
<glyph unicode="&#x2011;" d="M154 543v172h747v-172h-747z" />
<glyph unicode="&#x2012;" d="M154 543v172h747v-172h-747z" />
<glyph unicode="&#x2013;" horiz-adv-x="1341" d="M154 543v172h1034v-172h-1034z" />
<glyph unicode="&#x2014;" horiz-adv-x="1546" d="M154 543v172h1239v-172h-1239z" />
<glyph unicode="&#x2018;" horiz-adv-x="518" d="M117 936l133 498h153l-81 -498h-205z" />
<glyph unicode="&#x2019;" horiz-adv-x="518" d="M115 938l82 498h204l-133 -498h-153z" />
<glyph unicode="&#x201a;" horiz-adv-x="518" d="M115 -287l82 498h204l-133 -498h-153z" />
<glyph unicode="&#x201c;" horiz-adv-x="835" d="M117 936l133 498h153l-81 -498h-205zM434 936l133 498h154l-82 -498h-205z" />
<glyph unicode="&#x201d;" horiz-adv-x="835" d="M115 938l82 498h204l-133 -498h-153zM432 938l82 498h205l-133 -498h-154z" />
<glyph unicode="&#x201e;" horiz-adv-x="835" d="M115 -287l82 498h204l-133 -498h-153zM432 -287l82 498h205l-133 -498h-154z" />
<glyph unicode="&#x2026;" horiz-adv-x="1327" d="M115 110.5q0 55.5 39 94.5t94 39q57 0 95 -39t38 -94.5t-38 -94.5t-95 -39q-55 0 -94 39t-39 94.5zM530 110.5q0 55.5 39 94.5t95 39q57 0 95 -39t38 -94.5t-38 -94.5t-95 -39q-55 0 -94.5 39t-39.5 94.5zM944 110.5q0 55.5 39 94.5t94 39q57 0 95 -39t38 -94.5 t-38 -94.5t-95 -39q-55 0 -94 39t-39 94.5z" />
<glyph unicode="&#x202f;" horiz-adv-x="368" />
<glyph unicode="&#x2039;" horiz-adv-x="696" d="M139 633l226 375h192l-225 -375l225 -373h-192z" />
<glyph unicode="&#x203a;" horiz-adv-x="696" d="M139 260l226 373l-226 375h193l225 -375l-225 -373h-193z" />
<glyph unicode="&#x205f;" horiz-adv-x="460" />
<glyph unicode="&#x20ac;" horiz-adv-x="1228" d="M39 539v133h137v45q0 49 2 63h-139v131h151q41 256 184.5 402.5t362.5 146.5q315 0 441 -284l-158 -91q-86 190 -283 191q-139 0 -230 -94.5t-124 -270.5h485v-131h-499q-2 -14 -2 -63v-45h501v-133h-487q29 -182 121 -280.5t235 -98.5q201 -1 285 194l158 -90 q-59 -141 -174 -216t-269 -75q-223 0 -367.5 150.5t-181.5 415.5h-149z" />
<glyph unicode="&#x2122;" horiz-adv-x="958" d="M78 1346v88h328v-88h-115v-322h-96v322h-117zM453 1024v410h94l121 -189l118 189h95v-410h-95v254l-114 -180h-10l-115 180v-254h-94z" />
<glyph unicode="&#x25fc;" horiz-adv-x="1024" d="M0 0v1024h1024v-1024h-1024z" />
</font>
</defs>
</svg>
