<?xml version="1.0" standalone="no"?>
<!DOCTYPE svg PUBLIC "-//W3C//DTD SVG 1.1//EN" "http://www.w3.org/Graphics/SVG/1.1/DTD/svg11.dtd" >
<svg xmlns="http://www.w3.org/2000/svg" xmlns:xlink="http://www.w3.org/1999/xlink" version="1.1">
<metadata></metadata>
<defs>
<font id="gilroylight" horiz-adv-x="1145" >
<font-face units-per-em="2048" ascent="1589" descent="-459" />
<missing-glyph horiz-adv-x="573" />
<glyph horiz-adv-x="0" />
<glyph unicode="&#xd;" horiz-adv-x="715" />
<glyph unicode=" "  horiz-adv-x="573" />
<glyph unicode="&#x09;" horiz-adv-x="573" />
<glyph unicode="&#xa0;" horiz-adv-x="573" />
<glyph unicode="!" horiz-adv-x="472" d="M140 76q0 41 27.5 68.5t68.5 27.5t69 -27.5t28 -68.5t-28 -69t-69 -28t-68.5 28t-27.5 69zM172 1075v431h129v-431l-22 -688h-86z" />
<glyph unicode="&#x22;" horiz-adv-x="630" d="M114 1506h116l-15 -402h-86zM402 1506h115l-16 -402h-86z" />
<glyph unicode="#" horiz-adv-x="1295" d="M80 509l14 100h259l47 288h-258l16 98h259l67 403h107l-66 -403h331l67 403h107l-66 -403h255l-17 -98h-256l-47 -288h258l-18 -100h-257l-67 -402h-107l66 402h-331l-67 -402h-107l66 402h-255zM460 609h332l47 288h-332z" />
<glyph unicode="$" horiz-adv-x="1182" d="M92 281l99 57q78 -234 381 -252v638q-174 58 -284 138q-125 90 -124 275q0 166 115 271q119 109 293 119v193h101v-193q131 -15 231 -85t150 -186l-97 -54q-76 187 -284 213v-611q158 -55 241 -107q88 -53 130 -124t46 -188q0 -166 -116 -280q-114 -111 -301 -126v-194 h-101v191q-178 8 -304 88t-176 217zM277 1137q0 -111 69 -175.5t226 -120.5v577q-131 -11 -213 -88.5t-82 -192.5zM673 90q140 15 220.5 96t80.5 199q0 115 -71.5 182t-229.5 123v-600z" />
<glyph unicode="%" horiz-adv-x="1539" d="M135 1208.5q0 135.5 92.5 228t236.5 92.5q142 0 235 -93q95 -94 95 -227q0 -136 -92.5 -228.5t-237 -92.5t-237 92.5t-92.5 228zM217 193l1022 1149l72 -41l-1023 -1149zM243 1209q1 -94 63 -160q62 -62 159 -62t159 62q64 64 64 159t-64 157q-60 64 -159.5 64.5 t-158.5 -64.5q-62 -62 -63 -156zM744 297.5q0 135.5 92.5 227.5t236.5 92q142 0 234 -92q95 -95 95 -228t-95 -228q-92 -92 -234 -93q-144 0 -236.5 93t-92.5 228.5zM852 297q0 -93 62 -159q61 -62 158.5 -62t160.5 62q64 64 64 159t-64 157q-62 64 -159.5 64.5 t-159.5 -64.5q-62 -62 -62 -157z" />
<glyph unicode="&#x26;" horiz-adv-x="1408" d="M135 400q0 144 79 260t221 179q-121 140 -121 294q0 181 125 287q125 109 301 109q146 0 260 -75t159 -209l-94 -55q-35 105 -122 167.5t-201 62.5q-135 0 -223.5 -80t-88.5 -203q0 -80 37.5 -147t125.5 -155l472 -493q66 125 90 298l101 -57q-28 -181 -112 -325 l206 -217l-100 -58l-175 183q-164 -189 -449 -190q-224 0 -357 114q-134 117 -134 310zM252 402q0 -148 100 -232t270 -84q234 0 376 162l-485 507q-129 -47 -195 -141.5t-66 -211.5z" />
<glyph unicode="'" horiz-adv-x="337" d="M114 1506h116l-15 -402h-86z" />
<glyph unicode="(" horiz-adv-x="560" d="M129 752.5q0 494.5 236 967.5h111q-237 -474 -237 -968t237 -967h-111q-236 473 -236 967.5z" />
<glyph unicode=")" horiz-adv-x="560" d="M86 -215q236 473 236 967.5t-236 967.5h109q237 -474 237 -968t-237 -967h-109z" />
<glyph unicode="*" horiz-adv-x="831" d="M135 1221v93l205 -5l-114 170l86 50l103 -179l106 179l83 -50l-114 -170l205 5v-93l-205 4l114 -169l-83 -50l-106 180l-103 -180l-86 50l114 169z" />
<glyph unicode="+" d="M135 701v103h386v386h105v-386h385v-103h-385v-385h-105v385h-386z" />
<glyph unicode="," horiz-adv-x="478" d="M133 -301l82 447h134l-117 -447h-99z" />
<glyph unicode="-" d="M187 613v103h774v-103h-774z" />
<glyph unicode="." horiz-adv-x="457" d="M133 76q0 41 28 68.5t69 27.5t69 -27.5t28 -68.5t-28 -69t-69 -28t-69 28t-28 69z" />
<glyph unicode="/" horiz-adv-x="1132" d="M92 -215l860 1935h86l-860 -1935h-86z" />
<glyph unicode="0" horiz-adv-x="1354" d="M114 753q0 357 148 565q149 211 415.5 211t415 -210.5t148.5 -565.5q-1 -357 -149 -566q-148 -211 -414.5 -211t-415.5 211q-148 209 -148 566zM230 753q0 -316 119 -493q120 -174 328.5 -174t328.5 174q119 177 119 493q0 318 -119 490q-119 177 -329.5 177t-327.5 -177 q-119 -172 -119 -490z" />
<glyph unicode="1" horiz-adv-x="712" d="M37 1370l393 136h97v-1506h-114v1381l-349 -111z" />
<glyph unicode="2" horiz-adv-x="1132" d="M92 0v103l553 568q242 254 243 425q0 146 -93.5 235t-238.5 89q-254 0 -359 -228l-96 58q66 135 185.5 207t269.5 72q183 0 314 -116q134 -116 134 -317q0 -123 -70 -243t-212 -264l-466 -480h782v-109h-946z" />
<glyph unicode="3" horiz-adv-x="1158" d="M82 262l94 56q41 -111 142 -171.5t244 -60.5q170 0 276 95.5t106 253.5q0 159 -109 253q-107 94 -279 94v3l-2 -3h-29l-49 76l380 540h-735v108h866v-108l-363 -518q189 -19 311.5 -135.5t122.5 -309.5q0 -211 -144 -336q-144 -123 -352 -123q-170 0 -298.5 76.5 t-181.5 209.5z" />
<glyph unicode="4" horiz-adv-x="1231" d="M60 316v107l572 1083h125l-570 -1083h683v474h115v-474h193v-107h-193v-316h-115v316h-810z" />
<glyph unicode="5" horiz-adv-x="1162" d="M97 279l96 56q37 -121 137 -185t242 -64q170 0 277 95q110 94 110 253t-110 254q-107 94 -277 94h-402l52 724h795v-108h-695l-34 -506h284q211 0 355 -124q146 -123 146 -333q0 -209 -146 -336q-144 -123 -355 -123q-168 0 -297 81t-178 222z" />
<glyph unicode="6" horiz-adv-x="1153" d="M71 471q0 171 93 301l505 734h129l-385 -562q84 24 163 24q220 0 364 -141q142 -139 142 -356t-142 -357q-140 -137 -363.5 -137.5t-363.5 137.5q-142 140 -142 357zM187 471q0 -170 107.5 -277.5t282 -107.5t283 107.5t108.5 277.5q0 173 -107.5 280t-284 107 t-283.5 -107q-105 -105 -106 -280z" />
<glyph unicode="7" horiz-adv-x="1053" d="M49 1398v108h912v-108l-585 -1398h-118l585 1398h-794z" />
<glyph unicode="8" horiz-adv-x="1182" d="M92 402q0 127 72 227t197 149q-103 52 -161 141.5t-58 202.5q0 194 129 300q133 107 320 107t318 -107q132 -105 132 -300q0 -114 -58.5 -203t-161.5 -141q125 -49 197 -149t72 -227q0 -199 -140 -314q-137 -111 -358.5 -111.5t-359.5 111.5q-140 115 -140 314zM209 402 q0 -148 103 -232t279.5 -84t279.5 84t103 232t-104 230q-102 84 -278.5 84t-279.5 -84q-103 -82 -103 -230zM256 1122q0 -133 93.5 -214t242 -81t242 81t93.5 214q0 138 -92.5 218t-243 80t-243 -80t-92.5 -218z" />
<glyph unicode="9" horiz-adv-x="1153" d="M71 1034q0 218 142 355q144 140 363.5 140t363.5 -140q142 -137 142 -355q0 -170 -93 -301l-503 -733h-129l385 562q-84 -24 -166 -24q-223 0 -363 137q-142 138 -142 359zM187 1034q0 -174 106 -279q107 -107 283.5 -107.5t284 107t107.5 279.5q0 170 -108.5 278 t-283 108t-282 -108t-107.5 -278z" />
<glyph unicode=":" horiz-adv-x="457" d="M133 76q0 41 28 68.5t69 27.5t69 -27.5t28 -68.5t-28 -69t-69 -28t-69 28t-28 69zM133 979q0 41 28 68.5t69 27.5t69 -27.5t28 -68.5t-28 -69t-69 -28t-69 28t-28 69z" />
<glyph unicode=";" horiz-adv-x="494" d="M133 -301l82 447h134l-117 -447h-99zM170 979q0 41 28 68.5t69 27.5t68.5 -27.5t27.5 -68.5t-27.5 -69t-68.5 -28t-69 28t-28 69z" />
<glyph unicode="&#x3c;" horiz-adv-x="1132" d="M138 697v111l860 384v-121l-738 -318l738 -318v-121z" />
<glyph unicode="=" horiz-adv-x="1153" d="M135 486v103h882v-103h-882zM135 916v104h882v-104h-882z" />
<glyph unicode="&#x3e;" horiz-adv-x="1132" d="M135 314v121l738 318l-738 318v121l860 -384v-111z" />
<glyph unicode="?" horiz-adv-x="1139" d="M114 1245q46 134 167 209t281 75q191 0 316 -103q127 -101 126 -285q0 -161 -148 -314q-11 -12 -49.5 -51t-55 -55.5t-48.5 -54.5t-47.5 -65t-34.5 -63.5t-26.5 -74t-7.5 -76.5h-113q0 189 146 348q18 21 70 73t77 81t58 74.5t48 89t15 88.5q0 134 -87 206.5t-239 72.5 q-132 0 -224.5 -60.5t-126.5 -167.5zM435 76q0 41 27.5 68.5t68.5 27.5t69 -27.5t28 -68.5t-28 -69t-69 -28t-68.5 28t-27.5 69z" />
<glyph unicode="@" horiz-adv-x="1734" d="M101 538q0 322 223 550q227 228 560 228q228 0 404 -112q173 -107 261 -271.5t88 -351.5q0 -218 -86 -334t-215 -116q-91 0 -151 51.5t-75 146.5q-95 -136 -258 -136q-151 0 -250 99.5t-99 245.5t99 245t250 99q163 0 254 -129v113h103v-479q0 -195 141 -196 q105 0 166.5 100.5t61.5 289.5q0 287 -199 486q-198 195 -495 195q-305 0 -516 -208q-212 -211 -210 -516q0 -314 216 -521q217 -205 549 -204q219 0 367 60l7 -56q-162 -57 -374 -57q-353 0 -588 221q-234 220 -234 557zM606 537.5q0 -107.5 71 -176.5q76 -69 179 -68.5 t176 68.5q74 66 74 176t-74 177q-73 69 -176 68.5t-179 -68.5q-71 -69 -71 -176.5z" />
<glyph unicode="A" horiz-adv-x="1352" d="M33 0l584 1506h120l583 -1506h-120l-146 383h-755l-147 -383h-119zM342 490h671l-336 875z" />
<glyph unicode="B" horiz-adv-x="1338" d="M187 0v1506h601q163 0 278.5 -116.5t115.5 -279.5q0 -107 -51.5 -195t-141.5 -135q119 -45 188.5 -143.5t69.5 -225.5q0 -171 -120.5 -291t-289.5 -120h-650zM301 107h536q121 0 208 88q88 93 88 216q0 125 -88 213q-86 90 -208 90h-536v-607zM301 821h487q116 0 197 84 q84 88 84 205q0 118 -84 201q-79 87 -197 87h-487v-577z" />
<glyph unicode="C" horiz-adv-x="1614" d="M101 752.5q0 329.5 221 550.5q224 226 562 226q209 0 378 -99q174 -99 267 -262l-101 -58q-74 137 -222 224q-143 86 -322 86q-290 0 -482 -195q-187 -191 -187 -472.5t187 -475.5q191 -191 482 -191q174 0 323.5 86t224.5 230l101 -58q-92 -168 -267 -268t-382 -100 q-338 0 -562 224q-221 223 -221 552.5z" />
<glyph unicode="D" horiz-adv-x="1562" d="M187 0v1506h566q307 0 507 -220q203 -215 203 -533t-203 -536q-200 -217 -507 -217h-566zM301 107h452q262 0 429 186q168 187 168 460q0 275 -168 458q-168 187 -429 187h-452v-1291z" />
<glyph unicode="E" d="M187 0v1506h856v-108h-742v-585h688v-107h-688v-599h753v-107h-867z" />
<glyph unicode="F" horiz-adv-x="1113" d="M187 0v1506h835v-108h-721v-602h694v-108h-694v-688h-114z" />
<glyph unicode="G" horiz-adv-x="1717" d="M101 753q0 329 221 550q224 226 562 226q209 0 378 -99q176 -101 269 -264l-101 -60q-73 139 -224 228q-143 86 -322 86q-290 0 -482 -195q-187 -191 -187 -472q0 -284 189 -476q191 -191 488 -191q265 0 428.5 144t183.5 363h-640v108h755v-58q0 -282 -199 -475 q-203 -191 -528 -192q-344 0 -568 224q-223 227 -223 553z" />
<glyph unicode="H" horiz-adv-x="1476" d="M187 0v1506h114v-679h875v679h114v-1506h-114v720h-875v-720h-114z" />
<glyph unicode="I" horiz-adv-x="487" d="M187 0v1506h114v-1506h-114z" />
<glyph unicode="J" horiz-adv-x="1188" d="M92 228l97 58q82 -200 353 -200q170 0 268.5 86t98.5 241v1093h117v-1093q0 -211 -138 -323q-137 -114 -346 -114q-160 0 -279 65.5t-171 186.5z" />
<glyph unicode="K" horiz-adv-x="1229" d="M187 0v1506h114v-702l733 702h152l-760 -732l783 -774h-153l-755 742v-742h-114z" />
<glyph unicode="L" horiz-adv-x="1059" d="M187 0v1506h114v-1399h710v-107h-824z" />
<glyph unicode="M" horiz-adv-x="1734" d="M187 0v1506h142l537 -891l538 891h145v-1506h-115v1338l-556 -925h-20l-557 925v-1338h-114z" />
<glyph unicode="N" horiz-adv-x="1476" d="M187 0v1506h99l890 -1295v1295h114v-1506h-100l-889 1295v-1295h-114z" />
<glyph unicode="O" horiz-adv-x="1754" d="M101 752.5q0 322.5 226 548.5q225 228 550 228t551 -228q226 -226 226 -548.5t-226 -549.5t-551 -227h-1q-324 0 -549 227q-226 227 -226 549.5zM215 752.5q0 -275.5 191 -473.5q194 -193 472 -193q279 0 468 193q193 198 193 474q0 277 -193 470q-189 196 -468 197 q-277 0 -472 -197q-191 -195 -191 -470.5z" />
<glyph unicode="P" horiz-adv-x="1262" d="M187 0v1506h512q203 0 336 -133.5t133 -333.5t-134 -333q-131 -132 -335 -132h-398v-574h-114zM301 681h398q153 0 254 101.5t101 255.5q0 158 -101 259t-254 101h-398v-717z" />
<glyph unicode="Q" horiz-adv-x="1765" d="M101 752.5q0 322.5 226 548.5q227 228 550 228t549 -228q228 -226 228 -548q0 -329 -236 -560l176 -174l-78 -70l-180 176q-205 -148 -458 -149q-323 0 -551 227q-226 227 -226 549.5zM215 753q0 -275 193 -474q195 -193 470 -193q209 0 378 119l-333 328l77 71l338 -333 q201 194 201 479q0 280 -193 473q-193 196 -468 197h-2q-274 0 -468 -197q-193 -193 -193 -470z" />
<glyph unicode="R" horiz-adv-x="1317" d="M187 0v1506h593q183 0 314 -131.5t131 -314.5q0 -150 -94 -270q-93 -119 -236 -158l373 -632h-131l-361 617h-475v-617h-114zM301 724h479q138 0 235 97q97 99 97 239t-97 239t-235 99h-479v-674z" />
<glyph unicode="S" horiz-adv-x="1233" d="M97 331l98 59q41 -142 157 -223t294.5 -81t279 82t100.5 219q0 123 -95 192q-90 64 -295 131l-107 34l-94 36q-66 28 -93 45q-103 64 -133 117q-49 86 -49 183q0 182 128 293q131 111 327 111q173 0 298 -86t186 -230l-97 -54q-105 261 -387 261q-152 0 -246 -81 t-94 -210q0 -123 86 -183t282 -125q127 -43 194 -70q73 -31 150 -80q154 -95 154 -281.5t-135 -301.5q-133 -112 -359 -112q-207 0 -353 96t-197 259z" />
<glyph unicode="T" horiz-adv-x="1160" d="M49 1398v108h1063v-108h-474v-1398h-115v1398h-474z" />
<glyph unicode="U" horiz-adv-x="1434" d="M166 503v1003h113v-1003q0 -191 115 -304t322 -113t323 113t116 304v1003h113v-1003q0 -236 -152 -382q-150 -145 -400 -145h-2q-249 0 -398 144q-150 144 -150 383z" />
<glyph unicode="V" horiz-adv-x="1300" d="M28 1506h124l497 -1358l500 1358h121l-560 -1506h-121z" />
<glyph unicode="W" horiz-adv-x="2134" d="M71 1506h120l390 -1354l419 1354h135l422 -1354l387 1354h120l-436 -1506h-138l-421 1357l-424 -1357h-138z" />
<glyph unicode="X" horiz-adv-x="1231" d="M49 0l501 774l-472 732h131l408 -630l407 630h131l-474 -732l501 -774h-131l-434 671l-434 -671h-134z" />
<glyph unicode="Y" horiz-adv-x="1252" d="M21 1506h129l478 -777l476 777h129l-549 -886v-620h-114v620z" />
<glyph unicode="Z" horiz-adv-x="1124" d="M92 0v107l813 1291h-791v108h918v-108l-813 -1291h835v-107h-962z" />
<glyph unicode="[" horiz-adv-x="595" d="M135 -215v1935h417v-105h-307v-1724h307v-106h-417z" />
<glyph unicode="\" horiz-adv-x="1132" d="M92 1720h86l860 -1935h-86z" />
<glyph unicode="]" horiz-adv-x="595" d="M43 -109h308v1724h-308v105h417v-1935h-417v106z" />
<glyph unicode="^" horiz-adv-x="1079" d="M107 860l379 646h107l379 -646h-127l-305 523l-306 -523h-127z" />
<glyph unicode="_" horiz-adv-x="1089" d="M86 -183h918v-103h-918v103z" />
<glyph unicode="`" horiz-adv-x="386" d="M43 1498h129l172 -273h-104z" />
<glyph unicode="a" horiz-adv-x="1386" d="M92 537.5q0 236.5 164 398.5q164 163 393 163q150 0 271 -70.5t192 -195.5v242h109v-1075h-109v243q-71 -125 -191.5 -196t-271.5 -71q-228 0 -393 162q-164 163 -164 399.5zM202 537.5q0 -193.5 131 -324.5q133 -133 325 -133q189 0 323 133q131 131 131 324.5 t-131 324.5q-134 133 -323 133q-191 0 -325 -133q-131 -131 -131 -324.5z" />
<glyph unicode="b" horiz-adv-x="1386" d="M166 0v1506h107v-681q66 129 188 201.5t274 72.5q232 0 394 -163q164 -162 164 -398.5t-164 -399.5q-162 -162 -394 -162q-152 0 -273.5 72.5t-188.5 201.5v-250h-107zM273 537.5q0 -193.5 131 -324.5q134 -133 325 -133q189 0 322 133t133 324.5t-133 324.5t-322 133 q-191 0 -325 -133q-131 -131 -131 -324.5z" />
<glyph unicode="c" horiz-adv-x="1205" d="M92 537.5q0 238.5 161.5 400t404.5 161.5q158 0 284.5 -74.5t184.5 -201.5l-89 -51q-47 103 -148.5 163t-231.5 60q-191 0 -325 -133q-130 -130 -130 -321q0 -199 130.5 -330t324.5 -131q130 0 231.5 60t155.5 163l90 -53q-64 -125 -193 -199.5t-284 -74.5 q-242 0 -404 161.5t-162 400z" />
<glyph unicode="d" horiz-adv-x="1386" d="M94 538q0 236 162 398q164 163 396 163q152 0 274 -72.5t188 -201.5v681h107v-1506h-107v250q-66 -129 -188 -201.5t-274 -72.5q-230 0 -396 162q-162 163 -162 400zM202 537.5q0 -193.5 131 -324.5q133 -133 325 -133q189 0 322.5 133t133.5 324.5t-133.5 324.5 t-322.5 133q-191 0 -325 -133q-131 -131 -131 -324.5z" />
<glyph unicode="e" horiz-adv-x="1266" d="M92 538q0 240 156 400q158 161 401 161q236 0 383 -168q148 -168 148 -398q0 -4 -1 -25.5t-1 -25.5h-973q19 -181 144 -293q125 -109 311 -109q128 0 224.5 52.5t147.5 142.5l95 -56q-67 -111 -190.5 -177t-278.5 -66q-250 0 -406 157q-160 160 -160 405zM205 587h864 q-17 191 -138 299q-120 109 -282 109q-181 0 -305 -113q-122 -114 -139 -295z" />
<glyph unicode="f" horiz-adv-x="673" d="M58 970v105h185v58q0 203 111 307q98 91 268 91q25 0 51 -2v-103q-24 2 -46 2q-274 0 -274 -295v-58h320v-105h-320v-970h-110v970h-185z" />
<glyph unicode="g" horiz-adv-x="1393" d="M101 538q0 236 161 398q164 163 396 163q153 0 274.5 -72.5t187.5 -201.5v250h107v-1024q0 -234 -152 -369.5t-383 -135.5q-183 0 -315 68t-192 191l94 53q103 -209 413 -209q199 0 313.5 108t114.5 294v199q-66 -129 -187.5 -201.5t-274.5 -72.5q-230 0 -396 162 q-161 163 -161 400zM209 537.5q0 -193.5 131 -324.5q134 -133 325 -133q189 0 322 133t133 324.5t-133 324.5t-322 133q-191 0 -325 -133q-131 -131 -131 -324.5z" />
<glyph unicode="h" horiz-adv-x="1212" d="M166 0v1506h107v-636q117 229 385 229q191 0 304 -117.5t113 -312.5v-669h-109v669q0 150 -84 238t-233 88q-170 0 -273 -111.5t-103 -315.5v-568h-107z" />
<glyph unicode="i" horiz-adv-x="437" d="M133 1422q-2 52 42 72q22 10 44 10q23 0 45 -10q44 -20 42 -72q2 -54 -42 -76q-22 -11 -44.5 -10.5t-44.5 10.5q-44 22 -42 76zM166 0v1075h107v-1075h-107z" />
<glyph unicode="j" horiz-adv-x="478" d="M-43 -351q23 -2 44 -2q206 0 206 230v1198h107v-1198q0 -172 -92 -259q-80 -74 -219 -74q-22 0 -46 2v103zM174 1422q-2 51 42 72q22 10 44 10t44 -10q42 -20 42 -66v-6v-10q0 -44 -40 -64q-23 -12 -45.5 -12t-45.5 12q-41 20 -41 66v8z" />
<glyph unicode="k" horiz-adv-x="1038" d="M166 0v1506h107v-919l544 488h151l-578 -516l599 -559h-146l-570 529v-529h-107z" />
<glyph unicode="l" horiz-adv-x="437" d="M166 0v1570h107v-1570h-107z" />
<glyph unicode="m" horiz-adv-x="1842" d="M166 0v1075h107v-185q111 209 347 209q118 0 206 -57t128 -162q56 107 150.5 163t209.5 56q178 0 284.5 -110.5t106.5 -307.5v-681h-107v681q0 149 -77.5 231.5t-209.5 82.5q-148 0 -235 -100.5t-87 -294.5v-600h-107v681q0 149 -73.5 231.5t-201.5 82.5 q-148 0 -241 -102.5t-93 -292.5v-600h-107z" />
<glyph unicode="n" horiz-adv-x="1212" d="M166 0v1075h107v-205q117 229 385 229q191 0 304 -117.5t113 -312.5v-669h-109v669q0 150 -84 238t-233 88q-170 0 -273 -111.5t-103 -315.5v-568h-107z" />
<glyph unicode="o" horiz-adv-x="1313" d="M92 537.5q0 236.5 164 398.5q164 163 402 163q234 0 398 -163q165 -161 165 -395q0 -238 -165 -403q-166 -162 -398 -162q-236 0 -402 162q-164 163 -164 399.5zM202 537.5q0 -193.5 131 -324.5q133 -133 325 -133q189 0 323 133q131 131 131 324.5t-131 324.5 q-134 133 -323 133q-191 0 -325 -133q-131 -131 -131 -324.5z" />
<glyph unicode="p" horiz-adv-x="1386" d="M166 -430v1505h107v-250q66 129 188 201.5t274 72.5q232 0 394 -163q164 -162 164 -398.5t-164 -399.5q-162 -162 -394 -162q-152 0 -273.5 72.5t-188.5 201.5v-680h-107zM273 537.5q0 -193.5 131 -324.5q134 -133 325 -133q189 0 322 133t133 324.5t-133 324.5t-322 133 q-191 0 -325 -133q-131 -131 -131 -324.5z" />
<glyph unicode="q" horiz-adv-x="1386" d="M94 538q0 236 162 398q164 163 396 163q152 0 274 -72.5t188 -201.5v250h107v-1505h-107v680q-66 -129 -188 -201.5t-274 -72.5q-230 0 -396 162q-162 163 -162 400zM202 537.5q0 -193.5 131 -324.5q133 -133 325 -133q189 0 322.5 133t133.5 324.5t-133.5 324.5 t-322.5 133q-191 0 -325 -133q-131 -131 -131 -324.5z" />
<glyph unicode="r" horiz-adv-x="683" d="M166 0v1075h107v-211q97 226 359 226v-103q-160 0 -259.5 -101t-99.5 -289v-597h-107z" />
<glyph unicode="s" horiz-adv-x="983" d="M97 215l92 54q30 -91 113 -140t203 -49q125 0 201 53.5t76 147.5q0 146 -230 197q-215 51 -287 94q-134 78 -134 222q0 129 101 217q105 88 265 88q127 0 223.5 -58t141.5 -157l-90 -51q-33 77 -107 119.5t-168 42.5q-112 0 -185.5 -55.5t-73.5 -145.5q0 -136 230 -194 q66 -15 97.5 -22.5t93 -26t92.5 -40t69 -53.5t54 -76t16 -101q0 -135 -106.5 -220t-278.5 -85q-152 0 -259.5 64.5t-148.5 174.5z" />
<glyph unicode="t" horiz-adv-x="808" d="M49 970v105h237v269l110 33v-302h320v-105h-320v-699q0 -131 70 -161q45 -19 134 -19q51 0 116 6v-97q-76 -11 -138 -11q-120 -1 -188 41q-104 64 -104 241v699h-237z" />
<glyph unicode="u" horiz-adv-x="1212" d="M138 406v669h110v-669q0 -150 83.5 -238t232.5 -88q170 0 273 111t103 316v568h107v-1075h-107v205q-117 -228 -386 -229q-191 0 -303.5 117.5t-112.5 312.5z" />
<glyph unicode="v" horiz-adv-x="1098" d="M28 1075h116l404 -964l406 964h115l-454 -1075h-131z" />
<glyph unicode="w" horiz-adv-x="1654" d="M71 1075h114l286 -935l301 935h112l300 -935l287 935h113l-339 -1075h-118l-300 916l-298 -916h-118z" />
<glyph unicode="x" horiz-adv-x="1089" d="M49 0l431 552l-404 523h131l337 -437l340 437h129l-402 -521l427 -554h-131l-363 468l-363 -468h-132z" />
<glyph unicode="y" horiz-adv-x="1096" d="M28 1075h116l435 -956l373 956h117l-465 -1174q-64 -161 -178 -251q-102 -81 -219 -81q-14 0 -29 1v101q11 -1 22 -1q88 0 163 59q84 66 136 193l24 59z" />
<glyph unicode="z" horiz-adv-x="1024" d="M114 0v71l645 899h-624v105h774v-71l-642 -899h664v-105h-817z" />
<glyph unicode="{" horiz-adv-x="749" d="M114 704v102q128 0 181.5 46.5t53.5 169.5v402q0 172 92 253.5t267 64.5v-105q-132 15 -191 -35.5t-59 -177.5v-402q0 -224 -172 -267q172 -43 172 -267v-402q0 -127 59 -177.5t191 -37.5v-103q-175 -17 -267 64.5t-92 253.5v402q0 123 -54.5 169.5t-180.5 46.5z" />
<glyph unicode="|" horiz-adv-x="480" d="M187 -430v1979h108v-1979h-108z" />
<glyph unicode="}" horiz-adv-x="749" d="M43 -129q131 -13 190.5 37.5t59.5 177.5v402q0 224 171 267q-172 43 -171 267v402q0 127 -59.5 177.5t-190.5 35.5v105q174 17 266.5 -64.5t92.5 -253.5v-402q0 -123 53.5 -169.5t180.5 -46.5v-102q-127 0 -180.5 -46.5t-53.5 -169.5v-402q0 -172 -92.5 -253.5 t-266.5 -64.5v103z" />
<glyph unicode="~" horiz-adv-x="1262" d="M135 669q21 73 63 125.5t104.5 81.5t154 10.5t199.5 -88.5q298 -195 370 86l99 -47q-31 -101 -91 -162.5t-172.5 -61.5t-254.5 95q-297 197 -373 -86z" />
<glyph unicode="&#xa2;" horiz-adv-x="1205" d="M92 753q0 238 161.5 399.5t404.5 161.5q46 0 114 -11l67 203h86l-73 -224q193 -66 275 -244l-89 -51q-59 138 -219 195l-286 -870q64 -17 125 -17q130 0 231.5 60.5t155.5 163.5l90 -55q-64 -125 -193 -199t-284 -74q-88 0 -159 22l-69 -213h-86l77 238 q-150 64 -239.5 202.5t-89.5 312.5zM203 753q0 -136 68.5 -246.5t184.5 -166.5l284 864q-39 7 -82 7q-191 0 -325 -134q-130 -131 -130 -324z" />
<glyph unicode="&#xa3;" horiz-adv-x="1268" d="M92 0v109h216v521h-173v101h173v365q0 203 127 317q125 117 305 116q293 0 401 -279l-92 -54q-82 224 -309 224q-139 0 -229 -86.5t-90 -237.5v-365h519v-101h-519v-521h812v-109h-1141z" />
<glyph unicode="&#xa5;" horiz-adv-x="1225" d="M21 1506h129l472 -766h10l472 766h129l-476 -766h312v-97h-370l-15 -23v-142h385v-95h-385v-383h-114v383h-410v95h410v142l-16 23h-394v97h337z" />
<glyph unicode="&#xa8;" horiz-adv-x="630" d="M43 1318q0 34 22.5 57t57.5 23q32 0 54.5 -23t22.5 -57q0 -33 -22.5 -55t-54.5 -22q-35 0 -57.5 22.5t-22.5 54.5zM430 1318q0 34 23 57t56 23t55.5 -23t22.5 -57q0 -33 -22.5 -55t-55.5 -22q-34 0 -56.5 22.5t-22.5 54.5z" />
<glyph unicode="&#xa9;" horiz-adv-x="1756" d="M101 752.5q0 322.5 228 548.5q227 228 550 228t551 -228q228 -226 228 -548.5t-228 -549.5q-230 -226 -550.5 -226.5t-550.5 226.5q-228 227 -228 549.5zM158 753q-2 -299 210 -515q215 -211 512 -210q299 0 509 210q211 216 211 515q0 301 -211 511q-211 213 -509 213 q-299 0 -512 -213q-212 -211 -210 -511zM468 753q0 174 119 292q121 121 299 121q115 0 206.5 -54t144.5 -146l-90 -52q-35 71 -105 111t-156 40q-137 0 -223 -93q-87 -88 -87 -219q0 -129 87 -222q86 -90 223 -90q86 0 157 41t104 111l92 -53q-51 -93 -144.5 -146.5 t-208.5 -53.5q-180 0 -299 118t-119 295z" />
<glyph unicode="&#xab;" horiz-adv-x="1008" d="M172 665l230 371h134l-230 -371l230 -372h-134zM476 665l228 371h133l-228 -371l228 -372h-133z" />
<glyph unicode="&#xad;" d="M187 613v103h774v-103h-774z" />
<glyph unicode="&#xae;" horiz-adv-x="1756" d="M101 752.5q0 322.5 228 548.5q227 228 550 228t551 -228q228 -226 228 -548.5t-228 -549.5q-230 -226 -550.5 -226.5t-550.5 226.5q-228 227 -228 549.5zM158 753q-2 -299 210 -515q215 -211 512 -210q299 0 509 210q211 216 211 515q0 301 -211 511q-211 213 -509 213 q-299 0 -512 -213q-212 -211 -210 -511zM649 355v796h239q138 0 215 -71.5t77 -178.5q0 -177 -160 -228l180 -318h-114l-168 299h-30h-135v-299h-104zM753 753h139q185 0 185 148q0 71 -48 110.5t-137 39.5h-139v-298z" />
<glyph unicode="&#xb4;" horiz-adv-x="386" d="M43 1225l172 273h129l-196 -273h-105z" />
<glyph unicode="&#xb8;" horiz-adv-x="489" d="M35 -365q324 -31 324 84q0 92 -197 92v189h96v-121q88 -10 142 -53t54 -107q0 -205 -419 -173v89z" />
<glyph unicode="&#xbb;" horiz-adv-x="1008" d="M172 293l228 372l-228 371h134l227 -371l-227 -372h-134zM474 293l230 372l-230 371h133l230 -371l-230 -372h-133z" />
<glyph unicode="&#x2c6;" horiz-adv-x="677" d="M43 1225l232 273h127l232 -273h-123l-171 205l-174 -205h-123z" />
<glyph unicode="&#x2da;" horiz-adv-x="526" d="M43 1397.5q0 90.5 61.5 149.5t158 59t159 -59t62.5 -149.5t-62.5 -149t-159 -58.5t-158 58.5t-61.5 149zM135 1397.5q0 -53.5 35 -88t92 -34.5q82 -7 115.5 58t0 129.5t-115.5 57.5q-57 0 -92 -34.5t-35 -88z" />
<glyph unicode="&#x2dc;" horiz-adv-x="669" d="M43 1254q0 118 43 177t111 52.5t143 -70.5q193 -166 193 60h95q0 -176 -92.5 -217t-204.5 58q-193 176 -193 -60h-95z" />
<glyph unicode="&#x401;" d="M187 0v1506h856v-108h-742v-585h688v-107h-688v-599h753v-107h-867zM342 1748q0 35 22.5 57.5t56.5 22.5q33 0 55.5 -22.5t22.5 -57.5q0 -32 -22.5 -54.5t-55.5 -22.5q-35 0 -57 22.5t-22 54.5zM729 1748q0 35 22.5 57.5t56.5 22.5q33 0 55.5 -22.5t22.5 -57.5 q0 -32 -22.5 -54.5t-55.5 -22.5q-34 0 -56.5 22.5t-22.5 54.5z" />
<glyph unicode="&#x402;" horiz-adv-x="1502" d="M49 1398v108h1047v-108h-501v-469q176 84 369 84q178 0 286.5 -104.5t108.5 -291.5v-299q0 -174 -92.5 -261t-264.5 -72v105q127 -14 185 41.5t58 186.5v299q0 142 -75.5 217t-205.5 75q-176 0 -369 -84v-825h-115v1398h-431z" />
<glyph unicode="&#x403;" horiz-adv-x="1059" d="M187 0v1506h824v-108h-710v-1398h-114zM503 1654l172 273h129l-195 -273h-106z" />
<glyph unicode="&#x404;" horiz-adv-x="1607" d="M101 753q0 326 217 550q220 226 560 226q207 0 376 -99q174 -96 268 -262l-100 -58q-78 142 -225.5 226t-318.5 84q-277 0 -461 -177q-183 -174 -200 -437h850v-107h-850q15 -260 200 -439q185 -174 461 -174q174 0 322 86t224 230l103 -58q-93 -168 -268 -268t-381 -100 q-340 0 -560 224q-217 227 -217 553z" />
<glyph unicode="&#x405;" horiz-adv-x="1233" d="M97 331l98 59q41 -142 157 -223t294.5 -81t279 82t100.5 219q0 123 -95 192q-90 64 -295 131l-107 34l-94 36q-66 28 -93 45q-103 64 -133 117q-49 86 -49 183q0 182 128 293q131 111 327 111q173 0 298 -86t186 -230l-97 -54q-105 261 -387 261q-152 0 -246 -81 t-94 -210q0 -123 86 -183t282 -125q127 -43 194 -70q73 -31 150 -80q154 -95 154 -281.5t-135 -301.5q-133 -112 -359 -112q-207 0 -353 96t-197 259z" />
<glyph unicode="&#x406;" horiz-adv-x="487" d="M187 0v1506h114v-1506h-114z" />
<glyph unicode="&#x407;" horiz-adv-x="487" d="M-30 1748q0 35 22.5 57.5t56.5 22.5q33 0 55.5 -22.5t22.5 -57.5q0 -32 -22.5 -54.5t-55.5 -22.5q-34 0 -56.5 22.5t-22.5 54.5zM187 0v1506h114v-1506h-114zM357 1748q0 35 22.5 57.5t57.5 22.5q32 0 54 -22.5t22 -57.5q0 -32 -22 -54.5t-54 -22.5q-35 0 -57.5 22.5 t-22.5 54.5z" />
<glyph unicode="&#x408;" horiz-adv-x="1188" d="M92 228l97 58q82 -200 353 -200q170 0 268.5 86t98.5 241v1093h117v-1093q0 -211 -138 -323q-137 -114 -346 -114q-160 0 -279 65.5t-171 186.5z" />
<glyph unicode="&#x409;" horiz-adv-x="2138" d="M39 -2v101q159 -17 240 104q84 123 84 435v868h880v-661h359q183 0 314 -121q132 -118 132 -301t-130 -302q-131 -121 -316 -121h-473v1398h-651v-762q0 -355 -109 -506t-330 -132zM1243 107h359q138 0 232 88q97 91 97 228q0 136 -97 224q-92 90 -232 90h-359v-630z" />
<glyph unicode="&#x40a;" horiz-adv-x="2113" d="M187 0v1506h114v-661h803v661h115v-661h357q183 0 314 -121q131 -118 131 -301t-129 -302q-131 -121 -316 -121h-472v737h-803v-737h-114zM1219 107h357q140 0 234 88q97 91 98 228q0 140 -98 226q-94 88 -234 88h-357v-630z" />
<glyph unicode="&#x40b;" horiz-adv-x="1515" d="M49 1398v108h1047v-108h-501v-469q176 84 369 84q178 0 286.5 -104.5t108.5 -291.5v-617h-114v617q0 142 -75.5 217t-205.5 75q-176 0 -369 -84v-825h-115v1398h-431z" />
<glyph unicode="&#x40c;" horiz-adv-x="1229" d="M187 0v1506h114v-702l733 702h152l-760 -732l783 -774h-153l-755 742v-742h-114zM525 1654l172 273h128l-195 -273h-105z" />
<glyph unicode="&#x40e;" horiz-adv-x="1216" d="M71 1506h118l465 -975l417 975h119l-502 -1177q-150 -351 -458 -329v105q230 -26 344 237l26 60zM349 1690v95h543v-95h-543z" />
<glyph unicode="&#x40f;" horiz-adv-x="1446" d="M187 0v1506h114v-1399h846v1399h115v-1506h-482v-288h-113v288h-480z" />
<glyph unicode="&#x410;" horiz-adv-x="1352" d="M33 0l584 1506h120l583 -1506h-120l-146 383h-755l-147 -383h-119zM342 490h671l-336 875z" />
<glyph unicode="&#x411;" horiz-adv-x="1257" d="M187 0v1506h867v-108h-753v-510h430q183 0 314 -131q131 -129 131 -312t-131 -314q-129 -131 -314 -131h-544zM301 107h430q135 0 233 100q96 99 96 238q0 136 -96 236q-97 99 -233 99h-430v-673z" />
<glyph unicode="&#x412;" horiz-adv-x="1338" d="M187 0v1506h601q163 0 278.5 -116.5t115.5 -279.5q0 -107 -51.5 -195t-141.5 -135q119 -45 188.5 -143.5t69.5 -225.5q0 -171 -120.5 -291t-289.5 -120h-650zM301 107h536q121 0 208 88q88 93 88 216q0 125 -88 213q-86 90 -208 90h-536v-607zM301 821h487q116 0 197 84 q84 88 84 205q0 118 -84 201q-79 87 -197 87h-487v-577z" />
<glyph unicode="&#x413;" horiz-adv-x="1059" d="M187 0v1506h824v-108h-710v-1398h-114z" />
<glyph unicode="&#x414;" horiz-adv-x="1483" d="M39 107h121q154 174 154 540v859h929v-1399h159v-395h-116v288h-1132v-288h-115v395zM295 107h834v1291h-701v-753q0 -347 -133 -538z" />
<glyph unicode="&#x415;" d="M187 0v1506h856v-108h-742v-585h688v-107h-688v-599h753v-107h-867z" />
<glyph unicode="&#x416;" horiz-adv-x="1797" d="M43 0l684 774l-663 732h136l641 -704v704h116v-704l641 704h136l-663 -732l684 -774h-136l-662 747v-747h-116v747l-663 -747h-135z" />
<glyph unicode="&#x417;" horiz-adv-x="1197" d="M86 308l99 53q77 -277 419 -277q180 0 285.5 87t105.5 229q0 138 -95.5 226t-256.5 88h-169v107h119q158 0 253.5 84t95.5 215.5t-96.5 216.5t-250.5 85q-289 0 -386 -248l-95 53q128 302 481 302q207 0 332 -119q129 -116 129 -290q0 -235 -223 -342q131 -45 205 -145 t74 -233q0 -185 -140 -306q-137 -118 -368 -118q-402 0 -518 332z" />
<glyph unicode="&#x418;" horiz-adv-x="1476" d="M187 0v1506h114v-1295l889 1295h100v-1506h-114v1295l-890 -1295h-99z" />
<glyph unicode="&#x419;" horiz-adv-x="1476" d="M187 0v1506h114v-1295l889 1295h100v-1506h-114v1295l-890 -1295h-99zM464 1693v94h545v-94h-545z" />
<glyph unicode="&#x41a;" horiz-adv-x="1229" d="M187 0v1506h114v-702l733 702h152l-760 -732l783 -774h-153l-755 742v-742h-114z" />
<glyph unicode="&#x41b;" horiz-adv-x="1500" d="M39 0v101q164 -19 244 105.5t80 431.5v868h953v-1506h-116v1398h-722v-762q0 -355 -109 -505t-330 -131z" />
<glyph unicode="&#x41c;" horiz-adv-x="1734" d="M187 0v1506h142l537 -891l538 891h145v-1506h-115v1338l-556 -925h-20l-557 925v-1338h-114z" />
<glyph unicode="&#x41d;" horiz-adv-x="1476" d="M187 0v1506h114v-679h875v679h114v-1506h-114v720h-875v-720h-114z" />
<glyph unicode="&#x41e;" horiz-adv-x="1754" d="M101 752.5q0 322.5 226 548.5q225 228 550 228t551 -228q226 -226 226 -548.5t-226 -549.5q-226 -226 -551 -226.5t-550 226.5q-226 227 -226 549.5zM215 752.5q0 -275.5 191 -473.5q194 -193 472 -193q279 0 468 193q193 198 193 474q0 277 -193 470q-189 196 -468 197 q-277 0 -472 -197q-191 -195 -191 -470.5z" />
<glyph unicode="&#x41f;" horiz-adv-x="1446" d="M187 0v1506h1075v-1506h-115v1398h-846v-1398h-114z" />
<glyph unicode="&#x420;" horiz-adv-x="1262" d="M187 0v1506h512q203 0 336 -133.5t133 -333.5t-134 -333q-131 -132 -335 -132h-398v-574h-114zM301 681h398q153 0 254 101.5t101 255.5q0 158 -101 259t-254 101h-398v-717z" />
<glyph unicode="&#x421;" horiz-adv-x="1614" d="M101 752.5q0 329.5 221 550.5q224 226 562 226q209 0 378 -99q174 -99 267 -262l-101 -58q-74 137 -222 224q-143 86 -322 86q-290 0 -482 -195q-187 -191 -187 -472.5t187 -475.5q191 -191 482 -191q174 0 323.5 86t224.5 230l101 -58q-92 -168 -267 -268t-382 -100 q-338 0 -562 224q-221 223 -221 552.5z" />
<glyph unicode="&#x422;" horiz-adv-x="1160" d="M49 1398v108h1063v-108h-474v-1398h-115v1398h-474z" />
<glyph unicode="&#x423;" horiz-adv-x="1216" d="M71 1506h118l465 -975l417 975h119l-502 -1177q-150 -351 -458 -329v105q230 -26 344 237l26 60z" />
<glyph unicode="&#x424;" horiz-adv-x="1728" d="M71 753q0 269 202 419q207 154 533 164v170h117v-170q324 -9 530 -164q205 -152 205 -419q0 -269 -204 -422t-531 -161v-170h-117v170q-330 11 -532.5 161.5t-202.5 421.5zM187 753q0 -217 165 -342t454 -136v955q-289 -11 -454 -135.5t-165 -341.5zM923 275 q290 11 454 136t164 342t-164 341.5t-454 135.5v-955z" />
<glyph unicode="&#x425;" horiz-adv-x="1231" d="M49 0l501 774l-472 732h131l408 -630l407 630h131l-474 -732l501 -774h-131l-434 671l-434 -671h-134z" />
<glyph unicode="&#x426;" horiz-adv-x="1483" d="M187 0v1506h114v-1399h832v1399h114v-1399h157v-395h-114v288h-1103z" />
<glyph unicode="&#x427;" horiz-adv-x="1348" d="M150 974v532h115v-532q0 -143 95.5 -228.5t263.5 -85.5q223 0 423 99v747h114v-1506h-114v652q-200 -99 -423 -100q-222 0 -347 119q-127 121 -127 303z" />
<glyph unicode="&#x428;" horiz-adv-x="2056" d="M187 0v1506h114v-1399h671v1399h114v-1399h671v1399h114v-1506h-1684z" />
<glyph unicode="&#x429;" horiz-adv-x="2107" d="M187 0v1506h114v-1399h671v1399h114v-1399h671v1399h114v-1399h157v-395h-114v288h-1727z" />
<glyph unicode="&#x42a;" horiz-adv-x="1489" d="M0 1398v108h531v-575h398q203 0 336 -133t133 -332t-133 -332.5t-336 -133.5h-514v1398h-415zM531 107h398q153 0 254 101.5t101 257.5q0 155 -101 256t-254 101h-398v-716z" />
<glyph unicode="&#x42b;" horiz-adv-x="1640" d="M187 0v1506h114v-575h398q203 0 336 -133t133 -332t-133 -332.5t-336 -133.5h-512zM301 107h398q153 0 254 101.5t101 257.5q0 155 -101 256t-254 101h-398v-716zM1340 0v1506h115v-1506h-115z" />
<glyph unicode="&#x42c;" horiz-adv-x="1262" d="M187 0v1506h114v-575h398q203 0 336 -133t133 -332t-133.5 -332.5t-335.5 -133.5h-512zM301 107h398q153 0 254 101.5t101 257.5q0 155 -101 256t-254 101h-398v-716z" />
<glyph unicode="&#x42d;" horiz-adv-x="1607" d="M82 344l103 58q75 -144 223 -230t323 -86q277 0 461 174q185 179 199 439h-849v107h849q-17 263 -199 437q-183 177 -461 177q-172 0 -319 -84t-225 -226l-101 58q92 163 267 262q171 99 378 99q340 0 557 -226q220 -221 220 -550q0 -327 -220 -553q-217 -224 -557 -224 q-207 0 -382 100t-267 268z" />
<glyph unicode="&#x42e;" horiz-adv-x="2251" d="M187 0v1506h114v-679h306q28 300 245 500q215 202 522 202q325 0 551 -228q225 -226 225 -548.5t-225 -549.5q-226 -226 -551 -227q-318 0 -539 215q-220 217 -233 529h-301v-720h-114zM712 753q0 -277 191 -474q190 -193 471 -193q278 0 469 193q193 196 193 473.5 t-193 470.5q-189 196 -469 197q-281 0 -471 -195q-191 -195 -191 -472z" />
<glyph unicode="&#x42f;" horiz-adv-x="1348" d="M80 0l427 622q-164 21 -275 146q-109 127 -109 292q0 185 129 314q131 132 314 132h595v-1506h-114v617h-413l-425 -617h-129zM236 1060q0 -135 97 -237q97 -99 233 -99h481v674h-481q-136 0 -233 -99t-97 -239z" />
<glyph unicode="&#x430;" horiz-adv-x="1386" d="M92 537.5q0 236.5 164 398.5q164 163 393 163q150 0 271 -70.5t192 -195.5v242h109v-1075h-109v243q-71 -125 -191.5 -196t-271.5 -71q-228 0 -393 162q-164 163 -164 399.5zM202 537.5q0 -193.5 131 -324.5q133 -133 325 -133q189 0 323 133q131 131 131 324.5 t-131 324.5q-134 133 -323 133q-191 0 -325 -133q-131 -131 -131 -324.5z" />
<glyph unicode="&#x431;" horiz-adv-x="1227" d="M92 527q0 269 78 415q82 150 325 269l112 49q159 66 189 84q71 39 107.5 81t44.5 108l86 -49q-24 -121 -127 -189q-45 -29 -99 -58q-43 -24 -129 -59l-127 -53q-161 -74 -234 -155.5t-99 -225.5q74 115 192 175t247 60q216 0 357.5 -142t141.5 -361q0 -218 -148 -359 q-145 -143 -375 -143t-386 153q-155 154 -156 400zM209 503q0 -183 120 -303q118 -118 305 -118q181 0 297 109q117 115 116 285q0 174 -112 285.5t-290 111.5q-164 0 -294 -103q-129 -103 -142 -267z" />
<glyph unicode="&#x432;" horiz-adv-x="1089" d="M166 0v1075h479q150 0 235.5 -78.5t85.5 -202.5q-1 -173 -139 -240q189 -59 190 -257q0 -133 -87 -215t-244 -82h-520zM273 105h413q107 0 165 52t58 144q0 91 -58.5 141t-164.5 50h-413v-387zM273 597h372q103 0 157 50t54 141q0 86 -55 134t-156 48h-372v-373z" />
<glyph unicode="&#x433;" horiz-adv-x="864" d="M166 0v1075h673v-105h-566v-970h-107z" />
<glyph unicode="&#x434;" horiz-adv-x="1268" d="M49 105h125q119 160 119 433v537h754v-970h151v-393h-110v288h-928v-288h-111v393zM308 105h630v865h-538v-432q0 -267 -92 -433z" />
<glyph unicode="&#x435;" horiz-adv-x="1266" d="M92 538q0 240 156 400q158 161 401 161q236 0 383 -168q148 -168 148 -398q0 -4 -1 -25.5t-1 -25.5h-973q19 -181 144 -293q125 -109 311 -109q128 0 224.5 52.5t147.5 142.5l95 -56q-67 -111 -190.5 -177t-278.5 -66q-250 0 -406 157q-160 160 -160 405zM205 587h864 q-17 191 -138 299q-120 109 -282 109q-181 0 -305 -113q-122 -114 -139 -295z" />
<glyph unicode="&#x436;" horiz-adv-x="1424" d="M49 0l510 559l-488 516h134l453 -486v486h110v-486l453 486h133l-486 -516l509 -559h-134l-475 529v-529h-110v529l-475 -529h-134z" />
<glyph unicode="&#x437;" horiz-adv-x="956" d="M71 230l93 54q69 -205 326 -204q134 0 210 58.5t76 156.5q0 88 -64.5 142.5t-171.5 54.5h-148v105h107q105 0 165 54.5t60 144.5q0 86 -69.5 142.5t-183.5 56.5q-219 0 -290 -174l-91 52q48 105 144.5 165.5t236.5 60.5q164 0 262 -88q99 -86 100 -211q-1 -174 -152 -246 q97 -32 151 -103t54 -163q0 -136 -106.5 -224t-289.5 -88q-322 0 -419 254z" />
<glyph unicode="&#x438;" horiz-adv-x="1219" d="M166 0v1075h107v-888l686 888h95v-1075h-110v888l-684 -888h-94z" />
<glyph unicode="&#x439;" horiz-adv-x="1219" d="M166 0v1075h107v-888l686 888h95v-1075h-110v888l-684 -888h-94zM335 1262v95h545v-95h-545z" />
<glyph unicode="&#x43a;" horiz-adv-x="1038" d="M166 0v1075h107v-488l544 488h151l-578 -516l599 -559h-146l-570 529v-529h-107z" />
<glyph unicode="&#x43b;" horiz-adv-x="1203" d="M28 0v101q132 -11 192.5 71t60.5 280v623h757v-1075h-107v970h-541v-518q0 -255 -92.5 -360t-269.5 -92z" />
<glyph unicode="&#x43c;" horiz-adv-x="1369" d="M166 0v1075h127l391 -617l391 617h129v-1075h-110v911l-402 -634h-15l-404 639v-916h-107z" />
<glyph unicode="&#x43d;" horiz-adv-x="1219" d="M166 0v1075h107v-486h671v486h110v-1075h-110v486h-671v-486h-107z" />
<glyph unicode="&#x43e;" horiz-adv-x="1313" d="M92 537.5q0 236.5 164 398.5q164 163 402 163q234 0 398 -163q166 -162 165 -398q0 -235 -165 -400q-166 -162 -398 -162q-236 0 -402 162q-164 163 -164 399.5zM202 537.5q0 -193.5 131 -324.5q133 -133 325 -133q189 0 323 133q131 131 131 324.5t-131 324.5 q-134 133 -323 133q-191 0 -325 -133q-131 -131 -131 -324.5z" />
<glyph unicode="&#x43f;" horiz-adv-x="1219" d="M166 0v1075h888v-1075h-110v970h-671v-970h-107z" />
<glyph unicode="&#x440;" horiz-adv-x="1386" d="M166 -430v1505h107v-250q66 129 188 201.5t274 72.5q232 0 394 -163q164 -162 164 -398.5t-164 -399.5q-162 -162 -394 -162q-152 0 -273.5 72.5t-188.5 201.5v-680h-107zM273 537.5q0 -193.5 131 -324.5q134 -133 325 -133q189 0 322 133t133 324.5t-133 324.5t-322 133 q-191 0 -325 -133q-131 -131 -131 -324.5z" />
<glyph unicode="&#x441;" horiz-adv-x="1205" d="M92 537.5q0 238.5 161.5 400t404.5 161.5q158 0 284.5 -74.5t184.5 -201.5l-89 -51q-47 103 -148.5 163t-231.5 60q-191 0 -325 -133q-131 -131 -130 -324q0 -196 130.5 -327t324.5 -131q130 0 231.5 60t155.5 163l90 -53q-64 -125 -193 -199.5t-284 -74.5 q-242 0 -404 161.5t-162 400z" />
<glyph unicode="&#x442;" horiz-adv-x="946" d="M28 970v105h890v-105h-391v-970h-108v970h-391z" />
<glyph unicode="&#x443;" horiz-adv-x="1096" d="M28 1075h116l435 -956l373 956h117l-465 -1174q-64 -161 -178 -251.5t-248 -79.5v101q101 -8 185 58t136 193l24 59z" />
<glyph unicode="&#x444;" horiz-adv-x="1440" d="M92 538q0 230 157 387t418 174v407h107v-407q256 -14 415 -174t159 -387q0 -230 -158 -390q-156 -155 -416 -172v-406h-107v406q-263 17 -417 172q-158 158 -158 390zM202.5 537.5q0.5 -186.5 126.5 -313.5q125 -125 338 -142v911q-213 -17 -338 -141 q-127 -128 -126.5 -314.5zM774 82q213 17 338 142q127 127 127 313.5t-127 314.5q-125 124 -338 141v-911z" />
<glyph unicode="&#x445;" horiz-adv-x="1089" d="M49 0l431 552l-404 523h131l337 -437l340 437h129l-402 -521l427 -554h-131l-363 468l-363 -468h-132z" />
<glyph unicode="&#x446;" horiz-adv-x="1274" d="M166 0v1075h107v-970h650v970h109v-970h172v-393h-110v288h-928z" />
<glyph unicode="&#x447;" horiz-adv-x="1153" d="M123 724v351h107v-351q0 -270 318 -270q174 0 332 69v552h109v-1075h-109v421q-142 -71 -328 -70q-207 0 -318 96.5t-111 276.5z" />
<glyph unicode="&#x448;" horiz-adv-x="1756" d="M166 0v1075h107v-970h550v970h110v-970h549v970h110v-1075h-1426z" />
<glyph unicode="&#x449;" horiz-adv-x="1812" d="M166 0v1075h107v-970h550v970h110v-970h549v970h110v-970h150v-393h-110v288h-1466z" />
<glyph unicode="&#x44a;" horiz-adv-x="1160" d="M0 970v105h417v-417h316q150 0 252 -92q105 -92 105 -236.5t-105 -237.5q-101 -92 -252 -92h-425v970h-308zM417 105h316q105 0 176.5 63.5t71.5 160.5q0 100 -70 161.5t-178 61.5h-316v-447z" />
<glyph unicode="&#x44b;" horiz-adv-x="1383" d="M166 0v1075h107v-417h318q150 0 252 -92q103 -92 103 -236.5t-103 -237.5q-101 -92 -252 -92h-425zM273 105h318q105 0 175.5 63.5t70.5 160.5q0 100 -70 161.5t-176 61.5h-318v-447zM1112 0v1075h107v-1075h-107z" />
<glyph unicode="&#x44c;" horiz-adv-x="1016" d="M166 0v1075h107v-417h318q150 0 252 -92q103 -92 103 -236.5t-103 -237.5q-101 -92 -252 -92h-425zM273 105h318q105 0 175.5 63.5t70.5 160.5q0 100 -70 161.5t-176 61.5h-318v-447z" />
<glyph unicode="&#x44d;" horiz-adv-x="1180" d="M58 252l92 56q45 -105 147.5 -166.5t244.5 -61.5q180 0 299 113q121 117 135 293h-557v103h557q-16 179 -133 293q-119 114 -299 113q-133 0 -235 -59.5t-151 -165.5l-96 53q64 129 192 202.5t290 73.5q245 0 394 -159q150 -158 150 -402.5t-150 -402.5 q-153 -159 -396 -159q-172 0 -298.5 73.5t-185.5 202.5z" />
<glyph unicode="&#x44e;" horiz-adv-x="1726" d="M166 0v1075h107v-486h240q19 219 177 363q159 147 381 147q234 0 398 -163q166 -162 165 -398q0 -235 -165 -400q-166 -162 -398 -162q-224 0 -381 144.5t-177 365.5h-240v-486h-107zM615 537.5q0 -193.5 132 -324.5q133 -133 324 -133q189 0 322 133q132 131 132 324.5 t-132 324.5q-133 133 -322 133q-191 0 -324 -133q-132 -131 -132 -324.5z" />
<glyph unicode="&#x44f;" horiz-adv-x="1075" d="M92 0l345 421q-134 15 -221 105.5t-87 220.5q0 143 103 236q102 92 252 92h425v-1075h-107v419h-232l-338 -419h-140zM238 747q0 -101 70.5 -162.5t175.5 -61.5h318v447h-318q-105 0 -175.5 -63.5t-70.5 -159.5z" />
<glyph unicode="&#x451;" horiz-adv-x="1266" d="M92 538q0 240 156 400q158 161 401 161q236 0 383 -168q148 -168 148 -398q0 -4 -1 -25.5t-1 -25.5h-973q19 -181 144 -293q125 -109 311 -109q128 0 224.5 52.5t147.5 142.5l95 -56q-67 -111 -190.5 -177t-278.5 -66q-250 0 -406 157q-160 160 -160 405zM205 587h864 q-17 191 -138 299q-120 109 -282 109q-181 0 -305 -113q-122 -114 -139 -295zM363 1318q0 34 22.5 57t57.5 23q33 0 55.5 -23t22.5 -57q0 -33 -22.5 -55t-55.5 -22q-35 0 -57.5 22.5t-22.5 54.5zM751 1318q0 34 22.5 57t57.5 23q32 0 54 -23t22 -57q0 -33 -22 -55t-54 -22 q-35 0 -57.5 22.5t-22.5 54.5z" />
<glyph unicode="&#x452;" horiz-adv-x="1240" d="M37 1252v90h156v164h110v-164h335v-90h-335v-376q120 223 383 223q191 0 304.5 -117.5t113.5 -312.5v-792q0 -172 -93 -258.5t-264 -72.5v103q249 -26 248 228v792q0 150 -85 238t-233 88q-170 0 -272 -111.5t-102 -315.5v-568h-110v1252h-156z" />
<glyph unicode="&#x453;" horiz-adv-x="864" d="M166 0v1075h673v-105h-566v-970h-107zM359 1225l172 273h129l-196 -273h-105z" />
<glyph unicode="&#x454;" horiz-adv-x="1180" d="M92 537.5q0 244.5 148 402.5q153 159 396 159q162 0 290 -73.5t192 -202.5l-94 -53q-50 105 -152 165t-236 60q-180 0 -298 -113q-116 -114 -133 -293h556v-103h-556q14 -174 133 -293q121 -114 300 -113q142 0 244.5 61.5t147.5 166.5l92 -56q-57 -129 -184 -202.5 t-300 -73.5q-242 0 -395 159q-151 158 -151 402.5z" />
<glyph unicode="&#x455;" horiz-adv-x="983" d="M97 215l92 54q30 -91 113 -140t203 -49q125 0 201 53.5t76 147.5q0 146 -230 197q-215 51 -287 94q-134 78 -134 222q0 129 101 217q105 88 265 88q127 0 223.5 -58t141.5 -157l-90 -51q-33 77 -107 119.5t-168 42.5q-112 0 -185.5 -55.5t-73.5 -145.5q0 -136 230 -194 q66 -15 97.5 -22.5t93 -26t92.5 -40t69 -53.5t54 -76t16 -101q0 -135 -106.5 -220t-278.5 -85q-152 0 -259.5 64.5t-148.5 174.5z" />
<glyph unicode="&#x456;" horiz-adv-x="437" d="M133 1422q-2 51 42 71.5t88.5 0t42.5 -71.5q2 -54 -42.5 -75.5t-88.5 0t-42 75.5zM166 0v1075h107v-1075h-107z" />
<glyph unicode="&#x457;" horiz-adv-x="437" d="M-54 1318q0 34 23 57t57 23q33 0 55 -23t22 -57q0 -33 -22 -55t-55 -22q-34 0 -57 22.5t-23 54.5zM166 0v1075h107v-1075h-107zM333 1318q0 34 22.5 57t57.5 23q32 0 54.5 -23t22.5 -57q0 -33 -22.5 -55t-54.5 -22q-35 0 -57.5 22.5t-22.5 54.5z" />
<glyph unicode="&#x458;" horiz-adv-x="478" d="M-43 -351q250 -26 250 228v1198h107v-1198q0 -172 -92.5 -258.5t-264.5 -72.5v103zM174 1422q-2 51 42 71.5t88.5 0t41.5 -71.5q5 -52 -40.5 -74.5t-90.5 0t-41 74.5z" />
<glyph unicode="&#x459;" horiz-adv-x="1726" d="M28 0v101q132 -11 192.5 71t60.5 280v623h736v-460h303q146 0 240 -84t94 -223.5t-93.5 -223.5t-240.5 -84h-411v970h-519v-518q0 -255 -92.5 -360t-269.5 -92zM1017 105h303q101 0 164 54t63 149q0 96 -62.5 148.5t-164.5 52.5h-303v-404z" />
<glyph unicode="&#x45a;" horiz-adv-x="1711" d="M158 0v1075h109v-460h628v460h109v-460h301q146 0 241 -84t95 -223.5t-95 -223.5t-241 -84h-410v509h-628v-509h-109zM1004 105h301q101 0 163.5 54t62.5 149q0 96 -61.5 148.5t-164.5 52.5h-301v-404z" />
<glyph unicode="&#x45b;" horiz-adv-x="1240" d="M37 1252v90h156v164h110v-164h335v-90h-335v-376q120 223 383 223q191 0 304.5 -117.5t113.5 -312.5v-669h-109v669q0 150 -85 238t-233 88q-170 0 -272 -111.5t-102 -315.5v-568h-110v1252h-156z" />
<glyph unicode="&#x45c;" horiz-adv-x="1038" d="M166 0v1075h107v-488l544 488h151l-578 -516l599 -559h-146l-570 529v-529h-107zM433 1225l171 273h129l-195 -273h-105z" />
<glyph unicode="&#x45e;" horiz-adv-x="1096" d="M28 1075h116l435 -956l373 956h117l-465 -1174q-64 -161 -178 -251.5t-248 -79.5v101q101 -8 185 58t136 193l24 59zM281 1262v95h544v-95h-544z" />
<glyph unicode="&#x45f;" horiz-adv-x="1219" d="M166 0v1075h107v-970h671v970h110v-1075h-389v-288h-111v288h-388z" />
<glyph unicode="&#x490;" horiz-adv-x="1059" d="M187 0v1506h710v257h114v-365h-710v-1398h-114z" />
<glyph unicode="&#x491;" horiz-adv-x="864" d="M166 0v1075h563v224h110v-329h-566v-970h-107z" />
<glyph unicode="&#x2000;" horiz-adv-x="963" />
<glyph unicode="&#x2001;" horiz-adv-x="1927" />
<glyph unicode="&#x2002;" horiz-adv-x="963" />
<glyph unicode="&#x2003;" horiz-adv-x="1927" />
<glyph unicode="&#x2004;" horiz-adv-x="642" />
<glyph unicode="&#x2005;" horiz-adv-x="481" />
<glyph unicode="&#x2006;" horiz-adv-x="321" />
<glyph unicode="&#x2007;" horiz-adv-x="321" />
<glyph unicode="&#x2008;" horiz-adv-x="240" />
<glyph unicode="&#x2009;" horiz-adv-x="385" />
<glyph unicode="&#x200a;" horiz-adv-x="107" />
<glyph unicode="&#x2010;" d="M187 613v103h774v-103h-774z" />
<glyph unicode="&#x2011;" d="M187 613v103h774v-103h-774z" />
<glyph unicode="&#x2012;" d="M187 613v103h774v-103h-774z" />
<glyph unicode="&#x2013;" horiz-adv-x="1446" d="M187 613v103h1075v-103h-1075z" />
<glyph unicode="&#x2014;" horiz-adv-x="1662" d="M187 613v103h1290v-103h-1290z" />
<glyph unicode="&#x2018;" horiz-adv-x="478" d="M131 1058l117 448h98l-81 -448h-134z" />
<glyph unicode="&#x2019;" horiz-adv-x="478" d="M133 1058l82 448h134l-117 -448h-99z" />
<glyph unicode="&#x201a;" horiz-adv-x="478" d="M133 -301l82 447h134l-117 -447h-99z" />
<glyph unicode="&#x201c;" horiz-adv-x="751" d="M131 1058l117 448h98l-81 -448h-134zM404 1058l117 448h99l-82 -448h-134z" />
<glyph unicode="&#x201d;" horiz-adv-x="751" d="M133 1058l82 448h134l-117 -448h-99zM406 1058l82 448h134l-117 -448h-99z" />
<glyph unicode="&#x201e;" horiz-adv-x="751" d="M133 -301l82 447h134l-117 -447h-99zM406 -301l82 447h134l-117 -447h-99z" />
<glyph unicode="&#x2026;" horiz-adv-x="1274" d="M133 76q0 41 28 68.5t69 27.5t69 -27.5t28 -68.5t-28 -69t-69 -28t-69 28t-28 69zM542 76q0 41 27.5 68.5t68.5 27.5t69 -27.5t28 -68.5t-28 -69t-69 -28t-68.5 28t-27.5 69zM950 76q0 41 28 68.5t69 27.5t69 -27.5t28 -68.5t-28 -69t-69 -28t-69 28t-28 69z" />
<glyph unicode="&#x202f;" horiz-adv-x="385" />
<glyph unicode="&#x2039;" horiz-adv-x="706" d="M172 665l230 371h134l-230 -371l230 -372h-134z" />
<glyph unicode="&#x203a;" horiz-adv-x="706" d="M172 293l230 372l-230 371h134l230 -371l-230 -372h-134z" />
<glyph unicode="&#x205f;" horiz-adv-x="481" />
<glyph unicode="&#x20ac;" horiz-adv-x="1293" d="M49 576v97h168q-2 17 -2 80q0 73 2 92h-168v95h179q37 275 185.5 432t376.5 157q154 0 269 -75t171 -213l-95 -55q-45 112 -135.5 173t-209.5 61q-177 0 -295.5 -127t-152.5 -353h576v-95h-587q-2 -19 -2 -92q0 -62 2 -80h587v-97h-578q35 -234 153 -362t297 -128 q254 0 345 234l95 -53q-56 -138 -171 -214.5t-269 -76.5q-230 0 -379 160.5t-185 439.5h-177z" />
<glyph unicode="&#x2122;" horiz-adv-x="1026" d="M107 1438v68h326v-68h-127v-363h-72v363h-127zM490 1075v431h72l144 -231l143 231h72v-431h-72v308l-139 -224h-9l-139 224v-308h-72z" />
<glyph unicode="&#x25fc;" horiz-adv-x="1075" d="M0 0v1075h1075v-1075h-1075z" />
</font>
</defs>
</svg>
