<?xml version="1.0" encoding="utf-8"?><svg xmlns="http://www.w3.org/2000/svg" xmlns:xlink="http://www.w3.org/1999/xlink"><symbol viewBox="0 0 396 396" id="administrative_tools" xmlns="http://www.w3.org/2000/svg"><g data-name="Слой 2"><path d="M137 0l-13.84 34.48A124.71 124.71 0 0 0 93.3 46.85L59.16 32.23 32.23 59.16 46.85 93.3a124.24 124.24 0 0 0-12.37 29.84L0 137v38.1l34.48 13.81a124.57 124.57 0 0 0 12.37 29.79l-14.62 34.14 26.93 26.93 34.14-14.62a124.71 124.71 0 0 0 29.86 12.37L137 312h31v-12h-22.95L132 267.38l-3-.73a112.85 112.85 0 0 1-32.13-13.34l-2.65-1.59-32.32 13.85-15.47-15.47 13.85-32.32-1.59-2.65A111.91 111.91 0 0 1 45.38 183l-.75-3L12 167v-21.9L44.63 132l.72-3a112.83 112.83 0 0 1 13.34-32.13l1.59-2.65L46.43 61.9 61.9 46.43l32.32 13.85 2.62-1.59A112.67 112.67 0 0 1 129 45.38l3-.75L145.05 12H167l13 32.63 3 .72a112.74 112.74 0 0 1 32.13 13.34l2.65 1.59 32.32-13.85 15.47 15.47-13.85 32.32 1.59 2.65A112.21 112.21 0 0 1 266.63 129l.75 3L300 145.05V167l-32.62 13-.75 3c-.73 3.05-1.72 6-2.72 9h12.61c.32-1.05.72-2.09 1-3.14L312 175.05V137l-34.48-13.81a124.57 124.57 0 0 0-12.37-29.89l14.62-34.14-26.93-26.93-34.14 14.62a124.71 124.71 0 0 0-29.86-12.37L175.05 0zm19 78a6 6 0 1 0 6 6 6 6 0 0 0-6-6zm27.68 5.46a6 6 0 1 0 2.16.47 6.11 6.11 0 0 0-2.16-.47zm-55.17 0a6.18 6.18 0 0 0-2.35.45 6 6 0 0 0-3.25 7.85 6 6 0 0 0 7.85 3.24 6 6 0 0 0-2.25-11.56zm-23.32 15.63a6 6 0 1 0 4.12 1.76 6 6 0 0 0-4.12-1.76zm101.81 0a6 6 0 1 0 4.15 1.76 6 6 0 0 0-4.15-1.76zM156 114a42 42 0 1 0 42 42 42.08 42.08 0 0 0-42-42zm66.56 8.44a5.79 5.79 0 0 0-2.34.47 6 6 0 1 0 2.34-.47zm-132.93 0a6 6 0 1 0 2.15.47 6.2 6.2 0 0 0-2.15-.47zM156 126a30 30 0 1 1-30 30 29.91 29.91 0 0 1 30-30zm-72 24a6 6 0 1 0 6 6 6 6 0 0 0-6-6zm144 0a6 6 0 1 0 6 6 6 6 0 0 0-6-6zM89.53 177.56a5.67 5.67 0 0 0-2.34.45 6 6 0 1 0 2.34-.45zm133.13 0a6 6 0 1 0 2.15.45 5.75 5.75 0 0 0-2.15-.45zm-117.47 23.35a5.87 5.87 0 0 0-4.34 1.78 5.91 5.91 0 1 0 4.34-1.78zM204 204a24.07 24.07 0 0 0-24 24v168h216V228a24.07 24.07 0 0 0-24-24zm0 12h168a11.91 11.91 0 0 1 12 12v156H192V228a11.91 11.91 0 0 1 12-12zm-75.42.52a6 6 0 0 0-5.67 3.7 6 6 0 1 0 7.85-3.26 6.32 6.32 0 0 0-2.18-.44zM156 222a6 6 0 1 0 6 6 6 6 0 0 0-6-6zm48 18a6 6 0 1 0 6 6 6 6 0 0 0-6-6zm24 0a6 6 0 1 0 6 6 6 6 0 0 0-6-6zm24 0a6 6 0 1 0 6 6 6 6 0 0 0-6-6zm24 0a6 6 0 1 0 6 6 6 6 0 0 0-6-6zm24 0a6 6 0 1 0 6 6 6 6 0 0 0-6-6zm24 0a6 6 0 1 0 6 6 6 6 0 0 0-6-6zm24 0a6 6 0 1 0 6 6 6 6 0 0 0-6-6zm24 0a6 6 0 1 0 6 6 6 6 0 0 0-6-6zm-85.29 25.34l-32.95 31.78-15.92-16.32-8.6 8.37L253.5 314l41.5-40zm0 54l-32.95 31.78-15.92-16.32-8.6 8.37L253.5 368l41.5-40z" data-name="Слой 1"/></g></symbol><symbol viewBox="0 0 32 32" id="arrow-right" xmlns="http://www.w3.org/2000/svg"><path d="M24.344 8.953a.651.651 0 0 0-.606.387.65.65 0 0 0 .133.703l5.106 5.316H1.297a.642.642 0 1 0 0 1.281h27.68l-5.106 5.317a.645.645 0 0 0 .02.906c.257.246.66.239.906-.02L31.367 16l-6.57-6.844a.644.644 0 0 0-.453-.203z"/></symbol><symbol viewBox="0 0 11.64 19.25" id="arrow-right2" xmlns="http://www.w3.org/2000/svg"><defs><style/></defs><g id="acСлой_2" data-name="Слой 2"><path d="M11.26 8.56L2.28.35C1-.77-.8 1.06.44 2.19l8 7.3-8 7.56C-.82 18.2 1 20 2.24 18.89l9-8.49a1.31 1.31 0 0 0 .02-1.84z" id="acArrows"/></g></symbol><symbol viewBox="0 0 420 376.78" id="bullish" xmlns="http://www.w3.org/2000/svg"><g data-name="Слой 2"><path d="M395.53 0L322.1 2.25 339.33 28l-23.84 19.09-79.26 12.21-23.89 41.79-65.9 6-36.59 61-94.24 41.18 4.78 11 97.76-42.77 35.41-59 66.1-6 24.11-42.21 76.74-11.79L346 38.06l21.8 32.63L372 60zm-17.81 12.56l-12.66 32.35-20.93-31.32zM336 93.28v271.5h-18v-217.5h-60v217.5h-18v-181.5h-60v181.5h-18v-121.5h-60v121.5H84v-79.5H24v79.5H0v12h420v-12h-24V93.28zm12 12h36v7.5a6 6 0 0 0 0 12v24a6 6 0 0 0 0 12v24a6 6 0 0 0 0 12v24a6 6 0 0 0 0 12v24a6 6 0 0 0 0 12v24a6 6 0 0 0 0 12v24a6 6 0 0 0 0 12v24h-36v-24a6 6 0 0 0 0-12v-24a6 6 0 0 0 0-12v-24a6 6 0 0 0 0-12v-24a6 6 0 0 0 0-12v-24a6 6 0 0 0 0-12v-24a6 6 0 0 0 0-12v-24a6 6 0 0 0 0-12zm18 25.5a6 6 0 1 0 6 6 6 6 0 0 0-6-6zm-96 28.5h36v205.5h-36zm96 7.5a6 6 0 1 0 6 6 6 6 0 0 0-6-6zm-174 28.5h36v25.5a6 6 0 0 0 0 12v24a6 6 0 0 0 0 12v24a6 6 0 0 0 0 12v24a6 6 0 0 0 0 12v24h-36v-24a6 6 0 0 0 0-12v-24a6 6 0 0 0 0-12v-24a6 6 0 0 0 0-12v-24a6 6 0 0 0 0-12zm18 7.5a6 6 0 1 0 6 6 6 6 0 0 0-6-6zm156 0a6 6 0 1 0 6 6 6 6 0 0 0-6-6zm-156 36a6 6 0 1 0 6 6 6 6 0 0 0-6-6zm156 0a6 6 0 1 0 6 6 6 6 0 0 0-6-6zm-252 16.5h36v109.5h-36zm96 19.5a6 6 0 1 0 6 6 6 6 0 0 0-6-6zm156 0a6 6 0 1 0 6 6 6 6 0 0 0-6-6zm-324.19 22.5h24.38a6.29 6.29 0 0 0-.19 1.5 6 6 0 0 0 6 6v24a6 6 0 0 0 0 12v24H36v-24a6 6 0 0 0 0-12v-24a6 6 0 0 0 6-6 6.29 6.29 0 0 0-.19-1.5zM54 310.78a6 6 0 1 0 6 6 6 6 0 0 0-6-6zm156 0a6 6 0 1 0 6 6 6 6 0 0 0-6-6zm156 0a6 6 0 1 0 6 6 6 6 0 0 0-6-6zm-312 36a6 6 0 1 0 6 6 6 6 0 0 0-6-6zm156 0a6 6 0 1 0 6 6 6 6 0 0 0-6-6zm156 0a6 6 0 1 0 6 6 6 6 0 0 0-6-6z" data-name="Слой 1"/></g></symbol><symbol viewBox="0 0 32 32" id="calendar" xmlns="http://www.w3.org/2000/svg"><g fill="#010002"><path d="M29.334 3H25V1a1 1 0 1 0-2 0v2h-6V1a1 1 0 1 0-2 0v2H9V1a1 1 0 1 0-2 0v2H2.667A2.666 2.666 0 0 0 0 5.666v23.667A2.667 2.667 0 0 0 2.667 32h26.667A2.666 2.666 0 0 0 32 29.333V5.666A2.665 2.665 0 0 0 29.334 3zM30 29.333a.667.667 0 0 1-.666.667H2.667A.667.667 0 0 1 2 29.333V5.666C2 5.299 2.299 5 2.667 5H7v2a1 1 0 1 0 2 0V5h6v2a1 1 0 1 0 2 0V5h6v2a1 1 0 1 0 2 0V5h4.334c.367 0 .666.299.666.666v23.667z"/><path d="M7 12h4v3H7zm0 5h4v3H7zm0 5h4v3H7zm7 0h4v3h-4zm0-5h4v3h-4zm0-5h4v3h-4zm7 10h4v3h-4zm0-5h4v3h-4zm0-5h4v3h-4z"/></g></symbol><symbol viewBox="0 0 348.077 348.077" id="call-answer" xmlns="http://www.w3.org/2000/svg"><path d="M340.273 275.083l-53.755-53.761c-10.707-10.664-28.438-10.34-39.518.744l-27.082 27.076a792.327 792.327 0 0 1-5.344-2.973c-17.102-9.476-40.509-22.464-65.14-47.113-24.704-24.701-37.704-48.144-47.209-65.257-1.003-1.813-1.964-3.561-2.913-5.221l18.176-18.149 8.936-8.947c11.097-11.1 11.403-28.826.721-39.521L73.39 8.194c-10.682-10.68-28.421-10.356-39.518.744l-15.15 15.237.414.411c-5.08 6.482-9.325 13.958-12.484 22.02C3.74 54.28 1.927 61.603 1.098 68.941-6 127.785 20.89 181.564 93.866 254.541c100.875 100.868 182.167 93.248 185.674 92.876 7.638-.913 14.958-2.738 22.397-5.627 7.992-3.122 15.463-7.361 21.941-12.43l.331.294 15.348-15.029c11.074-11.098 11.393-28.83.716-39.542z"/></symbol><symbol viewBox="0 0 396 396" id="check-icon" xmlns="http://www.w3.org/2000/svg"><g data-name="Слой 2"><path d="M198 0C88.71 0 0 88.71 0 198s88.71 198 198 198 198-88.71 198-198S307.29 0 198 0zm0 12A186 186 0 1 1 12 198 185.9 185.9 0 0 1 198 12zm0 18a6 6 0 1 0 6 6 6 6 0 0 0-6-6zm31.76 3.09a6 6 0 1 0 1 .12c-.32-.05-.65-.09-1-.12zm-63.33 0a6.93 6.93 0 0 0-1.2.09 6.14 6.14 0 1 0 1.2-.09zm-30.38 9.21a6.31 6.31 0 0 0-2.34.44 6.06 6.06 0 1 0 2.34-.44zm124.08 0a6 6 0 1 0 2.16.44 6.17 6.17 0 0 0-2.16-.41zm-152.06 15a6.11 6.11 0 0 0-3.42 1 6 6 0 1 0 3.42-1zm180 0a6 6 0 1 0 5.79 4.85 6 6 0 0 0-5.79-4.85zM83.53 77.44a6 6 0 1 0 4.15 1.78 5.86 5.86 0 0 0-4.15-1.78zm229.1 0a6.05 6.05 0 0 0-4.31 1.78 6 6 0 1 0 8.46 0 5.86 5.86 0 0 0-4.15-1.78zM332.77 102a5.87 5.87 0 0 0-3.4 1 6 6 0 1 0 3.4-1zM63.4 102a6 6 0 1 0 3.23 1 6 6 0 0 0-3.23-1zm203.72 26.67l-4.24 4.24-83.35 83.37-40.69-37.1-27.25 31.45 69.82 62.46L296.48 158zm80.6 1.34a5.73 5.73 0 0 0-2.34.44 6.07 6.07 0 1 0 2.34-.44zM48.47 130a6 6 0 0 0-5.67 3.7 6 6 0 1 0 7.83-3.23 5.52 5.52 0 0 0-2.16-.47zm218.65 15.63l12.4 12.4L181 256.59l-52.55-47 11.44-13.21 40.06 36.51zm89.79 14.77a4.86 4.86 0 0 0-1.2.09 6.18 6.18 0 1 0 1.2-.09zm-317.63 0A6 6 0 0 0 38 172.29a6.12 6.12 0 0 0 4.5-.89 6 6 0 0 0-2.16-10.9 7.16 7.16 0 0 0-1.06-.09zM36 192a6 6 0 1 0 6 6 6 6 0 0 0-6-6zm324 0a6 6 0 1 0 6 6 6 6 0 0 0-6-6zM39.14 223.59a6.76 6.76 0 0 0-1.19.12 6 6 0 1 0 1.19-.12zm317.91 0a6.07 6.07 0 1 0 1 .12c-.32-.05-.65-.09-1-.12zM347.81 254a6 6 0 0 0-5.69 3.73 6 6 0 1 0 7.85-3.26 6.2 6.2 0 0 0-2.16-.47zm-299.43 0a6.14 6.14 0 0 0-2.35.45 6 6 0 0 0-3.23 3.26 6.12 6.12 0 0 0 0 4.59 6 6 0 0 0 7.86 3.23 5.86 5.86 0 0 0 3.25-3.23 6 6 0 0 0-5.5-8.3zm284.43 28a5.93 5.93 0 0 0-5.08 2.65 6 6 0 0 0 1.64 8.32 6 6 0 0 0 8.32-1.67A6 6 0 0 0 336 283a5.56 5.56 0 0 0-3.19-1zm-269.43 0a5.85 5.85 0 0 0-3.4 1 6 6 0 1 0 3.4-1zm20.15 24.56a6 6 0 1 0 4.15 1.76 5.8 5.8 0 0 0-4.15-1.76zm229.1 0a6 6 0 1 0 4.15 1.76 5.8 5.8 0 0 0-4.15-1.76zM108.12 326.7a6 6 0 1 0 3.23 1 6 6 0 0 0-3.23-1zm180 0a6 6 0 0 0-5 9.32 6 6 0 1 0 10-6.68 5.89 5.89 0 0 0-5.05-2.64zm-151.97 14.95a6 6 0 1 0 2.15.47 6 6 0 0 0-2.15-.47zm123.89 0a5.94 5.94 0 0 0-2.32.47 6 6 0 0 0-3.26 3.23 6.15 6.15 0 0 0 0 4.62 6 6 0 1 0 5.6-8.32zm-93.47 9.23a6 6 0 1 0 1 .12 5 5 0 0 0-1-.12zm63.05 0a4.52 4.52 0 0 0-1.17.09 6 6 0 0 0-4.74 7.05 6 6 0 1 0 11.79-2.34 6 6 0 0 0-5.88-4.77zM198 354a6 6 0 1 0 6 6 6 6 0 0 0-6-6z" data-name="Слой 1"/></g></symbol><symbol viewBox="0 0 492 492" id="checked" xmlns="http://www.w3.org/2000/svg"><path d="M484.128 104.478l-16.116-16.116c-5.064-5.068-11.816-7.856-19.024-7.856s-13.964 2.788-19.028 7.856L203.508 314.81 62.024 173.322c-5.064-5.06-11.82-7.852-19.028-7.852-7.204 0-13.956 2.792-19.024 7.852l-16.12 16.112C2.784 194.51 0 201.27 0 208.47c0 7.204 2.784 13.96 7.852 19.028l159.744 159.736c.212.3.436.58.696.836l16.12 15.852c5.064 5.048 11.82 7.572 19.084 7.572h.084c7.212 0 13.968-2.524 19.024-7.572l16.124-15.992c.26-.256.48-.468.612-.684l244.784-244.76c10.5-10.476 10.5-27.52.004-38.008z"/></symbol><symbol viewBox="0 0 351.136 351.136" id="clip" xmlns="http://www.w3.org/2000/svg"><path d="M324.572 42.699c-35.419-35.419-92.855-35.419-128.273 0L19.931 219.066c-26.575 26.575-26.575 69.635 0 96.211 21.904 21.904 54.942 25.441 80.769 11.224 2.698-.136 5.351-1.156 7.415-3.197l176.367-176.367c17.709-17.709 17.709-46.416 0-64.125s-46.416-17.709-64.125 0L76.052 227.116c-4.422 4.422-4.422 11.61 0 16.031 4.422 4.422 11.61 4.422 16.031 0L236.388 98.843c8.866-8.866 23.219-8.866 32.063 0 8.866 8.866 8.866 23.219 0 32.063L100.088 299.268c-17.709 17.709-46.416 17.709-64.125 0s-17.709-46.416 0-64.125L212.33 58.73c26.575-26.575 69.635-26.575 96.211 0 26.575 26.575 26.575 69.635 0 96.211L148.205 315.277c-4.422 4.422-4.422 11.61 0 16.031 4.422 4.422 11.61 4.422 16.031 0l160.336-160.336c35.419-35.418 35.419-92.854 0-128.273z"/></symbol><symbol viewBox="0 0 357 357" id="close" xmlns="http://www.w3.org/2000/svg"><path d="M357 35.7L321.3 0 178.5 142.8 35.7 0 0 35.7l142.8 142.8L0 321.3 35.7 357l142.8-142.8L321.3 357l35.7-35.7-142.8-142.8z"/></symbol><symbol viewBox="0 0 422.324 422.324" id="diamond" xmlns="http://www.w3.org/2000/svg"><path d="M420.657 139.528L350.385 23.729a11.583 11.583 0 0 0-9.907-5.567H81.848a11.588 11.588 0 0 0-9.901 5.567L1.675 139.528c-.06.112-.071.229-.134.331a11.61 11.61 0 0 0-1.103 2.684c-.037.153-.096.293-.128.433-.192.829-.31 1.679-.31 2.571 0 .167.039.326.053.493.01.246.043.471.065.711.101.919.299 1.822.593 2.673.052.134.08.281.129.411.394.984.936 1.882 1.57 2.706.066.09.096.196.156.278l199.501 246.938.09.108c.049.061.112.093.161.143.539.646 1.16 1.226 1.838 1.752.033.01.056.056.091.086.091.068.173.11.269.165.936.656 1.956 1.248 3.116 1.608.872.274 1.754.34 2.626.396.304.032.582.146.885.146h.011c.068 0 .124-.033.187-.033a11.22 11.22 0 0 0 2.956-.459c.124-.032.252-.022.381-.069.013 0 .022 0 .032-.014.015 0 .015-.01.036-.01.265-.11.517-.229.777-.346.311-.115.612-.246.908-.388.36-.187.7-.416 1.032-.645.224-.139.453-.275.667-.434.111-.083.225-.135.331-.229.514-.438.984-.909 1.423-1.413.076-.104.196-.164.275-.276l.099-.101 199.49-246.943c3.07-3.779 3.424-9.092.909-13.273zM236.141 41.32l37.049 92.635H149.141l37.052-92.635h49.948zm-147.771 0h72.876l-37.052 92.635H32.146L88.37 41.32zM35.823 157.118h87.76l57.654 179.991L35.823 157.118zm175.34 197.5l-63.262-197.5h126.521l-63.259 197.5zm29.933-17.5l57.644-180h87.758l-145.402 180zm57.037-203.158L261.08 41.325h72.876l56.22 92.635h-92.043z"/></symbol><symbol viewBox="-4 0 511 512" id="discount" xmlns="http://www.w3.org/2000/svg"><path d="M252.691 0c12.024 0 20.32 9.48 28.54 18.871 4.867 5.563 9.69 11.074 12.644 11.61 3.023.55 9.516-3.055 15.969-6.641 10.676-5.934 21.293-11.828 32.164-7.781 10.992 4.093 15.11 15.617 19.21 27.101 2.43 6.797 4.848 13.57 7.16 14.926 2.317 1.355 9.438.11 16.548-1.133 11.937-2.09 23.86-4.176 32.71 3.29 8.805 7.429 8.75 19.558 8.696 31.687-.031 7.16-.066 14.32 1.664 16.37 1.73 2.055 8.785 3.243 15.844 4.43 11.98 2.02 23.98 4.04 29.851 14.06 5.856 9.995 1.817 21.397-2.238 32.839-2.433 6.863-4.875 13.75-3.89 16.394.984 2.637 7.23 6.27 13.507 9.922 10.64 6.188 21.344 12.41 23.465 24.094 2.086 11.484-5.504 21.035-13.16 30.676-4.695 5.914-9.434 11.879-9.434 15.285 0 3.41 4.739 9.375 9.434 15.29 7.656 9.636 15.246 19.187 13.16 30.67-2.12 11.685-12.824 17.911-23.465 24.099-6.277 3.648-12.523 7.28-13.507 9.921-.985 2.645 1.457 9.532 3.89 16.395 4.055 11.441 8.094 22.844 2.238 32.836-5.87 10.023-17.87 12.043-29.851 14.059-7.059 1.19-14.113 2.378-15.844 4.43-1.73 2.054-1.695 9.214-1.664 16.374.055 12.13.11 24.258-8.695 31.688-8.852 7.465-20.774 5.379-32.711 3.289-7.11-1.242-14.23-2.489-16.547-1.133-2.313 1.355-4.73 8.129-7.16 14.926-4.102 11.484-8.219 23.008-19.211 27.101-10.871 4.047-21.488-1.851-32.164-7.78-6.453-3.587-12.942-7.192-15.969-6.642-2.953.536-7.777 6.047-12.645 11.606-8.218 9.39-16.515 18.871-28.539 18.871-12.02 0-20.316-9.48-28.539-18.871-4.863-5.563-9.687-11.074-12.644-11.61-3.024-.55-9.512 3.055-15.969 6.641-10.676 5.934-21.289 11.828-32.16 7.781-10.996-4.093-15.11-15.617-19.215-27.101-2.426-6.793-4.848-13.57-7.16-14.926-2.313-1.355-9.434-.11-16.547 1.137-11.937 2.086-23.86 4.172-32.71-3.293-8.806-7.43-8.75-19.559-8.696-31.688.035-7.16.066-14.32-1.664-16.37-1.73-2.055-8.782-3.243-15.844-4.43-11.98-2.016-23.98-4.04-29.852-14.06-5.851-9.995-1.812-21.397 2.243-32.839 2.433-6.863 4.87-13.75 3.886-16.394-.98-2.637-7.226-6.27-13.507-9.922-10.637-6.188-21.344-12.41-23.461-24.094-2.086-11.484 5.5-21.04 13.156-30.676 4.699-5.914 9.437-11.879 9.437-15.289 0-3.406-4.738-9.371-9.437-15.285-7.656-9.64-15.242-19.188-13.156-30.676 2.117-11.683 12.824-17.906 23.46-24.094 6.282-3.652 12.528-7.285 13.508-9.921.985-2.645-1.453-9.532-3.886-16.395-4.055-11.441-8.098-22.844-2.243-32.836 5.872-10.023 17.872-12.043 29.852-14.059 7.062-1.19 14.113-2.378 15.844-4.43 1.73-2.054 1.699-9.214 1.664-16.374-.055-12.13-.11-24.262 8.695-31.684 8.852-7.465 20.774-5.383 32.711-3.293 7.113 1.242 14.234 2.489 16.547 1.133 2.312-1.352 4.734-8.129 7.16-14.926 4.102-11.48 8.223-23.008 19.215-27.101 10.871-4.047 21.484 1.851 32.16 7.78 6.457 3.587 12.945 7.192 15.969 6.642 2.957-.536 7.781-6.047 12.644-11.606C232.375 9.481 240.672 0 252.692 0zm123.922 129.176c-5.523 0-10 4.476-10 10 0 2.46.89 4.715 2.367 6.457v.004l-.003-.004.03.035c.204.238.419.465.641.68 26.895 28.672 43.364 67.238 43.364 109.652 0 44.273-17.942 84.352-46.953 113.363-29.012 29.016-69.094 46.957-113.368 46.957-18.953 0-37.136-3.289-54.011-9.328a10.673 10.673 0 0 0-.93-.332l-.023-.012v.004a10.033 10.033 0 0 0-2.903-.43c-5.52 0-10 4.477-10 10 0 4.532 3.016 8.356 7.145 9.587 18.972 6.785 39.418 10.484 60.722 10.484 49.786 0 94.86-20.184 127.485-52.809 32.629-32.629 52.808-77.699 52.808-127.484 0-47.64-18.48-90.96-48.656-123.191a9.987 9.987 0 0 0-7.715-3.633zm-30.18-25.383c-5.519 0-10 4.477-10 10 0 5.52 4.481 10 10 10 5.524 0 10-4.48 10-10 0-5.523-4.476-10-10-10zm-32.456-17.398c-19.133-6.915-39.766-10.688-61.286-10.688-49.785 0-94.855 20.18-127.484 52.809C92.582 161.14 72.398 206.215 72.398 256c0 47.54 18.403 90.777 48.465 122.988a9.986 9.986 0 0 0 7.68 3.594c5.523 0 10-4.477 10-10 0-2.453-.883-4.7-2.352-6.437v-.008l-.039-.043a8.938 8.938 0 0 0-.617-.656C108.762 336.784 92.371 298.308 92.371 256c0-44.273 17.945-84.355 46.957-113.363C168.34 113.62 208.422 95.68 252.691 95.68c19.133 0 37.48 3.351 54.493 9.5h.004a9.966 9.966 0 0 0 3.914.793c5.523 0 10-4.477 10-10 0-4.524-3.004-8.344-7.125-9.578zM158.949 388.207c-5.52 0-10 4.477-10 10s4.48 10 10 10c5.524 0 10-4.477 10-10s-4.476-10-10-10zm35.524-230.488c-11.465 0-21.844 4.644-29.36 12.16-7.511 7.516-12.16 17.894-12.16 29.36 0 11.46 4.649 21.843 12.16 29.355 7.516 7.515 17.895 12.164 29.36 12.164s21.843-4.649 29.359-12.164c7.512-7.512 12.16-17.895 12.16-29.356 0-11.465-4.648-21.843-12.16-29.36-7.516-7.515-17.894-12.16-29.36-12.16zM209.71 184a21.483 21.483 0 0 0-15.238-6.312c-5.95 0-11.34 2.414-15.239 6.312s-6.308 9.285-6.308 15.238c0 5.95 2.41 11.34 6.308 15.239a21.502 21.502 0 0 0 15.239 6.308 21.48 21.48 0 0 0 15.238-6.308 21.486 21.486 0 0 0 6.309-15.239A21.48 21.48 0 0 0 209.71 184zm92.894-21.758l-116.44 176.594c-3.017 4.59-1.743 10.754 2.847 13.77 4.59 3.015 10.754 1.742 13.77-2.848l116.44-176.594c3.016-4.59 1.743-10.754-2.847-13.77s-10.754-1.742-13.77 2.848zm8.31 109c-11.466 0-21.849 4.649-29.36 12.16-7.512 7.516-12.16 17.899-12.16 29.36 0 11.465 4.648 21.843 12.16 29.36 7.515 7.51 17.894 12.16 29.36 12.16 11.464 0 21.843-4.65 29.355-12.16 7.515-7.517 12.164-17.895 12.164-29.36s-4.649-21.844-12.164-29.36c-7.512-7.511-17.891-12.16-29.356-12.16zm15.233 26.281a21.486 21.486 0 0 0-15.234-6.308 21.48 21.48 0 0 0-15.238 6.308 21.49 21.49 0 0 0-6.313 15.239A21.48 21.48 0 0 0 295.675 328a21.48 21.48 0 0 0 15.238 6.309c5.95 0 11.34-2.41 15.234-6.309a21.466 21.466 0 0 0 6.313-15.238 21.48 21.48 0 0 0-6.313-15.239zM266.254 31.98c-5.23-5.976-10.508-12.007-13.559-12.007-3.054 0-8.332 6.03-13.562 12.007-7.16 8.18-14.262 16.293-24.113 18.083-10 1.816-19.602-3.52-29.153-8.829-6.656-3.699-13.277-7.375-15.543-6.53-2.234.831-4.8 8.01-7.355 15.163-3.637 10.176-7.258 20.32-15.899 25.38-8.699 5.097-19.379 3.23-30.043 1.362-7.363-1.285-14.722-2.574-16.402-1.152-1.742 1.469-1.71 8.934-1.676 16.395.051 10.84.098 21.68-6.347 29.324-6.426 7.62-17.098 9.418-27.782 11.215-7.394 1.246-14.808 2.492-15.96 4.464-1.15 1.958 1.359 9.04 3.878 16.141 3.625 10.23 7.262 20.492 3.73 29.969-3.484 9.355-12.8 14.773-22.167 20.223-6.68 3.882-13.403 7.792-13.867 10.363-.473 2.605 4.332 8.652 9.18 14.758 6.874 8.652 13.808 17.379 13.808 27.691 0 10.316-6.934 19.04-13.809 27.695-4.847 6.102-9.652 12.149-9.18 14.758.465 2.57 7.188 6.477 13.868 10.363 9.367 5.446 18.683 10.864 22.168 20.22 3.531 9.48-.106 19.741-3.73 29.972-2.52 7.101-5.028 14.18-3.88 16.14 1.153 1.97 8.563 3.22 15.961 4.461 10.688 1.801 21.356 3.594 27.782 11.22 6.445 7.64 6.398 18.48 6.347 29.323-.035 7.461-.066 14.922 1.676 16.395 1.684 1.418 9.04.133 16.402-1.156 10.664-1.864 21.344-3.735 30.043 1.363 8.64 5.059 12.266 15.203 15.899 25.379 2.554 7.152 5.12 14.336 7.355 15.164 2.266.844 8.887-2.832 15.543-6.531 9.551-5.305 19.153-10.641 29.153-8.825 9.855 1.786 16.953 9.899 24.113 18.082 5.23 5.977 10.508 12.008 13.562 12.008 3.051 0 8.328-6.031 13.559-12.008 7.16-8.183 14.262-16.296 24.11-18.082 10-1.816 19.605 3.52 29.156 8.825 6.656 3.699 13.277 7.375 15.543 6.53 2.234-.827 4.8-8.01 7.355-15.163 3.637-10.176 7.258-20.317 15.895-25.38 8.703-5.097 19.378-3.23 30.042-1.362 7.368 1.289 14.723 2.578 16.41 1.156 1.739-1.473 1.708-8.934 1.673-16.395-.051-10.84-.098-21.683 6.347-29.324 6.426-7.625 17.094-9.418 27.777-11.219 7.399-1.242 14.813-2.492 15.965-4.46 1.149-1.961-1.359-9.04-3.879-16.141-3.625-10.23-7.261-20.492-3.73-29.973 3.48-9.355 12.8-14.773 22.164-20.219 6.684-3.886 13.402-7.793 13.871-10.363.473-2.61-4.332-8.656-9.18-14.758-6.875-8.656-13.808-17.379-13.808-27.695 0-10.312 6.933-19.04 13.808-27.691 4.848-6.106 9.653-12.153 9.18-14.758-.469-2.57-7.187-6.48-13.871-10.363-9.363-5.45-18.684-10.868-22.164-20.223-3.531-9.477.105-19.738 3.73-29.969 2.52-7.101 5.028-14.183 3.88-16.14-1.153-1.973-8.567-3.22-15.966-4.465-10.683-1.797-21.351-3.594-27.777-11.215-6.445-7.645-6.398-18.485-6.348-29.324.036-7.461.067-14.926-1.671-16.395-1.688-1.422-9.043-.133-16.41 1.152-10.665 1.868-21.34 3.735-30.04-1.363-8.64-5.058-12.265-15.203-15.898-25.379-2.555-7.152-5.121-14.332-7.356-15.164-2.265-.844-8.886 2.832-15.542 6.531-9.555 5.309-19.157 10.645-29.157 8.829-9.851-1.79-16.949-9.903-24.11-18.083zm0 0" fill-rule="evenodd"/></symbol><symbol viewBox="0 0 129 129" id="down-arrow" xmlns="http://www.w3.org/2000/svg"><path d="M121.3 34.6c-1.6-1.6-4.2-1.6-5.8 0l-51 51.1-51.1-51.1c-1.6-1.6-4.2-1.6-5.8 0-1.6 1.6-1.6 4.2 0 5.8l53.9 53.9c.8.8 1.8 1.2 2.9 1.2 1 0 2.1-.4 2.9-1.2l53.9-53.9c1.7-1.6 1.7-4.2.1-5.8z"/></symbol><symbol viewBox="0 0 512 512" id="download" xmlns="http://www.w3.org/2000/svg"><path d="M467.786 352.977c-11.423 0-20.682 9.259-20.682 20.682v70.595c0 14.547-11.835 26.381-26.381 26.381H91.278c-14.547 0-26.381-11.835-26.381-26.381v-70.595c0-11.423-9.26-20.682-20.682-20.682-11.422 0-20.682 9.259-20.682 20.682v70.595c0 37.355 30.391 67.746 67.746 67.746h329.445c37.356 0 67.746-30.391 67.746-67.746v-70.595c-.002-11.423-9.261-20.682-20.684-20.682z"/><path d="M364.752 241.375c-8.077-8.077-21.172-8.077-29.249 0L256 320.878l-79.502-79.503c-8.077-8.076-21.173-8.077-29.249 0-8.077 8.077-8.077 21.172 0 29.249l94.127 94.127a20.683 20.683 0 0 0 29.25 0l94.127-94.127c8.075-8.076 8.075-21.172-.001-29.249z"/><path d="M256 0c-11.423 0-20.682 9.26-20.682 20.682v329.445c0 11.423 9.26 20.682 20.682 20.682 11.423 0 20.682-9.259 20.682-20.682V20.682C276.682 9.26 267.423 0 256 0z"/></symbol><symbol viewBox="0 0 512 512" id="file" xmlns="http://www.w3.org/2000/svg"><path d="M447.933 103.629c-.034-3.076-1.224-6.09-3.485-8.352L352.683 3.511l-.011-.008A11.942 11.942 0 0 0 344.206 0H89.278C75.361 0 64.04 11.32 64.04 25.237v461.525c0 13.916 11.32 25.237 25.237 25.237h333.444c13.916 0 25.237-11.32 25.237-25.237V103.753c.002-.044-.021-.081-.025-.124zm-91.739-62.698l50.834 50.834h-49.572a1.265 1.265 0 0 1-1.262-1.262V40.931zm67.789 445.832c0 .695-.566 1.261-1.261 1.261H89.278a1.263 1.263 0 0 1-1.261-1.261V25.237c0-.695.566-1.261 1.261-1.261h242.94v66.527c0 13.916 11.322 25.239 25.239 25.239h66.527v371.021z"/><path d="M362.088 164.014H149.912c-6.62 0-11.988 5.367-11.988 11.988 0 6.62 5.368 11.988 11.988 11.988h212.175c6.62 0 11.988-5.368 11.988-11.988.001-6.621-5.368-11.988-11.987-11.988zm0 72.339H149.912c-6.62 0-11.988 5.368-11.988 11.988 0 6.62 5.368 11.988 11.988 11.988h212.175c6.62 0 11.988-5.368 11.988-11.988.001-6.62-5.368-11.988-11.987-11.988zm0 72.338H149.912c-6.62 0-11.988 5.368-11.988 11.988 0 6.621 5.368 11.988 11.988 11.988h212.175c6.62 0 11.988-5.367 11.988-11.988.001-6.619-5.368-11.988-11.987-11.988zM256 381.031H149.912c-6.62 0-11.988 5.368-11.988 11.988 0 6.621 5.368 11.988 11.988 11.988H256c6.62 0 11.988-5.367 11.988-11.988 0-6.621-5.368-11.988-11.988-11.988z"/></symbol><symbol viewBox="0 0 500 500" id="hand_up" xmlns="http://www.w3.org/2000/svg"><path d="M230 30c-21.953 0-40 18.047-40 40v240.625c-7.46-3.36-12.773-5.742-26.719-11.875-21.21-9.375-43.32-19.063-51.758-22.11-7.265-2.695-14.296-6.64-25.507-6.64-15.47 0-27.5 5.977-35.079 14.023C43.398 292.07 40 301.484 40 310c0 11.914 7.07 23.555 19.14 31.094l153.985 111.992c0 .039.04.039.04.039C228.827 464.335 247.03 470 265.976 470H360c49.453 0 90-40.547 90-90V230c0-15.156-6.172-27.773-14.414-36.29-8.281-8.554-18.242-13.71-28.594-13.71-8.633 0-15.742 2.07-21.094 4.18-5.234-9.727-15.156-24.18-37.89-24.18-14.024 0-23.516 6.758-29.649 13.477-6.718-6.68-16.718-13.477-31.367-13.477-6.914 0-11.953 2.656-16.992 5.156V70c0-21.953-18.047-40-40-40zm0 20c11.055 0 20 8.945 20 20v115.352c0 4.453 2.89 8.32 7.11 9.609 4.218 1.25 8.788-.39 11.21-4.063 3.438-5.156 8.633-10.898 18.672-10.898 14.649 0 23.242 14.844 23.242 14.844 1.875 3.36 5.508 5.39 9.375 5.156 3.868-.273 7.227-2.695 8.672-6.29 0 0 5.078-13.71 19.727-13.71 16.484 0 24.61 20.469 24.61 20.469 1.093 2.89 3.437 5.156 6.405 6.094 2.97.898 6.172.43 8.711-1.368 0 0 7.383-5.195 19.258-5.195 2.656 0 9.18 2.344 14.18 7.54 5 5.233 8.828 12.616 8.828 22.46v150c0 38.555-31.445 70-70 70h-94.023c-15.04 0-28.829-4.336-41.172-13.125L70.859 324.922c-.234-.156-.468-.352-.703-.508C62.656 319.961 60 313.828 60 310c0-2.46 1.602-8.086 5.547-12.305 3.945-4.18 9.883-7.695 20.469-7.695 6.757 0 9.687 2.07 18.476 5.352.04.039.078.039.156.078 5.547 1.992 29.336 12.226 50.547 21.601a9124.05 9124.05 0 0 1 40.703 18.086 9.878 9.878 0 0 0 9.532-.742 9.982 9.982 0 0 0 4.57-8.398V70c0-11.055 8.945-20 20-20z"/></symbol><symbol viewBox="0 0 456.25 335.44" id="handshake" xmlns="http://www.w3.org/2000/svg"><g data-name="Слой 2"><path d="M6.12 0a6 6 0 0 0-.49 12l125.72 11.42h58.83c11.06 0 25.28 6.91 34.66 15.28l-68.67 68.41v2.49c0 9.65 6.07 18.84 14.53 26.41s19.8 13.41 32.23 13.41c13.52 0 23.36-3.26 31-8.23S247.13 130 253.15 124a233.65 233.65 0 0 1 22.06-19.22c2.58-1.94 5-3.61 7.38-5.06l82.5 86.65.05.07a24 24 0 0 1 6.44 11.79 6 6 0 0 0 .61 5.06 23.93 23.93 0 0 1-29.53 23.39l-9.42-2.2 2.2 9.4a23 23 0 0 1 .73 5.53 23.93 23.93 0 0 1-24 24 24.3 24.3 0 0 1-5.49-.7l-9.44-2.23 2.22 9.44a23.72 23.72 0 0 1-23.29 29.49 24.7 24.7 0 0 1-4.88-.49l-7.38-1.53.19 7.55a18 18 0 0 1-28.1 15.38 29.77 29.77 0 0 0 4.13-14.88c0-14.42-10.5-26-24.12-28.81 0-.39.12-.79.12-1.19a36.1 36.1 0 0 0-36-36 36.1 36.1 0 0 0-36-36 36.1 36.1 0 0 0-36-36 36.87 36.87 0 0 0-7 .7l-11.7-12.7H6.17a6.05 6.05 0 0 0-5.28 3 6.08 6.08 0 0 0 0 6 6.05 6.05 0 0 0 5.28 3h78l5 5.46a36 36 0 0 0 18.94 66.54 36.1 36.1 0 0 0 36 36 36.1 36.1 0 0 0 36 36c.4 0 .79-.09 1.19-.12 2.84 13.62 14.39 24.12 28.81 24.12a29.69 29.69 0 0 0 17.9-6.09 30.18 30.18 0 0 0 39.1-2.47c4.43-4.36 6.63-9.89 7.76-15.56.42 0 .82.12 1.24.12a36.11 36.11 0 0 0 36-36 36.11 36.11 0 0 0 36-36c0-.42-.14-.77-.17-1.2 9.29.07 18.57-2.29 25.62-9.35A35.72 35.72 0 0 0 384.1 204c9.61-3.94 30.84-14.79 39.44-36.56h26.63a6 6 0 1 0 0-12H415.6l-1.22 4.41c-4.83 17.41-22.55 27.53-32.23 31.89a35.33 35.33 0 0 0-8.53-13.74L295 95.44h23.13a6 6 0 1 0 0-12h-25.84c-4.29 0-8 1.59-12 3.73A92 92 0 0 0 268 95.23a236.49 236.49 0 0 0-23.25 20.27c-6.4 6.28-11.37 11.84-17.25 15.66s-12.85 6.28-24.56 6.28c-8.51 0-17.54-4.36-24.24-10.34-5.9-5.29-9.09-11.55-9.87-15.63l74.25-74A47.61 47.61 0 0 1 277 23.44h47.44L450.71 12a6 6 0 0 0-.66-12 3 3 0 0 0-.42 0L323.89 11.44H277A59.89 59.89 0 0 0 234.57 29l-1.22 1.22c-11.3-10.52-27.4-18.77-43.17-18.77h-58.29L6.71 0a5.82 5.82 0 0 0-.59 0zm414.05 107.44a6 6 0 1 0 6 6 6 6 0 0 0-6-6zm0 24a6 6 0 1 0 6 6 6 6 0 0 0-6-6zm-312 48a23.93 23.93 0 0 1 24 24 23.69 23.69 0 0 1-.71 5.48l-2.22 9.45 9.44-2.23a24.3 24.3 0 0 1 5.49-.7 23.93 23.93 0 0 1 24 24 23.69 23.69 0 0 1-.71 5.48l-2.22 9.45 9.44-2.23a24.3 24.3 0 0 1 5.49-.7 24 24 0 0 1 23.51 28.85l-1.53 7.43 7.57-.21c1.15-.05 1.27-.07.45-.07a18 18 0 1 1-18 18c0 .82 0 .7.07-.45l.21-7.57L185 299a24.25 24.25 0 0 1-4.85.49 23.93 23.93 0 0 1-24-24 24.3 24.3 0 0 1 .7-5.49l2.23-9.44-9.45 2.23a24.22 24.22 0 0 1-5.48.7 23.93 23.93 0 0 1-24-24 24.3 24.3 0 0 1 .7-5.49l2.23-9.44-9.45 2.23a24.22 24.22 0 0 1-5.48.7 24 24 0 0 1 0-48zm198 12a6 6 0 1 0 6 6 6 6 0 0 0-6-6zm18 18a6 6 0 1 0 6 6 6 6 0 0 0-6-6zm-54 18a6 6 0 1 0 6 6 6 6 0 0 0-6-6zm18 18a6 6 0 1 0 6 6 6 6 0 0 0-6-6zm-48 18a6 6 0 1 0 6 6 6 6 0 0 0-6-6zm18 18a6 6 0 1 0 6 6 6 6 0 0 0-6-6z" data-name="Слой 1"/></g></symbol><symbol viewBox="0 0 32 32" id="important_mail" xmlns="http://www.w3.org/2000/svg"><path d="M5.332 5.332c-.887 0-1.668.438-2.152 1.11-.325.449-.18 1.09.289 1.382l11.707 7.297a1.566 1.566 0 0 0 1.648 0l11.656-7.36a.977.977 0 0 0 .25-1.433 2.635 2.635 0 0 0-2.062-.996zm23.355 5.45a.618.618 0 0 0-.332.097l-11.53 7.273a1.558 1.558 0 0 1-1.65 0L3.642 10.965a.635.635 0 0 0-.973.539V24a2.666 2.666 0 0 0 2.664 2.668h21.336A2.666 2.666 0 0 0 29.332 24V11.418a.636.636 0 0 0-.645-.637z"/></symbol><symbol viewBox="0 0 32 32" id="important_time" xmlns="http://www.w3.org/2000/svg"><path d="M16 2.668C8.648 2.668 2.668 8.648 2.668 16S8.648 29.332 16 29.332c.3 0 .594-.023.887-.043a9.308 9.308 0 0 1-.782-2.629h-.007A9.282 9.282 0 0 1 16 25.332C16 20.18 20.18 16 25.332 16c.453 0 .895.035 1.328.098v.007c.93.13 1.809.399 2.63.786.019-.297.042-.59.042-.891 0-7.352-5.98-13.332-13.332-13.332zM16 8c.734 0 1.332.598 1.332 1.332V16c0 .352-.137.691-.39.941l-4.391 4.391a1.332 1.332 0 0 1-1.883-1.883l4-4V9.332C14.668 8.598 15.266 8 16 8zm9.332 10.668c-3.664 0-6.664 3-6.664 6.664 0 3.668 3 6.668 6.664 6.668C29 32 32 29 32 25.332c0-3.664-3-6.664-6.668-6.664zm-.992 2.664h1.992l-.223 5.316h-1.55zm.992 6.313c.14 0 .266.023.379.07.113.05.21.117.289.195a.89.89 0 0 1 .184.29c.043.113.062.234.062.366 0 .125-.02.243-.062.356a.85.85 0 0 1-.184.289.78.78 0 0 1-.29.191.978.978 0 0 1-.378.07.958.958 0 0 1-.375-.07.78.78 0 0 1-.289-.191.85.85 0 0 1-.184-.29 1.022 1.022 0 0 1 0-.723.89.89 0 0 1 .184-.288.965.965 0 0 1 .289-.195.972.972 0 0 1 .375-.07z"/></symbol><symbol viewBox="0 0 32 32" id="location" xmlns="http://www.w3.org/2000/svg"><path d="M16 2.133c-6.48 0-11.734 5.254-11.734 11.734 0 7.715 7.629 11.41 8.586 12.27.976.879 1.78 2.843 2.105 3.96.16.544.602.817 1.043.829.441-.012.883-.285 1.043-.828.324-1.118 1.129-3.082 2.105-3.961.957-.86 8.586-4.555 8.586-12.27 0-6.48-5.254-11.734-11.734-11.734zm0 14.933a3.198 3.198 0 1 1 3.2-3.2 3.2 3.2 0 0 1-3.2 3.2z"/></symbol><symbol viewBox="0 0 31.441 31.441" id="phone" xmlns="http://www.w3.org/2000/svg"><path d="M0 17.366l.02 2.576.002.004a1.01 1.01 0 0 0 1.022 1.004l.006.004 7.313-.059a1.004 1.004 0 0 0 1-1.019l-.021-2.578-.355.002c.111-1.07 1.411-1.323 4-1.609l6.231-.052c1.5.146 2.953.415 3.058 1.58l-.199.002.021 2.573.001.003a1.007 1.007 0 0 0 1.023 1.006l.006.006 7.312-.062a1.004 1.004 0 0 0 1.001-1.019l-.021-2.575-.264.002c-.258-1.566-2.843-6.622-15.053-6.668C3.429 10.439.462 15.685.31 17.364l-.31.002z"/></symbol><symbol viewBox="0 0 510.127 510.127" id="ruble-currency" xmlns="http://www.w3.org/2000/svg"><path d="M34.786 428.963h81.158v69.572c0 3.385 1.083 6.156 3.262 8.322 2.173 2.18 4.951 3.27 8.335 3.27h60.502c3.14 0 5.857-1.09 8.152-3.27 2.295-2.166 3.439-4.938 3.439-8.322v-69.572h182.964c3.377 0 6.156-1.076 8.334-3.256 2.18-2.178 3.262-4.951 3.262-8.336v-46.377c0-3.365-1.082-6.156-3.262-8.322-2.172-2.18-4.957-3.27-8.334-3.27h-182.97v-42.754h123.184c48.305 0 87.73-14.719 118.293-44.199 30.551-29.449 45.834-67.49 45.834-114.125 0-46.604-15.283-84.646-45.834-114.125C410.548 14.749 371.116 0 322.812 0H127.535c-3.385 0-6.157 1.089-8.335 3.256-2.173 2.179-3.262 4.969-3.262 8.335v227.896H34.786c-3.384 0-6.157 1.145-8.335 3.439-2.172 2.295-3.262 5.012-3.262 8.151v53.978c0 3.385 1.083 6.158 3.262 8.336 2.179 2.18 4.945 3.256 8.335 3.256h81.158v42.754H34.786c-3.384 0-6.157 1.09-8.335 3.27-2.172 2.166-3.262 4.951-3.262 8.322v46.377c0 3.385 1.083 6.158 3.262 8.336 2.178 2.181 4.95 3.257 8.335 3.257zM199.628 77.179h115.938c25.6 0 46.248 7.485 61.953 22.46 15.697 14.976 23.549 34.547 23.549 58.691 0 24.156-7.852 43.733-23.549 58.691-15.705 14.988-36.354 22.473-61.953 22.473H199.628V77.179z"/></symbol><symbol viewBox="0 0 16 16" id="search" xmlns="http://www.w3.org/2000/svg"><path d="M6.934 1.602a5.336 5.336 0 0 0-5.332 5.332 5.339 5.339 0 0 0 5.332 5.332 5.298 5.298 0 0 0 3.37-1.207l3.184 3.183c.137.14.332.195.52.149a.542.542 0 0 0 .383-.383.537.537 0 0 0-.149-.52l-3.183-3.183a5.298 5.298 0 0 0 1.207-3.371 5.339 5.339 0 0 0-5.332-5.332zm0 1.066a4.256 4.256 0 0 1 4.265 4.266 4.256 4.256 0 0 1-4.265 4.265 4.256 4.256 0 0 1-4.266-4.265 4.256 4.256 0 0 1 4.266-4.266z"/></symbol><symbol viewBox="0 0 96.124 96.123" id="social-fb" xmlns="http://www.w3.org/2000/svg"><path d="M72.089.02L59.624 0C45.62 0 36.57 9.285 36.57 23.656v10.907H24.037a1.96 1.96 0 0 0-1.96 1.961v15.803a1.96 1.96 0 0 0 1.96 1.96H36.57v39.876a1.96 1.96 0 0 0 1.96 1.96h16.352a1.96 1.96 0 0 0 1.96-1.96V54.287h14.654a1.96 1.96 0 0 0 1.96-1.96l.006-15.803a1.963 1.963 0 0 0-1.961-1.961H56.842v-9.246c0-4.444 1.059-6.7 6.848-6.7l8.397-.003a1.96 1.96 0 0 0 1.959-1.96V1.98A1.96 1.96 0 0 0 72.089.02z"/></symbol><symbol viewBox="0 0 612 612" id="social-tw" xmlns="http://www.w3.org/2000/svg"><path d="M612 116.258a250.714 250.714 0 0 1-72.088 19.772c25.929-15.527 45.777-40.155 55.184-69.411-24.322 14.379-51.169 24.82-79.775 30.48-22.907-24.437-55.49-39.658-91.63-39.658-69.334 0-125.551 56.217-125.551 125.513 0 9.828 1.109 19.427 3.251 28.606-104.326-5.24-196.835-55.223-258.75-131.174-10.823 18.51-16.98 40.078-16.98 63.101 0 43.559 22.181 81.993 55.835 104.479a125.556 125.556 0 0 1-56.867-15.756v1.568c0 60.806 43.291 111.554 100.693 123.104-10.517 2.83-21.607 4.398-33.08 4.398-8.107 0-15.947-.803-23.634-2.333 15.985 49.907 62.336 86.199 117.253 87.194-42.947 33.654-97.099 53.655-155.916 53.655-10.134 0-20.116-.612-29.944-1.721 55.567 35.681 121.536 56.485 192.438 56.485 230.948 0 357.188-191.291 357.188-357.188l-.421-16.253c24.666-17.593 46.005-39.697 62.794-64.861z"/></symbol><symbol viewBox="0 0 532.337 532.337" id="social-vk" xmlns="http://www.w3.org/2000/svg"><path d="M471.998 241.286c7.57-9.786 13.58-17.638 18.018-23.562 31.965-42.498 45.82-69.646 41.574-81.482l-1.666-2.772c-1.107-1.665-3.977-3.194-8.592-4.578-4.621-1.383-10.533-1.604-17.736-.691l-79.822.563a22.728 22.728 0 0 0-5.545.128c-1.848.281-3.047.563-3.605.832-.557.282-1.016.508-1.383.692l-1.107.832c-.924.551-1.939 1.524-3.047 2.914-1.109 1.389-2.039 2.999-2.773 4.853-8.684 22.356-18.568 43.146-29.656 62.363-6.838 11.457-13.123 21.396-18.844 29.792-5.729 8.415-10.533 14.603-14.414 18.568-3.879 3.972-7.393 7.166-10.531 9.56-3.146 2.411-5.545 3.421-7.203 3.054a138.055 138.055 0 0 1-4.713-1.114c-2.588-1.658-4.67-3.917-6.236-6.787-1.572-2.857-2.631-6.463-3.189-10.808-.551-4.339-.881-8.084-.967-11.23-.098-3.139-.049-7.57.141-13.305.184-5.729.275-9.602.275-11.64 0-7.014.141-14.639.418-22.864.275-8.219.508-14.737.691-19.542.184-4.798.275-9.884.275-15.245 0-5.349-.324-9.56-.975-12.613a44.18 44.18 0 0 0-2.906-8.868c-1.297-2.858-3.189-5.08-5.686-6.646-2.496-1.573-5.588-2.815-9.283-3.746-9.799-2.222-22.271-3.409-37.418-3.604-34.37-.355-56.451 1.86-66.243 6.658-3.88 2.038-7.393 4.804-10.532 8.317-3.329 4.07-3.788 6.291-1.383 6.646 11.089 1.665 18.936 5.643 23.556 11.922l1.665 3.323c1.291 2.411 2.583 6.659 3.88 12.754 1.292 6.096 2.124 12.84 2.497 20.233.924 13.488.924 25.031 0 34.646-.924 9.614-1.799 17.093-2.631 22.442-.833 5.361-2.081 9.7-3.74 13.023-1.665 3.335-2.772 5.367-3.329 6.107-.557.734-1.016 1.199-1.383 1.384a20.804 20.804 0 0 1-7.484 1.383c-2.589 0-5.729-1.298-9.425-3.887-3.697-2.576-7.534-6.138-11.5-10.667-3.978-4.522-8.452-10.856-13.446-18.99-4.988-8.121-10.166-17.736-15.521-28.819l-4.431-8.042c-2.772-5.165-6.561-12.699-11.365-22.583s-9.058-19.443-12.748-28.69c-1.481-3.874-3.697-6.83-6.652-8.868l-1.383-.832c-.924-.735-2.405-1.524-4.437-2.351a29.865 29.865 0 0 0-6.377-1.805l-75.943.551c-7.76 0-13.023 1.763-15.795 5.275l-1.108 1.659c-.56.93-.835 2.411-.835 4.437 0 2.038.557 4.529 1.665 7.479 11.089 26.059 23.146 51.188 36.169 75.386 13.03 24.211 24.346 43.709 33.954 58.489 9.608 14.792 19.4 28.733 29.382 41.854 9.982 13.121 16.585 21.523 19.816 25.214 3.231 3.703 5.771 6.476 7.62 8.317l6.928 6.658c4.431 4.432 10.949 9.743 19.542 15.937 8.592 6.193 18.103 12.289 28.55 18.287 10.435 6.01 22.589 10.899 36.444 14.694 13.856 3.794 27.344 5.317 40.465 4.571h31.874c6.469-.551 11.363-2.576 14.688-6.096l1.107-1.383c.734-1.102 1.432-2.815 2.08-5.123.643-2.307.975-4.853.975-7.619-.191-7.943.416-15.116 1.799-21.481 1.383-6.377 2.955-11.175 4.713-14.418 1.756-3.226 3.738-5.955 5.959-8.177 2.217-2.222 3.783-3.55 4.713-4.015.924-.453 1.666-.777 2.217-.973 4.43-1.476 9.65-.043 15.66 4.296 6.004 4.352 11.641 9.7 16.91 16.077 5.262 6.377 11.59 13.531 18.984 21.481 7.387 7.943 13.855 13.855 19.4 17.735l5.545 3.336c3.695 2.209 8.494 4.241 14.412 6.096 5.912 1.842 11.09 2.307 15.52 1.383l70.955-1.114c7.02 0 12.473-1.15 16.354-3.464 3.879-2.295 6.188-4.853 6.928-7.619.734-2.772.783-5.899.141-9.419-.648-3.507-1.297-5.955-1.939-7.338-.648-1.383-1.25-2.546-1.807-3.464-9.24-16.628-26.885-37.051-52.938-61.255l-.557-.551-.275-.281-.275-.27h-.278c-11.83-11.273-19.309-18.85-22.449-22.736-5.727-7.38-7.025-14.865-3.879-22.441 2.203-5.745 10.514-17.85 24.926-36.333z"/></symbol><symbol viewBox="0 0 512 352" id="social-youtube" xmlns="http://www.w3.org/2000/svg"><g data-name="Слой 2"><path d="M490.24 33.92c-13.89-24.7-29-29.25-59.65-31C399.94.86 322.85 0 256.06 0S112 .86 81.41 2.91c-30.63 1.76-45.73 6.27-59.75 31C7.36 58.59 0 101.09 0 175.9v.26c0 74.5 7.36 117.31 21.66 141.73 14 24.7 29.09 29.18 59.72 31.26C112 350.94 189.15 352 256.06 352s143.88-1.06 174.56-2.82c30.69-2.08 45.76-6.56 59.65-31.26C504.7 293.5 512 250.69 512 176.19v-.25c0-74.85-7.3-117.35-21.76-142.02zM192 272V80l160 96z" data-name="Capa 1"/></g></symbol><symbol viewBox="0 0 459 459" id="sort-button" xmlns="http://www.w3.org/2000/svg"><path d="M0 382.5h153v-51H0v51zm0-306v51h459v-51H0zM0 255h306v-51H0v51z"/></symbol><symbol viewBox="0 0 367.24 479" id="tax" xmlns="http://www.w3.org/2000/svg"><g data-name="Слой 2"><path d="M243 133.63a24 24 0 0 0 3.08-6 23.38 23.38 0 0 1 9.18 3.67 35.05 35.05 0 0 0 18.77 6 36 36 0 0 0 6.3-.58A33.46 33.46 0 0 0 302 123a18.28 18.28 0 0 1 26.59-4.69 33.48 33.48 0 0 0 25.09 5.42l-2.78-15.72a18.29 18.29 0 0 1-14.32-3.52 34 34 0 0 0-46.8 8.25 18.33 18.33 0 0 1-12.25 8.26 15.93 15.93 0 0 1-7-.17 31.79 31.79 0 0 0 12.81-6.83 33.54 33.54 0 0 0 12-22.71 18.27 18.27 0 0 1 6.52-13.23A18 18 0 0 1 316 74a32.82 32.82 0 0 0 24.43-7.85L330.15 53.9A19 19 0 0 1 316 58a34 34 0 0 0-36.41 30.56 18.26 18.26 0 0 1-20.66 17.34 35.49 35.49 0 0 0-14.7 2 24 24 0 0 0-9.27-9.06l35.7-71.3A8 8 0 0 0 263.45 16a20.58 20.58 0 0 1-14.94-6.22 36.79 36.79 0 0 0-49.88 0 21.11 21.11 0 0 1-15 6.23 21.09 21.09 0 0 1-15-6.23 36.85 36.85 0 0 0-49.91 0 20.65 20.65 0 0 1-15 6.22 8 8 0 0 0-7.14 11.56l35.65 71.3a23.7 23.7 0 0 0-8 34.81A167.79 167.79 0 0 0 0 295.38v143.7A40 40 0 0 0 39.92 479h287.4a40 40 0 0 0 39.92-39.92v-143.7A167.81 167.81 0 0 0 243 133.63zM128.74 22.2a21.11 21.11 0 0 1 30 0 36.86 36.86 0 0 0 49.9 0 21.05 21.05 0 0 1 29.92 0 42.45 42.45 0 0 0 12.92 7.8L218.6 95.8h-70L115.76 30a42.62 42.62 0 0 0 12.98-7.8zm15 105.53a8 8 0 0 1 0-16h79.84a8 8 0 0 1 0 16zm207.53 311.35A24 24 0 0 1 327.32 463H39.92a24 24 0 0 1-24-23.95V295.38A151.85 151.85 0 0 1 167.65 143.7h31.93a151.85 151.85 0 0 1 151.69 151.68z" data-name="Слой 1"/></g></symbol></svg>