<svg xmlns="http://www.w3.org/2000/svg" fill="#fff" viewBox="0 0 372 336"><title>icon-shopping-basket</title><g data-name="Слой 2"><path d="M145.41 0a18.08 18.08 0 0 0-16.11 9.94l-1 2.06H62.06a24 24 0 0 0-23.29 18.19L19.31 108H18a18.09 18.09 0 0 0-18 18v24a18.09 18.09 0 0 0 18 18h2.34l20.32 152.37A18.09 18.09 0 0 0 58.5 336h255a18.09 18.09 0 0 0 17.84-15.63L351.66 168H354a18.09 18.09 0 0 0 18-18v-24a18.09 18.09 0 0 0-18-18h-1.31l-19.46-77.81A24.05 24.05 0 0 0 309.94 12H243.7l-1-2.06A18.08 18.08 0 0 0 226.59 0zm0 12h81.18a6 6 0 0 1 5.35 3.3l4.36 8.7h73.64a12 12 0 0 1 11.65 9.09L340.31 108H31.69l18.72-74.91A12 12 0 0 1 62.06 24h73.64l4.36-8.7a6 6 0 0 1 5.35-3.3zM18 120h336a5.89 5.89 0 0 1 6 6v24a5.89 5.89 0 0 1-6 6h-12.84v.07a6 6 0 0 0-1.52 11.44L319.43 318.8a5.91 5.91 0 0 1-5.93 5.2h-255a5.91 5.91 0 0 1-5.93-5.2L32.39 167.51a6 6 0 0 0-1.52-11.44V156H18a5.89 5.89 0 0 1-6-6v-24a5.89 5.89 0 0 1 6-6zm36 36a6 6 0 1 0 6 6 6 6 0 0 0-6-6zm24 0a6 6 0 1 0 6 6 6 6 0 0 0-6-6zm24 0a6 6 0 1 0 6 6 6 6 0 0 0-6-6zm24 0a6 6 0 1 0 6 6 6 6 0 0 0-6-6zm24 0a6 6 0 1 0 6 6 6 6 0 0 0-6-6zm24 0a6 6 0 1 0 6 6 6 6 0 0 0-6-6zm24 0a6 6 0 1 0 6 6 6 6 0 0 0-6-6zm24 0a6 6 0 1 0 6 6 6 6 0 0 0-6-6zm24 0a6 6 0 1 0 6 6 6 6 0 0 0-6-6zm24 0a6 6 0 1 0 6 6 6 6 0 0 0-6-6zm24 0a6 6 0 1 0 6 6 6 6 0 0 0-6-6zm24 0a6 6 0 1 0 6 6 6 6 0 0 0-6-6zm-186 36a6 6 0 1 0 6 6 6 6 0 0 0-6-6zm36 0a6 6 0 1 0 6 6 6 6 0 0 0-6-6zm36 0a6 6 0 1 0 6 6 6 6 0 0 0-6-6zm36 0a6 6 0 1 0 6 6 6 6 0 0 0-6-6zm-108 24a6 6 0 1 0 6 6 6 6 0 0 0-6-6zm36 0a6 6 0 1 0 6 6 6 6 0 0 0-6-6zm36 0a6 6 0 1 0 6 6 6 6 0 0 0-6-6zm36 0a6 6 0 1 0 6 6 6 6 0 0 0-6-6zm-108 24a6 6 0 1 0 6 6 6 6 0 0 0-6-6zm36 0a6 6 0 1 0 6 6 6 6 0 0 0-6-6zm36 0a6 6 0 1 0 6 6 6 6 0 0 0-6-6zm36 0a6 6 0 1 0 6 6 6 6 0 0 0-6-6zm-108 24a6 6 0 1 0 6 6 6 6 0 0 0-6-6zm36 0a6 6 0 1 0 6 6 6 6 0 0 0-6-6zm36 0a6 6 0 1 0 6 6 6 6 0 0 0-6-6zm36 0a6 6 0 1 0 6 6 6 6 0 0 0-6-6zm-108 24a6 6 0 1 0 6 6 6 6 0 0 0-6-6zm36 0a6 6 0 1 0 6 6 6 6 0 0 0-6-6zm36 0a6 6 0 1 0 6 6 6 6 0 0 0-6-6zm36 0a6 6 0 1 0 6 6 6 6 0 0 0-6-6z" data-name="Слой 1"/></g></svg>