<svg xmlns="http://www.w3.org/2000/svg" width="80pt" height="80pt" viewBox="0 0 80 80"><path d="M40 7C21.785 7 7 21.785 7 40s14.785 33 33 33 33-14.785 33-33S58.215 7 40 7zm0 2c17.133 0 31 13.867 31 31S57.133 71 40 71 9 57.133 9 40 22.867 9 40 9zm0 3c-.55 0-1 .45-1 1s.45 1 1 1 1-.45 1-1-.45-1-1-1zm5.293.516a1.003 1.003 0 0 0-1.008.808c-.105.54.246 1.067.79 1.176a1.005 1.005 0 0 0 1.175-.785 1.007 1.007 0 0 0-.785-1.18 3.355 3.355 0 0 0-.172-.02zm-10.555.004c-.066 0-.133.003-.199.015a1.001 1.001 0 0 0 .39 1.965.998.998 0 0 0 .786-1.176c-.094-.465-.5-.8-.977-.804zm-5.062 1.535a.998.998 0 0 0-.93 1.383.997.997 0 0 0 1.305.542c.512-.214.754-.796.543-1.308a1.006 1.006 0 0 0-.918-.617zm20.68 0a1.005 1.005 0 0 0-.95.617c-.21.512.032 1.094.543 1.308a.997.997 0 0 0 1.305-.543.998.998 0 0 0-.899-1.382zM41 16c-1.832 0-4 .852-5.8 2.516C33.394 20.18 32 22.723 32 26c0 2.832 1.332 5.902 2.613 8.34a37.423 37.423 0 0 0 2.055 3.465 3.796 3.796 0 0 0-.434.906L17.72 49.402l1 1.735c.914 1.586 2.734 3.035 5.078 3.765 2.34.73 5.242.664 8.078-.976 2.457-1.414 4.445-4.102 5.918-6.434a36.46 36.46 0 0 0 1.973-3.515c.082.003.156.023.234.023.27 0 .531-.027.785-.078l18.496 10.676 1-1.735c.918-1.586 1.266-3.886.727-6.281-.54-2.395-2.047-4.871-4.883-6.508-2.457-1.418-5.777-1.8-8.531-1.906a36.127 36.127 0 0 0-4.035.047c-.153-.3-.34-.574-.559-.824V16zm-15.988.547a1.02 1.02 0 0 0-.57.172.999.999 0 1 0 1.113 1.66.996.996 0 0 0 .277-1.383 1 1 0 0 0-.82-.45zm30.004 0a1 1 0 0 0-.848.45.999.999 0 0 0 1.66 1.11 1 1 0 0 0 .152-.752.98.98 0 0 0-.425-.636.98.98 0 0 0-.54-.172zM41 18v18.145A3.841 3.841 0 0 0 40 36c-.66 0-1.273.176-1.824.465a37.855 37.855 0 0 1-1.79-3.055C35.169 31.098 34 28.168 34 26c0-2.723 1.105-4.68 2.55-6.016C38 18.648 39.833 18 41 18zm-20.078 1.906c-.27 0-.531.106-.719.297a.995.995 0 0 0 0 1.41.995.995 0 0 0 1.41 0 .995.995 0 0 0 0-1.41.983.983 0 0 0-.691-.297zm38.183 0c-.27 0-.53.106-.718.297a.995.995 0 0 0 0 1.41.995.995 0 0 0 1.41 0 .995.995 0 0 0 0-1.41.983.983 0 0 0-.692-.297zM62.461 24a.995.995 0 0 0-.84 1.55.992.992 0 0 0 1.383.278A.997.997 0 0 0 62.46 24zm-44.895 0a.993.993 0 0 0-.847.441 1 1 0 0 0 .277 1.387 1 1 0 1 0 .57-1.828zm47.387 4.668a.999.999 0 0 0-.934 1.379 1.003 1.003 0 0 0 1.852-.766 1.002 1.002 0 0 0-.918-.613zm-49.875 0a.995.995 0 0 0-.945.617 1.005 1.005 0 0 0 .539 1.309 1.002 1.002 0 0 0 1.308-.543.997.997 0 0 0-.543-1.305.943.943 0 0 0-.359-.078zm51.406 5.066a.857.857 0 0 0-.199.016c-.539.11-.89.637-.785 1.176.11.543.637.894 1.176.789.543-.11.894-.637.789-1.18a1 1 0 0 0-.98-.8zm-52.937 0a1 1 0 1 0 .953 1.192 1 1 0 0 0-.781-1.176c-.059-.008-.114-.016-.172-.016zM40 38c1.117 0 2 .883 2 2s-.883 2-2 2-2-.883-2-2 .883-2 2-2zm-27 1c-.55 0-1 .45-1 1s.45 1 1 1 1-.45 1-1-.45-1-1-1zm54 0c-.55 0-1 .45-1 1s.45 1 1 1 1-.45 1-1-.45-1-1-1zm-21.316 1.137c.558-.004 1.18 0 1.832.027 2.609.102 5.73.559 7.609 1.64 2.355 1.36 3.5 3.298 3.934 5.22.43 1.921.078 3.831-.508 4.84l-15.707-9.067a3.977 3.977 0 0 0 1.136-2.61 42.63 42.63 0 0 1 1.704-.05zm-9.52.925a4.017 4.017 0 0 0 1.68 2.293 36.984 36.984 0 0 1-1.746 3.07c-1.391 2.208-3.344 4.688-5.223 5.77-2.355 1.36-4.605 1.383-6.484.797-1.88-.586-3.36-1.847-3.942-2.855zm-22.64 3.204a1.001 1.001 0 1 0 .191 1.984 1.003 1.003 0 1 0-.191-1.984zm52.984 0a1.003 1.003 0 0 0-.223 1.984 1.007 1.007 0 0 0 1.18-.785 1.007 1.007 0 0 0-.79-1.18 2.73 2.73 0 0 0-.167-.02zm-1.54 5.062a1.008 1.008 0 0 0-.948.621.999.999 0 0 0 .543 1.305 1.004 1.004 0 0 0 1.308-.54 1.002 1.002 0 0 0-.902-1.386zm-49.906.004c-.132 0-.265.023-.39.074a1.006 1.006 0 0 0-.54.543c-.1.246-.1.52-.003.766a.998.998 0 0 0 1.309.539.98.98 0 0 0 .542-.54 1 1 0 0 0-.918-1.382zM62.47 54a1 1 0 1 0 .535.168.934.934 0 0 0-.535-.168zm-44.907 0a.974.974 0 0 0-.566.168 1.004 1.004 0 0 0-.277 1.387c.308.457.93.582 1.39.273A.999.999 0 0 0 17.562 54zm3.36 4.094a.988.988 0 0 0-.719.293.995.995 0 0 0 0 1.41.995.995 0 0 0 1.41 0 .995.995 0 0 0 0-1.41.963.963 0 0 0-.691-.293zm38.183 0a.988.988 0 0 0-.718.293.995.995 0 0 0 0 1.41.995.995 0 0 0 1.41 0 .995.995 0 0 0 0-1.41.963.963 0 0 0-.692-.293zM25.02 61.449a.993.993 0 0 0-.848.442 1 1 0 1 0 .848-.441zm29.992 0a1 1 0 0 0-.567.164.997.997 0 0 0-.273 1.39c.305.458.926.583 1.387.278.457-.308.582-.93.273-1.39a.983.983 0 0 0-.82-.442zm-25.32 2.492a.999.999 0 0 0-.946.621 1 1 0 1 0 1.305-.542 1.022 1.022 0 0 0-.36-.079zm20.648 0c-.133 0-.266.028-.387.079a1.006 1.006 0 0 0-.547 1.308 1.004 1.004 0 0 0 1.852 0 1 1 0 0 0 0-.766.999.999 0 0 0-.918-.62zm-15.578 1.54a1 1 0 1 0-.053 2 1 1 0 0 0 .053-2zm10.508.003a.808.808 0 0 0-.196.016c-.543.11-.894.633-.789 1.176a1.01 1.01 0 0 0 1.18.79c.258-.056.488-.208.637-.427a1 1 0 0 0-.832-1.555zM40 66c-.55 0-1 .45-1 1s.45 1 1 1 1-.45 1-1-.45-1-1-1z" fill="#fff"/></svg>