<svg xmlns="http://www.w3.org/2000/svg" width="80pt" height="80pt" viewBox="0 0 80 80"><path d="M31 8c-1.645 0-3 1.355-3 3v4h2v9.672a7.002 7.002 0 0 0 3.293 5.937L38 33.555V37h-7.129c-.402-1.934-2.058-6-8.871-6h-1v5h2.5a.501.501 0 0 1 0 1H18c-1.652 0-3 1.348-3 3v3h-2v-2h-2v6h2v-2h2v3c0 1.652 1.348 3 3 3h1c.805 0 1 .195 1 1 0 .438-.324 1.027-.773 1.844C18.02 56.035 16 59.699 16 68c0 1.71 1.29 3 3 3h8c1.82 0 3-1.188 3-3.031V61.75c0-5.563 1.395-8.75 3.832-8.75h.29a959.08 959.08 0 0 0-1.95 8.531c-.266 1.207-.328 2.485.25 3.61C33 66.266 34.309 67 36 67c.36.004.695-.184.879-.496a1.01 1.01 0 0 0 0-1.008c-.184-.312-.52-.5-.879-.496-1.207 0-1.563-.313-1.8-.777-.24-.465-.282-1.313-.075-2.266.29-1.32 1.262-5.562 2.156-9.437.446-1.938.875-3.786 1.188-5.133l.11-.473A1.999 1.999 0 0 0 37 43a1.999 1.999 0 0 0-1.372 3.457l-.11.477a1721.7 1721.7 0 0 1-.94 4.066h-.747C31.652 51 28 52.395 28 61.75v6.219c0 .73-.29 1.031-1 1.031h-8c-.496 0-1-.309-1-1 0-7.785 1.863-11.168 2.98-13.191C21.55 53.773 22 52.953 22 52c0-1.906-1.094-3-3-3h-1c-.55 0-1-.45-1-1v-8c0-.55.45-1 1-1h5.5c1.379 0 2.5-1.121 2.5-2.5S24.879 34 23.5 34H23v-.965c5.766.422 5.992 4.485 6 4.965v1h22c0 .55.45 1 1 1s1-.45 1-1v-1h5c.484 0 .898.352.98.832l.02.121V39a1.002 1.002 0 0 0 1.25.969A6.02 6.02 0 0 1 63 45a6.023 6.023 0 0 1-2.754 5.031A1.002 1.002 0 0 0 59 51v.04l-.02.128A.997.997 0 0 1 58 52h-5v-1c0-.55-.45-1-1-1s-1 .45-1 1H38.629c-.149.648-.3 1.32-.457 2H51v1h7c1.281 0 2.39-.805 2.813-1.977.066-.035.124-.082.187-.117V52h5c1.645 0 3-1.355 3-3v-1.66l-4.102-1.133c.063-.395.102-.797.102-1.207 0-.41-.04-.813-.102-1.207L69 42.66V41c0-1.645-1.355-3-3-3h-5v.094c-.063-.035-.121-.082-.188-.117A2.983 2.983 0 0 0 58 36h-7v1h-5v-3.445l4.707-2.946A6.995 6.995 0 0 0 54 24.676V15h2v-4c0-1.645-1.355-3-3-3zm0 2h22c.566 0 1 .434 1 1v2h-2c-.55 0-1 .45-1 1s.45 1 1 1v9.676a4.994 4.994 0 0 1-2.348 4.238L44 32.445V37h-4v-4.555l-5.652-3.53A5 5 0 0 1 32 24.671V15c.55 0 1-.45 1-1s-.45-1-1-1h-2v-2c0-.566.434-1 1-1zm5 3c-.55 0-1 .45-1 1s.45 1 1 1 1-.45 1-1-.45-1-1-1zm4 0c-.55 0-1 .45-1 1s.45 1 1 1 1-.45 1-1-.45-1-1-1zm4 0c-.55 0-1 .45-1 1s.45 1 1 1 1-.45 1-1-.45-1-1-1zm4 0c-.55 0-1 .45-1 1s.45 1 1 1 1-.45 1-1-.45-1-1-1zm15.23 27H66c.566 0 1 .434 1 1v.14l-2.648.723A8.292 8.292 0 0 0 63.23 40zM52 42c-.55 0-1 .45-1 1s.45 1 1 1 1-.45 1-1-.45-1-1-1zm8 0c-.55 0-1 .45-1 1s.45 1 1 1 1-.45 1-1-.45-1-1-1zm-8 4c-.55 0-1 .45-1 1s.45 1 1 1 1-.45 1-1-.45-1-1-1zm8 0c-.55 0-1 .45-1 1s.45 1 1 1 1-.45 1-1-.45-1-1-1zm4.352 2.137l2.648.722V49c0 .566-.434 1-1 1h-2.77a8.292 8.292 0 0 0 1.122-1.863z" fill="#fff"/></svg>