<svg xmlns="http://www.w3.org/2000/svg" fill="#fff" viewBox="0 0 414 360"><title>icon-projects</title><g data-name="Слой 2"><path d="M48 0A48.09 48.09 0 0 0 0 48v228a48.09 48.09 0 0 0 48 48h13.58A48.09 48.09 0 0 0 108 360h306V84h-36V48H96A48.09 48.09 0 0 0 48 0zm0 12a35.91 35.91 0 0 1 36 36v196.37a47.77 47.77 0 0 0-72 0V48a35.91 35.91 0 0 1 36-36zM36 30a6 6 0 1 0 6 6 6 6 0 0 0-6-6zm0 24a6 6 0 1 0 6 6 6 6 0 0 0-6-6zm60 6h270v252H48a36 36 0 1 1 36-36h12zm245.65 12a6 6 0 1 0 6 6 6 6 0 0 0-6-6zM36 78a6 6 0 1 0 6 6 6 6 0 0 0-6-6zm305.65 18a6 6 0 1 0 6 6 6 6 0 0 0-6-6zM378 96h24v252H108a35.9 35.9 0 0 1-33.93-24H378zm-342 6a6 6 0 1 0 6 6 6 6 0 0 0-6-6zm210 0v12h33.52L234 159.52l-42-42-58.24 58.24 8.48 8.48L192 134.48l42 42 54-54V156h12v-54zm95.65 18a6 6 0 1 0 6 6 6 6 0 0 0-6-6zM36 126a6 6 0 1 0 6 6 6 6 0 0 0-6-6zm305.65 18a6 6 0 1 0 6 6 6 6 0 0 0-6-6zM36 150a6 6 0 1 0 6 6 6 6 0 0 0-6-6zm305.65 18a6 6 0 1 0 6 6 6 6 0 0 0-6-6zM36 174a6 6 0 1 0 6 6 6 6 0 0 0-6-6zm305.65 18a6 6 0 1 0 6 6 6 6 0 0 0-6-6zM36 198a6 6 0 1 0 6 6 6 6 0 0 0-6-6zm96 18v12h168v-12zm209.65 0a6 6 0 1 0 6 6 6 6 0 0 0-6-6zm0 24a6 6 0 1 0 6 6 6 6 0 0 0-6-6zM132 252v12h120v-12zm209.65 12a6 6 0 1 0 6 6 6 6 0 0 0-6-6zm0 24a6 6 0 1 0 6 6 6 6 0 0 0-6-6z" data-name="Слой 1"/></g></svg>