<svg xmlns="http://www.w3.org/2000/svg" fill="#fff" viewBox="0 0 396 372"><title>man_woman</title><g data-name="Слой 2"><path d="M148.36 0c-29 0-55.15 15.89-74.09 31.34a217.09 217.09 0 0 0-31 31l-5.42 6.94 8.46 2.48s3.28.92 7.22 5 8.11 10.85 8.11 23.81a170.27 170.27 0 0 0 3.87 36.12A16.44 16.44 0 0 0 60 148.8c0 3.9 1.17 7.22 2.13 10.48.47 1.64.94 3.17 1.25 4.31s.37 2.28.37 1.41c0 8.16 6.84 14.51 14.88 14.81A77.65 77.65 0 0 0 108 237.12v22.38a389.76 389.76 0 0 0-50.55 19.31c-13.81 6.52-27.68 14.37-38.45 23.67S0 322.92 0 336v36h312v-36a34.7 34.7 0 0 0-5.34-18H396v-22.8c0-10.55-6.54-19.34-14.91-26.56s-19-13.22-29.55-18.21A274.05 274.05 0 0 0 312 235.5V234h62.06l1.06-4.69A427.46 427.46 0 0 0 384 145.1c0-28.4-7.29-52.36-19.15-69.51-11.3-16.27-27.07-26.21-44.18-27.21A49.6 49.6 0 0 0 282 30c-15.56 0-31.9 3.75-46.34 10-.86-.87-1.71-1.76-2.6-2.55a52.82 52.82 0 0 0-31.43-12.75 43.2 43.2 0 0 0-10.57-11.39C182.41 6.54 168.54 0 148.36 0zm0 12c17.62 0 28.57 5.46 35.3 10.73s9 9.92 9 9.92l1.61 3.35H198a42.71 42.71 0 0 1 27.12 10.43C233.51 53.81 240 65.34 240 84c0 16.73-4 41.16-5.16 48h-.09c-.52 0-.42.12-.75.16V114c0-20.53-8.39-34.34-16.83-42.52A51.55 51.55 0 0 0 199.9 60.3l-3.42-1.14-2.63 2.5s-3.77 3.71-12.89 7.88S157.73 78 138 78c-10.8 0-25 3.82-37.38 12.45S78.07 113.11 78 132.19c-.32-.05-.25-.19-.77-.19-.14 0-.28.05-.42.05a154.61 154.61 0 0 1-3.19-31.55c0-15.7-5.62-26.13-11.51-32.18-2.5-2.58-3.07-2.13-5.25-3.42a186.46 186.46 0 0 1 25-24.24C99.7 26.11 123.8 12 148.36 12zM282 42c19.52 0 31.17 15.56 31.17 15.56L315 60h3c13.59 0 26.79 7.71 37 22.43s17 36.33 17 62.67a386.15 386.15 0 0 1-7.76 76.9h-51.91c15.12-10.48 23.67-28.87 23.67-49.12V145.1c0-15-4.92-25.33-10.1-31.62a33.28 33.28 0 0 0-11-8.83l-4.19-1.76-2.84 3.54s-3.42 4.41-11.32 8.62-19.8 8-36.61 5.49l-1.76 11.86c19.41 2.88 34.25-1.5 44-6.77a31.37 31.37 0 0 0 10.29-8c1.15.66 1.88.71 4.17 3.5 3.54 4.28 7.34 11.46 7.34 24v27.78c0 23.55-12.23 41.74-33.82 45.58l-1.71.33-1.27 1.15A7.63 7.63 0 0 1 282 222a7.53 7.53 0 0 1-5.2-2.06l-1.27-1.15-1.71-.33c-20-3.56-31.85-19.55-33.49-40.62a14.87 14.87 0 0 0 7-8.11 9 9 0 1 0 3.09-12.49 28.88 28.88 0 0 0 1.58-8.44 16.51 16.51 0 0 0-5.65-12.32c1.1-6.33 5.65-33.43 5.65-52.48 0-14-3.4-25.29-8.72-34.2C255.61 44.93 269.37 42 282 42zm-84 30.94c1.45.56 5.25 1.76 10.83 7.15C215.39 86.46 222 96.63 222 114v37.83l9-5.3c1.55-.89 3-1.69 4-2.2.12-.07.16-.07.28-.14 2.74.28 4.71 2.2 4.71 4.59a57.66 57.66 0 0 1-1.64 7.11c-.47 1.54-.94 3.11-1.34 4.54a14.79 14.79 0 0 0-.77 4.55 3.12 3.12 0 0 1-3.37 3H222v8.2a65.94 65.94 0 0 1-54.35 64.93l-1.71.28-1.29 1.19a12.7 12.7 0 0 1-17.32 0l-1.27-1.17-1.71-.28A65.94 65.94 0 0 1 90 176.2V168H79.13a3.12 3.12 0 0 1-3.38-3 13.87 13.87 0 0 0-.8-4.55c-.4-1.43-.86-3-1.33-4.54A54.26 54.26 0 0 1 72 148.8c0-2.41 2-4.33 4.71-4.61.12.07.17.07.28.14 1 .51 2.44 1.31 4 2.2l9 5.3V132.3c0-15 7.45-25 17.48-32S130.27 90 138 90c21.49 0 37.38-4.71 47.95-9.54 7.85-3.58 9.92-5.79 12.05-7.52zM123 144a9 9 0 1 0 9 9 9 9 0 0 0-9-9zm66 0a9 9 0 1 0 9 9 9 9 0 0 0-9-9zm114 12a9 9 0 1 0 9 9 9 9 0 0 0-9-9zm-71.7 37.85c3.83 11.7 10.88 21.7 20.7 28.41v13.19c-5.39 1.6-27.87 8.49-48 18.43v-16.74a77.78 77.78 0 0 0 27.3-43.29zm68.7 34.34V246c-.7 1.38-5.13 9.59-18 9.59s-17.3-8.21-18-9.59v-17.79a53.52 53.52 0 0 0 6.21 1.74 19.22 19.22 0 0 0 23.6 0 52.68 52.68 0 0 0 6.19-1.76zM120 245a77.24 77.24 0 0 0 20.65 7.4 23.63 23.63 0 0 0 30.63 0A76.71 76.71 0 0 0 192 245v35.16c-.73 1.45-10.22 19.87-36 19.87s-35.27-18.42-36-19.87zm132 3v1.31l.63 1.27s9 17 29.37 17 29.37-17 29.37-17l.63-1.27v-1.24a255 255 0 0 1 34.41 13.22c10 4.71 19.85 10.41 26.86 16.45S384 289.78 384 295.2V306h-87.09c-1.25-1.2-2.53-2.37-3.87-3.52a127 127 0 0 0-13.34-9.77A5.92 5.92 0 0 0 282 288a6 6 0 0 0-11.91-1.1c-5.08-2.86-10.29-5.6-15.54-8.09a379.52 379.52 0 0 0-40.94-16.22A359.18 359.18 0 0 1 252 248zm-144 24.13v11.28l.63 1.29S122.79 312 156 312s47.37-27.3 47.37-27.3l.63-1.29v-11.28a368.51 368.51 0 0 1 45.45 17.56c13.19 6.23 26.32 13.76 35.76 21.89S300 328.08 300 336v24H12v-24c0-7.92 5.34-16.29 14.79-24.42s22.57-15.66 35.76-21.89A368.51 368.51 0 0 1 108 272.13zM300 282a6 6 0 1 0 6 6 6 6 0 0 0-6-6zm24 0a6 6 0 1 0 6 6 6 6 0 0 0-6-6zm24 0a6 6 0 1 0 6 6 6 6 0 0 0-6-6zM36 336a6 6 0 1 0 6 6 6 6 0 0 0-6-6zm24 0a6 6 0 1 0 6 6 6 6 0 0 0-6-6zm24 0a6 6 0 1 0 6 6 6 6 0 0 0-6-6zm24 0a6 6 0 1 0 6 6 6 6 0 0 0-6-6zm24 0a6 6 0 1 0 6 6 6 6 0 0 0-6-6zm24 0a6 6 0 1 0 6 6 6 6 0 0 0-6-6zm24 0a6 6 0 1 0 6 6 6 6 0 0 0-6-6zm24 0a6 6 0 1 0 6 6 6 6 0 0 0-6-6zm24 0a6 6 0 1 0 6 6 6 6 0 0 0-6-6zm24 0a6 6 0 1 0 6 6 6 6 0 0 0-6-6zm24 0a6 6 0 1 0 6 6 6 6 0 0 0-6-6z" data-name="Слой 1"/></g></svg>