<svg xmlns="http://www.w3.org/2000/svg" width="80pt" height="80pt" viewBox="0 0 80 80"><path d="M9 10c-.55 0-1 .45-1 1s.45 1 1 1 1-.45 1-1-.45-1-1-1zm4 0c-.55 0-1 .45-1 1s.45 1 1 1 1-.45 1-1-.45-1-1-1zm4 0a1.006 1.006 0 0 0-.879.496 1.01 1.01 0 0 0 0 1.008c.184.312.52.5.879.496h7c12.715 0 23 10.285 23 23-.55 0-1 .45-1 1s.45 1 1 1h1c.566 0 1 .434 1 1 0 .566-.434 1-1 1h-1c-.55 0-1 .45-1 1s.45 1 1 1v6c0 2.75 2.25 5 5 5h12c.36.004.695-.184.879-.496a1.01 1.01 0 0 0 0-1.008c-.184-.312-.52-.5-.879-.496H52c-1.668 0-3-1.332-3-3v-6.418c1.105-.441 2-1.324 2-2.582 0-1.258-.895-2.14-2-2.582V35c0-13.797-11.203-25-25-25zM9 28c-.55 0-1 .45-1 1s.45 1 1 1 1-.45 1-1-.45-1-1-1zm4 0c-.55 0-1 .45-1 1s.45 1 1 1 1-.45 1-1-.45-1-1-1zm4 0a1.006 1.006 0 0 0-.879.496 1.01 1.01 0 0 0 0 1.008c.184.312.52.5.879.496h9c1.668 0 3 1.332 3 3v2.418c-1.105.441-2 1.324-2 2.582 0 1.258.895 2.14 2 2.582V45c0 13.797 11.203 25 25 25h10c.36.004.695-.184.879-.496a1.01 1.01 0 0 0 0-1.008c-.184-.312-.52-.5-.879-.496H54c-12.715 0-23-10.285-23-23v-4c.55 0 1-.45 1-1s-.45-1-1-1h-1c-.566 0-1-.434-1-1 0-.566.434-1 1-1h1c.55 0 1-.45 1-1s-.45-1-1-1v-2c0-2.75-2.25-5-5-5zm18 7c-.55 0-1 .45-1 1s.45 1 1 1 1-.45 1-1-.45-1-1-1zm4 0c-.55 0-1 .45-1 1s.45 1 1 1 1-.45 1-1-.45-1-1-1zm4 0c-.55 0-1 .45-1 1s.45 1 1 1 1-.45 1-1-.45-1-1-1zm-8 4c-.55 0-1 .45-1 1s.45 1 1 1 1-.45 1-1-.45-1-1-1zm4 0c-.55 0-1 .45-1 1s.45 1 1 1 1-.45 1-1-.45-1-1-1zm4 0c-.55 0-1 .45-1 1s.45 1 1 1 1-.45 1-1-.45-1-1-1zm25 11c-.55 0-1 .45-1 1s.45 1 1 1 1-.45 1-1-.45-1-1-1zm4 0c-.55 0-1 .45-1 1s.45 1 1 1 1-.45 1-1-.45-1-1-1zm-4 18c-.55 0-1 .45-1 1s.45 1 1 1 1-.45 1-1-.45-1-1-1zm4 0c-.55 0-1 .45-1 1s.45 1 1 1 1-.45 1-1-.45-1-1-1z" fill="#fff"/></svg>